<svg width="140" height="54" viewBox="0 0 140 54" fill="none" xmlns="http://www.w3.org/2000/svg">
<rect x="0.5" y="0.5" width="139" height="53" rx="9.5" fill="white"/>
<rect x="0.5" y="0.5" width="139" height="53" rx="9.5" stroke="#727272"/>
<mask id="path-2-inside-1_4965_72692" fill="white">
<path d="M26 15H114V39H26V15Z"/>
</mask>
<path d="M114 38H26V40H114V38Z" fill="#727272" mask="url(#path-2-inside-1_4965_72692)"/>
<path d="M35.26 19.06H45.04V21.34H35.26V19.06ZM34.56 32.88H45.38V35.18H34.56V32.88ZM38.86 19.84H41.36V34.06H38.86V19.84ZM30.08 26.82H32.44V35.8H30.08V26.82ZM30.12 16.98L32.38 17.84C31.4 19.4 30.28 21.14 29.36 22.24L27.66 21.48C28.52 20.28 29.56 18.38 30.12 16.98ZM32.68 19.32L34.86 20.38C33.24 22.66 31.12 25.34 29.44 27L27.86 26.06C29.5 24.3 31.52 21.48 32.68 19.32ZM26.56 21.58L27.7 19.92C28.96 20.88 30.52 22.24 31.2 23.24L29.94 25.12C29.28 24.08 27.8 22.6 26.56 21.58ZM32.54 24.16L34.28 23.3C35.18 24.56 36.22 26.26 36.64 27.38L34.78 28.38C34.38 27.26 33.42 25.48 32.54 24.16ZM26.48 25.66C28.54 25.58 31.62 25.44 34.58 25.28V27.28C31.82 27.52 28.9 27.74 26.74 27.9L26.48 25.66ZM32.7 29.26L34.66 28.6C35.28 29.92 35.9 31.58 36.18 32.7L34.12 33.48C33.88 32.34 33.26 30.6 32.7 29.26ZM27.6 28.72L29.78 29.12C29.52 31.06 28.96 33.08 28.3 34.36C27.84 34.04 26.84 33.6 26.32 33.38C26.96 32.22 27.38 30.4 27.6 28.72ZM49.26 22.96H58.86V25.18H49.26V22.96ZM59.82 19.44H62.16V30.68H59.82V19.44ZM53.08 19H55.44V35.78H53.08V19ZM64.56 17.4H66.94V32.86C66.94 34.28 66.66 34.94 65.84 35.34C65 35.72 63.68 35.8 61.84 35.8C61.72 35.1 61.34 34 61 33.32C62.32 33.36 63.6 33.36 64.02 33.36C64.4 33.36 64.56 33.24 64.56 32.86V17.4ZM57.1 17.1L58.82 18.94C56.28 19.94 52.76 20.62 49.74 21.04C49.64 20.5 49.3 19.66 49.02 19.16C51.94 18.72 55.16 17.98 57.1 17.1ZM53.06 24.02L54.68 24.72C53.68 27.72 51.92 31.3 50.04 33.3C49.8 32.58 49.2 31.58 48.8 30.94C50.52 29.28 52.26 26.36 53.06 24.02ZM55.08 26.04C55.86 26.54 58.34 28.62 58.92 29.14L57.56 31.2C56.68 30.12 54.82 28.18 53.84 27.28L55.08 26.04ZM79.84 18.02H87.96V20.24H79.84V18.02ZM79.16 24.98H90.2V27.24H79.16V24.98ZM83.38 22.64H85.8V33.14C85.8 34.34 85.56 34.98 84.78 35.36C83.98 35.72 82.88 35.8 81.4 35.78C81.28 35.12 80.88 34.08 80.56 33.44C81.58 33.48 82.62 33.5 82.96 33.48C83.28 33.46 83.38 33.38 83.38 33.1V22.64ZM87.1 18.02H87.68L88.18 17.9L89.74 19.08C88.56 20.82 86.86 22.94 85.3 24.26C84.98 23.84 84.32 23.18 83.94 22.86C85.12 21.72 86.5 19.74 87.1 18.54V18.02ZM71.54 21H78V23.22H71.54V21ZM74.22 17.02L76.48 17.26C75.72 21.52 74.56 26.88 73.62 30.48L71.66 29.44C72.52 26.28 73.6 21 74.22 17.02ZM72.7 29.1L74.02 27.42C76.1 28.72 78.74 30.66 79.9 32.16L78.46 34.1C77.34 32.58 74.8 30.48 72.7 29.1ZM77.18 21H77.56L77.98 20.94L79.4 21.18C78.94 28.98 77 33.4 73.04 35.86C72.72 35.28 72.08 34.42 71.6 33.96C75 32.18 76.78 27.76 77.18 21.44V21ZM98.02 24.32H112.56V26H98.02V24.32ZM99.2 21.8H110.76V28.56H98.98V26.96H108.5V23.42H99.2V21.8ZM103.4 20.64H105.7V33.44C105.7 34.64 105.44 35.16 104.66 35.48C103.88 35.8 102.74 35.84 101.08 35.84C100.98 35.26 100.68 34.38 100.36 33.82C101.4 33.86 102.6 33.86 102.94 33.84C103.28 33.84 103.4 33.74 103.4 33.42V20.64ZM98.02 29.78L99.32 28.5C100.3 28.96 101.58 29.74 102.24 30.3L100.84 31.72C100.26 31.14 99 30.32 98.02 29.78ZM110 28.64L111.76 30.06C110.5 30.88 109.04 31.72 107.9 32.22L106.56 31.02C107.64 30.44 109.14 29.4 110 28.64ZM106.08 28.06C107.08 30.72 109.16 32.78 112.24 33.66C111.74 34.1 111.1 34.98 110.78 35.58C107.52 34.4 105.46 31.9 104.28 28.48L106.08 28.06ZM97.18 33.16C98.5 32.74 100.48 32 102.42 31.26L102.84 32.98C101.3 33.72 99.64 34.46 98.3 35.06L97.18 33.16ZM102.58 17.02H105.08V19.84H102.58V17.02ZM96.52 18.74H112.32V20.82H96.52V18.74ZM95.38 18.74H97.66V24.54C97.66 27.82 97.36 32.76 95.56 35.88C95.14 35.48 94.14 34.8 93.6 34.58C95.26 31.7 95.38 27.52 95.38 24.54V18.74Z" fill="#727272"/>
</svg>
