<svg width="300" height="54" viewBox="0 0 300 54" fill="none" xmlns="http://www.w3.org/2000/svg">
<rect x="0.5" y="0.5" width="299" height="53" rx="9.5" fill="white"/>
<rect x="0.5" y="0.5" width="299" height="53" rx="9.5" stroke="#727272"/>
<path d="M59.26 19.06H69.04V21.34H59.26V19.06ZM58.56 32.88H69.38V35.18H58.56V32.88ZM62.86 19.84H65.36V34.06H62.86V19.84ZM54.08 26.82H56.44V35.8H54.08V26.82ZM54.12 16.98L56.38 17.84C55.4 19.4 54.28 21.14 53.36 22.24L51.66 21.48C52.52 20.28 53.56 18.38 54.12 16.98ZM56.68 19.32L58.86 20.38C57.24 22.66 55.12 25.34 53.44 27L51.86 26.06C53.5 24.3 55.52 21.48 56.68 19.32ZM50.56 21.58L51.7 19.92C52.96 20.88 54.52 22.24 55.2 23.24L53.94 25.12C53.28 24.08 51.8 22.6 50.56 21.58ZM56.54 24.16L58.28 23.3C59.18 24.56 60.22 26.26 60.64 27.38L58.78 28.38C58.38 27.26 57.42 25.48 56.54 24.16ZM50.48 25.66C52.54 25.58 55.62 25.44 58.58 25.28V27.28C55.82 27.52 52.9 27.74 50.74 27.9L50.48 25.66ZM56.7 29.26L58.66 28.6C59.28 29.92 59.9 31.58 60.18 32.7L58.12 33.48C57.88 32.34 57.26 30.6 56.7 29.26ZM51.6 28.72L53.78 29.12C53.52 31.06 52.96 33.08 52.3 34.36C51.84 34.04 50.84 33.6 50.32 33.38C50.96 32.22 51.38 30.4 51.6 28.72ZM73.26 22.96H82.86V25.18H73.26V22.96ZM83.82 19.44H86.16V30.68H83.82V19.44ZM77.08 19H79.44V35.78H77.08V19ZM88.56 17.4H90.94V32.86C90.94 34.28 90.66 34.94 89.84 35.34C89 35.72 87.68 35.8 85.84 35.8C85.72 35.1 85.34 34 85 33.32C86.32 33.36 87.6 33.36 88.02 33.36C88.4 33.36 88.56 33.24 88.56 32.86V17.4ZM81.1 17.1L82.82 18.94C80.28 19.94 76.76 20.62 73.74 21.04C73.64 20.5 73.3 19.66 73.02 19.16C75.94 18.72 79.16 17.98 81.1 17.1ZM77.06 24.02L78.68 24.72C77.68 27.72 75.92 31.3 74.04 33.3C73.8 32.58 73.2 31.58 72.8 30.94C74.52 29.28 76.26 26.36 77.06 24.02ZM79.08 26.04C79.86 26.54 82.34 28.62 82.92 29.14L81.56 31.2C80.68 30.12 78.82 28.18 77.84 27.28L79.08 26.04ZM101.26 29.6V30.62H108.04V29.6H101.26ZM101.26 27.08V28.08H108.04V27.08H101.26ZM98.9 25.5H110.54V32.2H98.9V25.5ZM95.84 19.26H113.76V21.32H95.84V19.26ZM103.52 17.02H105.9V24.94H103.52V17.02ZM102.42 19.9L104.42 20.66C102.7 23.34 99.86 25.62 96.8 26.82C96.46 26.24 95.76 25.36 95.26 24.9C98.16 23.98 100.98 22.02 102.42 19.9ZM106.9 19.88C108.36 21.96 111.28 23.84 114.26 24.72C113.74 25.16 113.04 26.08 112.7 26.68C109.62 25.54 106.72 23.28 104.96 20.62L106.9 19.88ZM96.02 33.12H113.6V35.24H96.02V33.12ZM127.22 26.74H131.2V28.46H127.22V26.74ZM127.46 19.96H134.68V22.16H127.46V19.96ZM127.46 23.72H132.32V31.56H127.46V29.74H130.3V25.54H127.46V23.72ZM126.14 23.72H128.16V32.46H126.14V23.72ZM133.92 19.96H136.2C136.2 19.96 136.2 20.78 136.2 21.08C136.04 30.36 135.9 33.54 135.16 34.58C134.64 35.34 134.12 35.58 133.32 35.7C132.58 35.82 131.4 35.8 130.26 35.74C130.22 35.12 129.92 34.12 129.52 33.5C130.72 33.58 131.78 33.58 132.3 33.58C132.66 33.58 132.88 33.52 133.1 33.24C133.66 32.58 133.8 29.12 133.92 20.46V19.96ZM127.6 17L130.02 17.56C129.16 20.54 127.7 23.44 126.06 25.28C125.64 24.84 124.64 24.02 124.08 23.64C125.66 22.1 126.92 19.56 127.6 17ZM118.7 23.16H124.56V24.96H118.7V23.16ZM118.76 17.64H124.5V19.46H118.76V17.64ZM118.7 25.88H124.56V27.7H118.7V25.88ZM117.78 20.34H125.08V22.24H117.78V20.34ZM119.74 28.66H124.58V34.74H119.74V32.84H122.58V30.56H119.74V28.66ZM118.66 28.66H120.62V35.54H118.66V28.66ZM146.8 20.54C148.38 27.22 151.86 31.84 159.18 33.46C158.62 33.98 157.86 35.08 157.5 35.8C149.84 33.78 146.54 28.74 144.64 21.02L146.8 20.54ZM141.28 18.02H152.02V20.36H141.28V18.02ZM155.42 22.78H155.88L156.3 22.68L157.96 23.34C156.4 30.3 152.24 33.94 146.56 35.8C146.26 35.16 145.66 34.18 145.16 33.66C150.28 32.3 154.18 28.84 155.42 23.22V22.78ZM151.48 18.02H151.78L152.2 17.92L154.06 18.22C153.62 20.6 152.94 23.52 152.32 25.9L149.8 25.54C150.46 23.14 151.16 20 151.48 18.28V18.02ZM151.88 22.78H155.92V25.04H151.42L151.88 22.78ZM144.48 18.66H146.94V21.72C146.94 25.62 146.42 31.44 141.82 35.48C141.46 34.86 140.62 33.86 140.08 33.42C144.06 30.02 144.48 24.98 144.48 21.72V18.66ZM169.08 21.46H173.16V23.52H169.08V21.46ZM172.5 21.46H174.42C174.42 21.46 174.4 22.14 174.4 22.38C174.3 30.88 174.2 33.78 173.72 34.58C173.38 35.16 173.04 35.36 172.52 35.44C172.08 35.54 171.48 35.54 170.84 35.54C170.8 34.96 170.6 34.12 170.32 33.58C170.82 33.64 171.22 33.64 171.5 33.64C171.72 33.64 171.86 33.56 172 33.28C172.32 32.74 172.42 30.08 172.5 21.94V21.46ZM170 17.02H171.84C171.82 25.12 171.62 31.5 169 35.82C168.72 35.5 167.88 34.76 167.46 34.46C169.94 30.72 170.06 24.42 170 17.02ZM164.8 17.02H167V20.38H164.8V17.02ZM162.88 19.52H168.82V21.48H162.88V19.52ZM162.66 25.04H169V27H162.66V25.04ZM163.3 21.94L164.92 21.48C165.28 22.46 165.5 23.78 165.54 24.64L163.78 25.14C163.82 24.28 163.6 22.94 163.3 21.94ZM166.82 21.44L168.74 21.82C168.36 23 168.02 24.3 167.72 25.12L166.18 24.74C166.42 23.82 166.72 22.4 166.82 21.44ZM162.5 29.28C164.14 29.08 166.56 28.7 168.92 28.34L169.06 30.26C166.92 30.66 164.66 31.04 162.9 31.36L162.5 29.28ZM176.88 17.02H179.1V20.38H176.88V17.02ZM176.88 25.78H179.1V35.82H176.88V25.78ZM174.74 19.5H181.1V21.46H174.74V19.5ZM174.66 25.02H181.38V26.98H174.66V25.02ZM174.82 29.1H181.14V31.08H174.82V29.1ZM175.18 21.92L176.82 21.46C177.2 22.44 177.46 23.78 177.48 24.64L175.74 25.14C175.74 24.28 175.52 22.94 175.18 21.92ZM178.96 21.36L180.92 21.78C180.54 22.96 180.18 24.24 179.86 25.08L178.28 24.68C178.52 23.76 178.84 22.34 178.96 21.36ZM164.8 25.64H167V29.28C167 31.48 166.42 34.14 164.08 35.82C163.78 35.36 163.12 34.62 162.62 34.26C164.58 33.04 164.8 30.86 164.8 29.26V25.64ZM190.58 25.04H203.56V27.32H190.58V25.04ZM191.58 19.9H202.6V22.18H191.58V19.9ZM195.74 17.02H198.24V26.7H195.74V17.02ZM190.58 32.58C193.26 32.48 197.48 32.24 201.42 32.02V34.18C197.68 34.5 193.72 34.8 190.9 35L190.58 32.58ZM198.24 29.82L200.32 28.72C201.8 30.5 203.42 32.86 204.04 34.56L201.76 35.82C201.22 34.18 199.7 31.66 198.24 29.82ZM194.2 26.64L196.86 27.34C195.98 29.66 194.84 32.22 193.92 33.88L191.78 33.2C192.68 31.44 193.68 28.7 194.2 26.64ZM186.1 18.86L187.42 17.1C188.72 17.58 190.42 18.44 191.26 19.14L189.86 21.1C189.08 20.38 187.42 19.42 186.1 18.86ZM184.96 24.32L186.2 22.5C187.5 22.94 189.22 23.72 190.1 24.38L188.76 26.38C187.96 25.72 186.28 24.82 184.96 24.32ZM185.52 33.98C186.52 32.48 187.96 29.98 189.06 27.68L190.88 29.2C189.9 31.32 188.72 33.6 187.6 35.54L185.52 33.98ZM218.2 24.54V26.66H222.54V24.54H218.2ZM216.02 22.48H224.86V28.7H216.02V22.48ZM220.64 28.1H222.92V32.92C222.92 33.48 222.96 33.54 223.24 33.54C223.36 33.54 223.82 33.54 223.98 33.54C224.32 33.54 224.38 33.24 224.44 31.02C224.88 31.4 225.84 31.78 226.44 31.94C226.26 34.9 225.7 35.66 224.24 35.66C223.88 35.66 223.18 35.66 222.86 35.66C221.04 35.66 220.64 34.96 220.64 32.92V28.1ZM217.3 28.42H219.64C219.4 31.86 218.72 34.36 215.08 35.84C214.84 35.28 214.22 34.38 213.72 33.96C216.72 32.88 217.12 31.02 217.3 28.42ZM217.88 17.56H222.72V19.74H217.88V17.56ZM216.46 19.34L218.8 19.94C218.14 21.58 217.16 23.42 216.04 24.58C215.56 24.16 214.72 23.58 214.18 23.28C215.22 22.28 216.08 20.64 216.46 19.34ZM220.9 17.56H223.36C223.96 19.48 225.18 21.5 226.46 22.7C225.86 23.04 224.9 23.74 224.44 24.22C223.12 22.76 222 20.66 221.32 18.68H220.9V17.56ZM208.34 23.16H214.38V24.96H208.34V23.16ZM208.4 17.64H214.32V19.46H208.4V17.64ZM208.34 25.88H214.38V27.7H208.34V25.88ZM207.38 20.34H215.04V22.24H207.38V20.34ZM209.38 28.66H214.4V34.74H209.38V32.84H212.36V30.56H209.38V28.66ZM208.3 28.66H210.32V35.54H208.3V28.66ZM231.84 18.12H237.58V30.4H231.84V28.2H235.36V20.28H231.84V18.12ZM231.86 23.12H236.24V25.26H231.86V23.12ZM240.4 17.82H246.54V20.04H240.4V17.82ZM240.4 22.6H246.54V24.76H240.4V22.6ZM240.36 27.34H246.52V29.48H240.36V27.34ZM230.56 18.12H232.78V32.14H230.56V18.12ZM245.64 17.82H248.02V33.06C248.02 34.3 247.76 34.96 246.98 35.34C246.18 35.72 245.04 35.78 243.34 35.78C243.24 35.12 242.86 34.08 242.52 33.46C243.6 33.52 244.82 33.5 245.16 33.5C245.52 33.5 245.64 33.38 245.64 33.02V17.82ZM238.96 17.82H241.32V25.08C241.32 28.54 240.78 33.24 237.08 35.96C236.72 35.48 235.8 34.66 235.28 34.34C238.66 31.88 238.96 28.12 238.96 25.06V17.82Z" fill="#727272"/>
<path d="M50 37H72.4V38H50V37ZM72.4 37H94.8V38H72.4V37ZM94.8 37H117.2V38H94.8V37ZM117.2 37H184.4V38H117.2V37ZM184.4 37H229.2V38H184.4V37ZM229.2 37H249.2V38H229.2V37Z" fill="#727272"/>
</svg>
