<svg width="300" height="59" viewBox="0 0 300 59" fill="none" xmlns="http://www.w3.org/2000/svg">
<rect width="300" height="59" rx="10" fill="#C88370"/>
<path d="M85.56 22.32H102.58V24.66H85.56V22.32ZM94.5 29.06H101.56V31.42H94.5V29.06ZM84.88 36.7H103.16V39.04H84.88V36.7ZM93.32 23.26H95.88V37.84H93.32V23.26ZM87.34 27.76H89.84V37.96H87.34V27.76ZM117.36 30.74H124.86V32.48H117.36V30.74ZM117.36 33.9H124.86V35.66H117.36V33.9ZM117.32 37.06H125.56V39.04H117.32V37.06ZM114.28 22.88H125.42V26.46H123.26V24.9H116.3V26.54H114.28V22.88ZM120.36 29.06H122.56V38H120.36V29.06ZM118.1 27.4H125.1V29.4H118.1V39.82H115.86V29.48L117.88 27.4H118.1ZM119.22 20.96L121.48 21.4C120.28 25.86 118.12 29.48 114.84 31.7C114.6 31.18 113.94 30.1 113.52 29.6C116.4 27.8 118.28 24.74 119.22 20.96ZM120.02 26.12L122 25.36C122.42 26.08 122.86 27.06 123.06 27.68L120.98 28.56C120.8 27.9 120.38 26.86 120.02 26.12ZM107.26 22.36H113.94V24.54H107.26V22.36ZM109.46 28.34H113.92V37.44H109.46V35.38H111.86V30.4H109.46V28.34ZM109.56 23.28L111.8 23.64C111.16 27.82 110 31.86 107.92 34.42C107.72 33.88 107.08 32.68 106.68 32.14C108.26 30.06 109.12 26.76 109.56 23.28ZM108.58 28.34H110.58V38.86H108.58V28.34ZM137.1 34.8L136.46 33.18C138.14 32.66 139.06 31.68 139.06 30.52L138.92 28.56L140.02 30.36C139.7 30.66 139.28 30.8 138.84 30.8C137.84 30.8 136.92 30.14 136.92 29C136.92 27.88 137.82 27.2 138.9 27.2C140.3 27.2 141.06 28.28 141.06 29.96C141.06 32.22 139.58 34.06 137.1 34.8ZM159.44 22.48H170.28V24.2H159.44V22.48ZM159.94 24.98H169.9V26.6H159.94V24.98ZM159.14 27.46H170.54V29.18H159.14V27.46ZM163.58 21.02H165.92V28.4H163.58V21.02ZM167.36 30H169.6V37.64C169.6 38.62 169.4 39.16 168.72 39.46C168.04 39.78 167.1 39.8 165.82 39.78C165.74 39.22 165.46 38.42 165.2 37.88C165.94 37.92 166.78 37.92 167.04 37.92C167.3 37.92 167.36 37.84 167.36 37.62V30ZM161.32 32.68H168.32V34.26H161.32V32.68ZM161.32 35.2H168.32V36.76H161.32V35.2ZM160.08 30H162.24V33.64C162.24 35.62 161.94 38.3 160.44 39.98C160.12 39.56 159.22 38.72 158.78 38.44C159.96 37.04 160.08 35.14 160.08 33.58V30ZM161.38 30H168V31.78H161.38V30ZM152.46 27.04H158.5V28.86H152.46V27.04ZM153.6 32.62H158.5V38.7H153.6V36.8H156.44V34.52H153.6V32.62ZM152.44 32.62H154.48V39.5H152.44V32.62ZM152.46 29.8H158.5V31.62H152.46V29.8ZM151.92 24.3H159.04V26.2H151.92V24.3ZM154.04 21.68L156.06 21.06C156.46 21.92 156.92 23.04 157.14 23.76L155.02 24.46C154.86 23.72 154.4 22.54 154.04 21.68ZM182.18 21.04H184.86V37.54H182.18V21.04ZM189.1 31.06H191.78V39.78H189.1V31.06ZM176.34 22.72H178.88V27.68H188.32V22.7H190.98V30.02H176.34V22.72ZM175.28 31.08H177.98V36.3H190.34V38.7H175.28V31.08ZM202.26 20.86L204.42 21.68C202.88 23.64 200.4 25.48 198.26 26.62C197.88 26.16 197.06 25.28 196.56 24.9C198.72 23.98 200.96 22.46 202.26 20.86ZM201.74 31.9V32.76H210.44V31.9H201.74ZM201.74 34.12V35H210.44V34.12H201.74ZM201.74 29.7V30.54H210.44V29.7H201.74ZM199.42 28.26H212.86V36.42H199.42V28.26ZM207.6 37.36L209.14 36.1C211.18 36.82 213.5 37.76 214.88 38.46L212.82 39.76C211.64 39.08 209.56 38.1 207.6 37.36ZM202.74 36.22L204.94 37.22C203.3 38.28 200.7 39.28 198.66 39.84C198.24 39.36 197.42 38.5 196.88 38.08C199 37.7 201.38 36.98 202.74 36.22ZM200.22 24.06L201.74 22.56L202.52 22.78V27.76H200.22V24.06ZM205.54 21.08H207.96V24.9C207.96 25.56 208.1 25.82 208.82 25.82C209.4 25.82 211.7 25.82 212.32 25.82C213.02 25.82 214.14 25.74 214.64 25.64C214.68 26.28 214.76 27.04 214.86 27.58C214.38 27.72 213.34 27.76 212.5 27.76C211.82 27.76 209.22 27.76 208.62 27.76C206.18 27.76 205.54 26.9 205.54 24.86V21.08ZM207.02 22.46H213.96V24.36H207.02V22.46Z" fill="white"/>
<a href="#">
<rect fill="black" fill-opacity="0" y="0.0199995" width="132" height="28.96"/>
</a>
</svg>
