<svg width="300" height="54" viewBox="0 0 300 54" fill="none" xmlns="http://www.w3.org/2000/svg">
<rect x="0.5" y="0.5" width="299" height="53" rx="9.5" fill="white"/>
<rect x="0.5" y="0.5" width="299" height="53" rx="9.5" stroke="#727272"/>
<mask id="path-2-inside-1_4965_72653" fill="white">
<path d="M21.5 15H278.5V39H21.5V15Z"/>
</mask>
<path d="M278.5 38H21.5V40H278.5V38Z" fill="#727272" mask="url(#path-2-inside-1_4965_72653)"/>
<path d="M22.9347 34V19.4545H32.3949V21.6634H25.5696V25.6122H31.9048V27.821H25.5696V31.7912H32.4517V34H22.9347ZM42.3817 26.8835V29H35.8334V26.8835H42.3817ZM50.6444 34.2131C49.5554 34.2131 48.6202 33.974 47.839 33.4957C47.0625 33.0175 46.4635 32.357 46.0421 31.5142C45.6255 30.6667 45.4171 29.6913 45.4171 28.5881C45.4171 27.4801 45.6302 26.5024 46.0563 25.6548C46.4825 24.8026 47.0838 24.1397 47.8603 23.6662C48.6415 23.188 49.5648 22.9489 50.6302 22.9489C51.5156 22.9489 52.2992 23.1122 52.981 23.4389C53.6676 23.7609 54.2145 24.2178 54.6217 24.8097C55.0289 25.3968 55.2609 26.0833 55.3177 26.8693H52.8603C52.7609 26.3437 52.5241 25.9058 52.1501 25.5554C51.7808 25.2003 51.286 25.0227 50.6657 25.0227C50.1401 25.0227 49.6785 25.1648 49.2808 25.4489C48.883 25.7282 48.5729 26.1307 48.3504 26.6562C48.1326 27.1818 48.0237 27.8116 48.0237 28.5455C48.0237 29.2888 48.1326 29.928 48.3504 30.4631C48.5682 30.9934 48.8736 31.4029 49.2665 31.6918C49.6643 31.9759 50.1307 32.1179 50.6657 32.1179C51.0445 32.1179 51.383 32.0469 51.6813 31.9048C51.9844 31.758 52.2377 31.5473 52.4413 31.2727C52.6449 30.9981 52.7845 30.6643 52.8603 30.2713H55.3177C55.2561 31.0431 55.0289 31.7273 54.6359 32.3239C54.2429 32.9157 53.7078 33.3797 53.0308 33.7159C52.3537 34.0473 51.5582 34.2131 50.6444 34.2131ZM62.9874 34.2131C61.922 34.2131 60.9987 33.9787 60.2175 33.5099C59.4362 33.0412 58.8302 32.3854 58.3993 31.5426C57.9732 30.6998 57.7601 29.715 57.7601 28.5881C57.7601 27.4612 57.9732 26.474 58.3993 25.6264C58.8302 24.7789 59.4362 24.1207 60.2175 23.652C60.9987 23.1832 61.922 22.9489 62.9874 22.9489C64.0527 22.9489 64.976 23.1832 65.7572 23.652C66.5385 24.1207 67.1422 24.7789 67.5683 25.6264C67.9992 26.474 68.2146 27.4612 68.2146 28.5881C68.2146 29.715 67.9992 30.6998 67.5683 31.5426C67.1422 32.3854 66.5385 33.0412 65.7572 33.5099C64.976 33.9787 64.0527 34.2131 62.9874 34.2131ZM63.0016 32.1534C63.5792 32.1534 64.0622 31.9948 64.4504 31.6776C64.8387 31.3556 65.1275 30.9247 65.3169 30.3849C65.511 29.8452 65.6081 29.2438 65.6081 28.581C65.6081 27.9134 65.511 27.3097 65.3169 26.7699C65.1275 26.2254 64.8387 25.7921 64.4504 25.4702C64.0622 25.1482 63.5792 24.9872 63.0016 24.9872C62.4097 24.9872 61.9173 25.1482 61.5243 25.4702C61.136 25.7921 60.8448 26.2254 60.6507 26.7699C60.4613 27.3097 60.3666 27.9134 60.3666 28.581C60.3666 29.2438 60.4613 29.8452 60.6507 30.3849C60.8448 30.9247 61.136 31.3556 61.5243 31.6776C61.9173 31.9948 62.4097 32.1534 63.0016 32.1534ZM78.1499 29.4119V23.0909H80.721V34H78.2281V32.0611H78.1144C77.8682 32.6719 77.4634 33.1714 76.8999 33.5597C76.3412 33.9479 75.6523 34.142 74.8332 34.142C74.1182 34.142 73.4861 33.9834 72.9369 33.6662C72.3924 33.3442 71.9662 32.8778 71.6585 32.267C71.3507 31.6515 71.1968 30.9081 71.1968 30.0369V23.0909H73.7678V29.6392C73.7678 30.3305 73.9572 30.8797 74.336 31.2869C74.7148 31.6941 75.212 31.8977 75.8275 31.8977C76.2063 31.8977 76.5732 31.8054 76.9283 31.6207C77.2835 31.4361 77.5746 31.1615 77.8019 30.7969C78.0339 30.4276 78.1499 29.9659 78.1499 29.4119ZM84.1648 38.0909V23.0909H86.6932V24.8949H86.8423C86.9749 24.6297 87.1619 24.348 87.4034 24.0497C87.6449 23.7467 87.9716 23.4886 88.3835 23.2756C88.7955 23.0578 89.321 22.9489 89.9602 22.9489C90.803 22.9489 91.563 23.1643 92.2401 23.5952C92.9219 24.0213 93.4616 24.6534 93.8594 25.4915C94.2618 26.3248 94.4631 27.3475 94.4631 28.5597C94.4631 29.7576 94.2666 30.7756 93.8736 31.6136C93.4806 32.4517 92.9455 33.0909 92.2685 33.5312C91.5914 33.9716 90.8243 34.1918 89.9673 34.1918C89.3423 34.1918 88.8239 34.0876 88.4119 33.8793C88 33.6709 87.6686 33.42 87.4176 33.1264C87.1714 32.8281 86.9796 32.5464 86.8423 32.2812H86.7358V38.0909H84.1648ZM86.6861 28.5455C86.6861 29.2509 86.7855 29.8688 86.9844 30.3991C87.188 30.9295 87.4792 31.3437 87.858 31.642C88.2415 31.9356 88.7055 32.0824 89.25 32.0824C89.8182 32.0824 90.294 31.9309 90.6776 31.6278C91.0611 31.3201 91.3499 30.901 91.544 30.3707C91.7429 29.8357 91.8423 29.2273 91.8423 28.5455C91.8423 27.8684 91.7453 27.267 91.5511 26.7415C91.357 26.2159 91.0682 25.804 90.6847 25.5057C90.3011 25.2074 89.8229 25.0582 89.25 25.0582C88.7008 25.0582 88.2344 25.2027 87.8509 25.4915C87.4673 25.7803 87.1761 26.1851 86.9773 26.706C86.7831 27.2268 86.6861 27.84 86.6861 28.5455ZM102.223 34.2131C101.158 34.2131 100.235 33.9787 99.4534 33.5099C98.6722 33.0412 98.0661 32.3854 97.6352 31.5426C97.2091 30.6998 96.996 29.715 96.996 28.5881C96.996 27.4612 97.2091 26.474 97.6352 25.6264C98.0661 24.7789 98.6722 24.1207 99.4534 23.652C100.235 23.1832 101.158 22.9489 102.223 22.9489C103.289 22.9489 104.212 23.1832 104.993 23.652C105.774 24.1207 106.378 24.7789 106.804 25.6264C107.235 26.474 107.451 27.4612 107.451 28.5881C107.451 29.715 107.235 30.6998 106.804 31.5426C106.378 32.3854 105.774 33.0412 104.993 33.5099C104.212 33.9787 103.289 34.2131 102.223 34.2131ZM102.238 32.1534C102.815 32.1534 103.298 31.9948 103.686 31.6776C104.075 31.3556 104.363 30.9247 104.553 30.3849C104.747 29.8452 104.844 29.2438 104.844 28.581C104.844 27.9134 104.747 27.3097 104.553 26.7699C104.363 26.2254 104.075 25.7921 103.686 25.4702C103.298 25.1482 102.815 24.9872 102.238 24.9872C101.646 24.9872 101.153 25.1482 100.76 25.4702C100.372 25.7921 100.081 26.2254 99.8867 26.7699C99.6973 27.3097 99.6026 27.9134 99.6026 28.581C99.6026 29.2438 99.6973 29.8452 99.8867 30.3849C100.081 30.9247 100.372 31.3556 100.76 31.6776C101.153 31.9948 101.646 32.1534 102.238 32.1534ZM113.004 27.608V34H110.433V23.0909H112.89V24.9446H113.018C113.269 24.3338 113.669 23.8485 114.218 23.4886C114.772 23.1288 115.456 22.9489 116.271 22.9489C117.024 22.9489 117.679 23.1098 118.238 23.4318C118.802 23.7538 119.237 24.2202 119.545 24.831C119.857 25.4418 120.011 26.1828 120.007 27.054V34H117.436V27.4517C117.436 26.7225 117.246 26.152 116.867 25.7401C116.493 25.3281 115.975 25.1222 115.312 25.1222C114.862 25.1222 114.462 25.2216 114.112 25.4205C113.766 25.6146 113.494 25.8963 113.295 26.2656C113.101 26.6349 113.004 27.0824 113.004 27.608ZM130.159 29.6V30.62H136.939V29.6H130.159ZM130.159 27.08V28.08H136.939V27.08H130.159ZM127.799 25.5H139.439V32.2H127.799V25.5ZM124.739 19.26H142.659V21.32H124.739V19.26ZM132.419 17.02H134.799V24.94H132.419V17.02ZM131.319 19.9L133.319 20.66C131.599 23.34 128.759 25.62 125.699 26.82C125.359 26.24 124.659 25.36 124.159 24.9C127.059 23.98 129.879 22.02 131.319 19.9ZM135.799 19.88C137.259 21.96 140.179 23.84 143.159 24.72C142.639 25.16 141.939 26.08 141.599 26.68C138.519 25.54 135.619 23.28 133.859 20.62L135.799 19.88ZM124.919 33.12H142.499V35.24H124.919V33.12ZM156.119 26.74H160.099V28.46H156.119V26.74ZM156.359 19.96H163.579V22.16H156.359V19.96ZM156.359 23.72H161.219V31.56H156.359V29.74H159.199V25.54H156.359V23.72ZM155.039 23.72H157.059V32.46H155.039V23.72ZM162.819 19.96H165.099C165.099 19.96 165.099 20.78 165.099 21.08C164.939 30.36 164.799 33.54 164.059 34.58C163.539 35.34 163.019 35.58 162.219 35.7C161.479 35.82 160.299 35.8 159.159 35.74C159.119 35.12 158.819 34.12 158.419 33.5C159.619 33.58 160.679 33.58 161.199 33.58C161.559 33.58 161.779 33.52 161.999 33.24C162.559 32.58 162.699 29.12 162.819 20.46V19.96ZM156.499 17L158.919 17.56C158.059 20.54 156.599 23.44 154.959 25.28C154.539 24.84 153.539 24.02 152.979 23.64C154.559 22.1 155.819 19.56 156.499 17ZM147.599 23.16H153.459V24.96H147.599V23.16ZM147.659 17.64H153.399V19.46H147.659V17.64ZM147.599 25.88H153.459V27.7H147.599V25.88ZM146.679 20.34H153.979V22.24H146.679V20.34ZM148.639 28.66H153.479V34.74H148.639V32.84H151.479V30.56H148.639V28.66ZM147.559 28.66H149.519V35.54H147.559V28.66ZM175.699 20.54C177.279 27.22 180.759 31.84 188.079 33.46C187.519 33.98 186.759 35.08 186.399 35.8C178.739 33.78 175.439 28.74 173.539 21.02L175.699 20.54ZM170.179 18.02H180.919V20.36H170.179V18.02ZM184.319 22.78H184.779L185.199 22.68L186.859 23.34C185.299 30.3 181.139 33.94 175.459 35.8C175.159 35.16 174.559 34.18 174.059 33.66C179.179 32.3 183.079 28.84 184.319 23.22V22.78ZM180.379 18.02H180.679L181.099 17.92L182.959 18.22C182.519 20.6 181.839 23.52 181.219 25.9L178.699 25.54C179.359 23.14 180.059 20 180.379 18.28V18.02ZM180.779 22.78H184.819V25.04H180.319L180.779 22.78ZM173.379 18.66H175.839V21.72C175.839 25.62 175.319 31.44 170.719 35.48C170.359 34.86 169.519 33.86 168.979 33.42C172.959 30.02 173.379 24.98 173.379 21.72V18.66ZM197.979 21.46H202.059V23.52H197.979V21.46ZM201.399 21.46H203.319C203.319 21.46 203.299 22.14 203.299 22.38C203.199 30.88 203.099 33.78 202.619 34.58C202.279 35.16 201.939 35.36 201.419 35.44C200.979 35.54 200.379 35.54 199.739 35.54C199.699 34.96 199.499 34.12 199.219 33.58C199.719 33.64 200.119 33.64 200.399 33.64C200.619 33.64 200.759 33.56 200.899 33.28C201.219 32.74 201.319 30.08 201.399 21.94V21.46ZM198.899 17.02H200.739C200.719 25.12 200.519 31.5 197.899 35.82C197.619 35.5 196.779 34.76 196.359 34.46C198.839 30.72 198.959 24.42 198.899 17.02ZM193.699 17.02H195.899V20.38H193.699V17.02ZM191.779 19.52H197.719V21.48H191.779V19.52ZM191.559 25.04H197.899V27H191.559V25.04ZM192.199 21.94L193.819 21.48C194.179 22.46 194.399 23.78 194.439 24.64L192.679 25.14C192.719 24.28 192.499 22.94 192.199 21.94ZM195.719 21.44L197.639 21.82C197.259 23 196.919 24.3 196.619 25.12L195.079 24.74C195.319 23.82 195.619 22.4 195.719 21.44ZM191.399 29.28C193.039 29.08 195.459 28.7 197.819 28.34L197.959 30.26C195.819 30.66 193.559 31.04 191.799 31.36L191.399 29.28ZM205.779 17.02H207.999V20.38H205.779V17.02ZM205.779 25.78H207.999V35.82H205.779V25.78ZM203.639 19.5H209.999V21.46H203.639V19.5ZM203.559 25.02H210.279V26.98H203.559V25.02ZM203.719 29.1H210.039V31.08H203.719V29.1ZM204.079 21.92L205.719 21.46C206.099 22.44 206.359 23.78 206.379 24.64L204.639 25.14C204.639 24.28 204.419 22.94 204.079 21.92ZM207.859 21.36L209.819 21.78C209.439 22.96 209.079 24.24 208.759 25.08L207.179 24.68C207.419 23.76 207.739 22.34 207.859 21.36ZM193.699 25.64H195.899V29.28C195.899 31.48 195.319 34.14 192.979 35.82C192.679 35.36 192.019 34.62 191.519 34.26C193.479 33.04 193.699 30.86 193.699 29.26V25.64ZM219.479 25.04H232.459V27.32H219.479V25.04ZM220.479 19.9H231.499V22.18H220.479V19.9ZM224.639 17.02H227.139V26.7H224.639V17.02ZM219.479 32.58C222.159 32.48 226.379 32.24 230.319 32.02V34.18C226.579 34.5 222.619 34.8 219.799 35L219.479 32.58ZM227.139 29.82L229.219 28.72C230.699 30.5 232.319 32.86 232.939 34.56L230.659 35.82C230.119 34.18 228.599 31.66 227.139 29.82ZM223.099 26.64L225.759 27.34C224.879 29.66 223.739 32.22 222.819 33.88L220.679 33.2C221.579 31.44 222.579 28.7 223.099 26.64ZM214.999 18.86L216.319 17.1C217.619 17.58 219.319 18.44 220.159 19.14L218.759 21.1C217.979 20.38 216.319 19.42 214.999 18.86ZM213.859 24.32L215.099 22.5C216.399 22.94 218.119 23.72 218.999 24.38L217.659 26.38C216.859 25.72 215.179 24.82 213.859 24.32ZM214.419 33.98C215.419 32.48 216.859 29.98 217.959 27.68L219.779 29.2C218.799 31.32 217.619 33.6 216.499 35.54L214.419 33.98ZM247.099 24.54V26.66H251.439V24.54H247.099ZM244.919 22.48H253.759V28.7H244.919V22.48ZM249.539 28.1H251.819V32.92C251.819 33.48 251.859 33.54 252.139 33.54C252.259 33.54 252.719 33.54 252.879 33.54C253.219 33.54 253.279 33.24 253.339 31.02C253.779 31.4 254.739 31.78 255.339 31.94C255.159 34.9 254.599 35.66 253.139 35.66C252.779 35.66 252.079 35.66 251.759 35.66C249.939 35.66 249.539 34.96 249.539 32.92V28.1ZM246.199 28.42H248.539C248.299 31.86 247.619 34.36 243.979 35.84C243.739 35.28 243.119 34.38 242.619 33.96C245.619 32.88 246.019 31.02 246.199 28.42ZM246.779 17.56H251.619V19.74H246.779V17.56ZM245.359 19.34L247.699 19.94C247.039 21.58 246.059 23.42 244.939 24.58C244.459 24.16 243.619 23.58 243.079 23.28C244.119 22.28 244.979 20.64 245.359 19.34ZM249.799 17.56H252.259C252.859 19.48 254.079 21.5 255.359 22.7C254.759 23.04 253.799 23.74 253.339 24.22C252.019 22.76 250.899 20.66 250.219 18.68H249.799V17.56ZM237.239 23.16H243.279V24.96H237.239V23.16ZM237.299 17.64H243.219V19.46H237.299V17.64ZM237.239 25.88H243.279V27.7H237.239V25.88ZM236.279 20.34H243.939V22.24H236.279V20.34ZM238.279 28.66H243.299V34.74H238.279V32.84H241.259V30.56H238.279V28.66ZM237.199 28.66H239.219V35.54H237.199V28.66ZM260.739 18.12H266.479V30.4H260.739V28.2H264.259V20.28H260.739V18.12ZM260.759 23.12H265.139V25.26H260.759V23.12ZM269.299 17.82H275.439V20.04H269.299V17.82ZM269.299 22.6H275.439V24.76H269.299V22.6ZM269.259 27.34H275.419V29.48H269.259V27.34ZM259.459 18.12H261.679V32.14H259.459V18.12ZM274.539 17.82H276.919V33.06C276.919 34.3 276.659 34.96 275.879 35.34C275.079 35.72 273.939 35.78 272.239 35.78C272.139 35.12 271.759 34.08 271.419 33.46C272.499 33.52 273.719 33.5 274.059 33.5C274.419 33.5 274.539 33.38 274.539 33.02V17.82ZM267.859 17.82H270.219V25.08C270.219 28.54 269.679 33.24 265.979 35.96C265.619 35.48 264.699 34.66 264.179 34.34C267.559 31.88 267.859 28.12 267.859 25.06V17.82Z" fill="#727272"/>
</svg>
