<svg width="300" height="54" viewBox="0 0 300 54" fill="none" xmlns="http://www.w3.org/2000/svg">
<rect width="300" height="54" rx="10" fill="#C88370"/>
<path d="M80.46 17.96H82.96V31.64C82.96 32.88 83.12 33.06 84.38 33.06C84.98 33.06 87.64 33.06 88.26 33.06C89.38 33.06 89.6 32.54 89.76 30.3C90.34 30.68 91.38 31.1 92.1 31.24C91.76 34.26 90.98 35.38 88.48 35.38C87.78 35.38 84.78 35.38 84.12 35.38C81.32 35.38 80.46 34.62 80.46 31.62V17.96ZM81.58 17.96H91.14V29.18H88.62V20.32H81.58V17.96ZM81.48 25.64H89.42V27.92H81.48V25.64ZM84.66 18.88H86.88V26.36H84.66V18.88ZM72.96 27.22C74.7 26.86 77.3 26.2 79.76 25.58L80.04 27.8C77.82 28.4 75.42 29.02 73.52 29.52L72.96 27.22ZM73.28 20.78H79.64V23.02H73.28V20.78ZM75.42 17.02H77.8V33.26C77.8 34.38 77.6 34.96 76.98 35.32C76.34 35.7 75.48 35.78 74.22 35.76C74.14 35.16 73.86 34.2 73.58 33.58C74.2 33.6 74.88 33.6 75.1 33.58C75.34 33.58 75.42 33.5 75.42 33.26V17.02ZM103.7 17.74H113.74V22.98H103.7V21.06H111.44V19.68H103.7V17.74ZM102.42 17.74H104.56V23.84C104.56 27.24 104.24 32.36 102.16 35.58C101.8 35.16 100.86 34.46 100.38 34.22C102.28 31.26 102.42 26.96 102.42 23.84V17.74ZM104 24.02H113.98V25.88H104V24.02ZM107.04 24.56L109.26 25.06C108.58 26.32 107.8 27.74 107.18 28.64L105.58 28.14C106.12 27.14 106.72 25.64 107.04 24.56ZM104.36 27.66C106.46 27.62 109.6 27.52 112.64 27.4L112.62 29.04C109.74 29.22 106.74 29.36 104.54 29.48L104.36 27.66ZM109.98 26.6L111.44 25.84C112.46 26.76 113.68 28.06 114.24 28.96L112.68 29.8C112.16 28.92 110.98 27.56 109.98 26.6ZM104.44 30.48H113.34V32.22H104.44V30.48ZM103.54 33.44H114.3V35.26H103.54V33.44ZM107.78 28.84H109.9V34.32H107.78V28.84ZM95.3 27.08C96.9 26.72 99.28 26.08 101.54 25.44L101.86 27.6C99.8 28.24 97.6 28.88 95.84 29.38L95.3 27.08ZM95.62 20.82H101.74V23.02H95.62V20.82ZM97.74 17.04H99.94V33.26C99.94 34.38 99.74 35 99.12 35.36C98.52 35.74 97.66 35.82 96.36 35.82C96.3 35.22 96.02 34.24 95.74 33.58C96.46 33.62 97.16 33.62 97.4 33.6C97.64 33.6 97.74 33.54 97.74 33.26V17.04ZM124.26 27.22H136.52V29.08H124.26V27.22ZM125.88 31.02L127.1 29.58C128.04 30.16 129.3 31.06 129.9 31.68L128.62 33.3C128.06 32.64 126.84 31.66 125.88 31.02ZM132.4 26.48L133.56 25.42C134.2 25.82 135 26.42 135.38 26.86L134.14 28C133.78 27.56 133.02 26.9 132.4 26.48ZM125.58 28.18H127.7C127.46 31.24 126.9 34.02 124.4 35.78C124.12 35.28 123.54 34.54 123.04 34.18C125.08 32.82 125.44 30.52 125.58 28.18ZM129.02 17.04H131.1C130.92 26.18 132.26 33.8 134.66 33.8C135.16 33.8 135.34 33.44 135.44 31.84C135.86 32.3 136.52 32.7 137 32.92C136.64 35.22 136.06 35.82 134.5 35.82C130.1 35.8 129.02 26.96 129.02 17.04ZM133.6 29.04L135.58 29.78C134.2 32.58 131.74 34.6 128.72 35.78C128.46 35.36 127.86 34.64 127.46 34.24C130.32 33.24 132.5 31.4 133.6 29.04ZM130.8 20.78L131.68 19.48C132.52 20.08 133.52 20.98 133.98 21.58L133.06 23.08C132.6 22.42 131.6 21.46 130.8 20.78ZM134.54 23.1L135.88 22.6C136.36 23.56 136.82 24.8 136.94 25.58L135.5 26.18C135.38 25.38 134.98 24.08 134.54 23.1ZM131.16 24.18C132.36 24.1 133.94 23.98 135.62 23.84L135.66 25.36C134.2 25.56 132.78 25.74 131.5 25.9L131.16 24.18ZM133 17.14L134.8 17.8C134.16 18.94 133.48 20.2 132.92 21.02L131.64 20.44C132.12 19.54 132.7 18.14 133 17.14ZM134.68 19.28L136.34 20.08C135.26 21.76 133.9 23.8 132.8 25.08L131.56 24.38C132.62 23.04 133.94 20.86 134.68 19.28ZM123.8 20.78L124.7 19.48C125.52 20.08 126.54 20.98 126.98 21.58L126.06 23.08C125.62 22.42 124.62 21.46 123.8 20.78ZM127.22 23.34L128.56 22.9C129 23.86 129.38 25.12 129.46 25.9L128.02 26.44C127.94 25.62 127.6 24.34 127.22 23.34ZM123.94 24.5C125.16 24.42 126.76 24.3 128.46 24.16L128.5 25.78C127.02 25.96 125.56 26.12 124.26 26.26L123.94 24.5ZM126.02 17.14L127.8 17.82C127.14 18.94 126.48 20.26 125.94 21.08L124.66 20.52C125.12 19.6 125.7 18.14 126.02 17.14ZM127.7 19.28L129.34 20.08C128.22 21.86 126.8 24 125.64 25.34L124.4 24.66C125.52 23.26 126.9 20.96 127.7 19.28ZM118.18 21.16H124.28V23.36H118.18V21.16ZM120.32 17.02H122.46V35.8H120.32V17.02ZM120.28 22.68L121.52 23.1C121.04 26.24 120.02 30.1 118.72 32.14C118.52 31.54 118.04 30.64 117.7 30.1C118.86 28.38 119.86 25.22 120.28 22.68ZM122.36 24.02C122.76 24.56 124.3 27.12 124.6 27.7L123.46 29.36C123.06 28.18 121.98 25.84 121.48 24.9L122.36 24.02ZM144.72 24.3V26.82H154.6V24.3H144.72ZM142.72 22.82H156.72V28.3H142.72V22.82ZM146.16 20.54H153.22V22.1H146.16V20.54ZM148.62 23.3H150.56V27.52H148.62V23.3ZM149.58 18.88C147.8 20.6 144.54 22.46 141.38 23.56C141.12 23.02 140.56 22.16 140.14 21.66C143.42 20.68 146.7 18.8 148.34 17.02H150.62C152.9 19.14 156.14 20.72 159.24 21.5C158.72 22.04 158.2 22.86 157.84 23.48C155.06 22.54 151.52 20.68 149.58 18.88ZM145.42 24.74L147.08 24.28C147.44 24.96 147.76 25.84 147.88 26.44L146.12 26.96C146.04 26.36 145.76 25.44 145.42 24.74ZM152.04 24.2L154.02 24.68C153.58 25.54 153.18 26.38 152.86 26.94L151.22 26.5C151.5 25.84 151.88 24.86 152.04 24.2ZM143.82 28.94H155.66V35.74H153.2V30.5H146.18V35.8H143.82V28.94ZM145.18 31.3H154.22V32.88H145.18V31.3ZM145.18 33.7H154.22V35.26H145.18V33.7ZM167.14 24.82V32.18H164.9V27.04H162.82V24.82H167.14ZM167.14 31.26C167.92 32.62 169.38 33.2 171.44 33.3C173.92 33.4 178.84 33.34 181.68 33.12C181.42 33.64 181.06 34.7 180.96 35.36C178.4 35.48 173.96 35.52 171.46 35.42C169.02 35.32 167.38 34.72 166.18 33.16C165.42 33.96 164.62 34.72 163.68 35.62L162.54 33.32C163.34 32.76 164.3 32 165.14 31.26H167.14ZM162.7 18.68L164.58 17.48C165.64 18.44 166.88 19.8 167.42 20.78L165.38 22.12C164.92 21.16 163.72 19.7 162.7 18.68ZM168.36 25.2H180.62V26.94H168.36V25.2ZM167.76 28.28H181.24V30.06H167.76V28.28ZM171.02 24.14H173.28V29.14H171.02V24.14ZM175.6 24.14H177.88V29.14H175.6V24.14ZM168.9 19.98H171.82V19.14H168.02V17.64H173.84V21.5H168.9V19.98ZM168.3 19.98H170.28V21.92C170.28 22.34 170.36 22.42 170.88 22.42C171.1 22.42 172.12 22.42 172.42 22.42C172.82 22.42 172.9 22.3 172.98 21.64C173.34 21.9 174.1 22.16 174.64 22.26C174.44 23.62 173.9 24 172.68 24C172.3 24 170.96 24 170.58 24C168.8 24 168.3 23.54 168.3 21.94V19.98ZM175.48 19.98H178.42V19.14H174.52V17.64H180.46V21.5H175.48V19.98ZM174.88 19.98H176.86V21.92C176.86 22.34 176.96 22.42 177.48 22.42C177.72 22.42 178.78 22.42 179.08 22.42C179.5 22.42 179.58 22.3 179.66 21.62C180.02 21.88 180.78 22.12 181.32 22.24C181.12 23.62 180.58 24 179.34 24C178.96 24 177.56 24 177.18 24C175.38 24 174.88 23.54 174.88 21.92V19.98ZM175.26 30.9L177.02 29.92C178.46 30.58 180.22 31.54 181.22 32.22L178.74 33.12C178 32.48 176.58 31.58 175.26 30.9ZM171.76 29.92L173.86 30.66C172.82 31.62 171.14 32.54 169.76 33.1C169.38 32.7 168.52 31.98 168.02 31.66C169.42 31.24 170.9 30.6 171.76 29.92ZM192.82 18.56H203.42V20.26H192.82V18.56ZM192.48 23.38H203.8V25.08H192.48V23.38ZM192.4 30.88H203.84V32.58H192.4V30.88ZM193.28 20.98H203.12V22.6H193.28V20.98ZM195 17.02H197.08V24.14H195V17.02ZM199.14 17.02H201.26V24.14H199.14V17.02ZM197.06 24.16H199.14V31.34H197.06V24.16ZM200.72 25.82H202.9V33.62C202.9 34.62 202.7 35.16 202.04 35.48C201.36 35.8 200.42 35.8 199.12 35.8C199.02 35.24 198.76 34.42 198.5 33.88C199.28 33.92 200.14 33.92 200.38 33.92C200.64 33.9 200.72 33.84 200.72 33.6V25.82ZM193.46 25.82H201.64V27.52H195.58V35.84H193.46V25.82ZM194.52 28.42H201.64V29.9H194.52V28.42ZM186.96 30.86L189.06 31.36C188.54 33.04 187.62 34.76 186.68 35.84C186.26 35.52 185.38 34.94 184.88 34.66C185.8 33.72 186.58 32.28 186.96 30.86ZM189.32 31.58L191.08 30.82C191.76 31.84 192.5 33.2 192.82 34.08L190.98 34.96C190.68 34.06 189.96 32.64 189.32 31.58ZM188.04 23.3V25.16H190.02V23.3H188.04ZM188.04 26.92V28.82H190.02V26.92H188.04ZM188.04 19.68V21.52H190.02V19.68H188.04ZM186 17.76H192.12V30.72H186V17.76ZM209.32 19.66H224.62V22.08H209.32V19.66ZM207.78 24.92H226.06V27.34H207.78V24.92ZM215.52 17H218.08V26.28H215.52V17ZM213.76 26.46L216.64 27.2C215.62 29.58 214.36 32.2 213.3 33.92L211.08 33.2C212.08 31.36 213.18 28.58 213.76 26.46ZM208.54 32.62C212.44 32.48 218.4 32.18 223.72 31.88L223.64 34.28C218.4 34.64 212.74 34.98 208.9 35.18L208.54 32.62ZM219.32 29.38L221.6 28.36C223.32 30.34 225.12 32.94 226.02 34.76L223.6 36C222.82 34.18 220.96 31.4 219.32 29.38Z" fill="white"/>
<a href="#">
<rect fill="black" fill-opacity="0" y="-0.102272" width="154.4" height="24.2045"/>
</a>
</svg>
