<?xml version="1.0" encoding="utf-8"?>
<!-- Generator: Adobe Illustrator 28.2.0, SVG Export Plug-In . SVG Version: 6.00 Build 0)  -->
<svg version="1.1" id="_圖層_2" xmlns="http://www.w3.org/2000/svg" xmlns:xlink="http://www.w3.org/1999/xlink" x="0px" y="0px"
	 viewBox="0 0 473.8 83.3" style="enable-background:new 0 0 473.8 83.3;" xml:space="preserve">
<style type="text/css">
	.st0{display:none;fill:#231815;}
	.st1{clip-path:url(#SVGID_00000093166439039725127250000007056726181693785479_);}
	.st2{fill:#876284;}
	.st3{fill:#8B6888;}
	.st4{fill:#8E6C8B;}
	.st5{fill:#947390;}
	.st6{fill:#997A96;}
	.st7{fill:#AB92A8;}
	.st8{fill:#A489A1;}
	.st9{fill:#B29BAF;}
	.st10{fill:#9C7E98;}
	.st11{fill:#7F597D;}
	.st12{fill:#EEE9ED;}
	.st13{fill:#977794;}
	.st14{fill:#FDFDFD;}
	.st15{fill:#BCA7B9;}
	.st16{fill:#C3B1C1;}
	.st17{fill:#B6A0B3;}
	.st18{fill:#231815;}
	.st19{fill:#231815;stroke:#000000;stroke-miterlimit:10;}
</style>
<path class="st0" d="M255.8,75.4c0-2.4,1.7-4.1,3.8-4.1s3.8,1.7,3.8,4.1s-1.7,4-3.8,4S255.8,77.8,255.8,75.4L255.8,75.4z
	 M262.8,75.4c0-2-1.4-3.4-3.1-3.4s-3.1,1.5-3.1,3.4s1.4,3.4,3.1,3.4S262.8,77.4,262.8,75.4z M258.2,73.2h1.5c0.8,0,1.6,0.3,1.6,1.3
	c0,0.5-0.3,1-0.8,1.1l1,1.8h-0.8l-0.8-1.6H259v1.6h-0.7L258.2,73.2L258.2,73.2z M259.5,75.3c0.6,0,1-0.2,1-0.8c0-0.4-0.2-0.8-1-0.8
	h-0.6v1.5h0.6V75.3z"/>
<g>
	<defs>
		<rect id="SVGID_1_" x="-0.1" width="473.9" height="83.4"/>
	</defs>
	<clipPath id="SVGID_00000162310539918238497890000003158741474961778331_">
		<use xlink:href="#SVGID_1_"  style="overflow:visible;"/>
	</clipPath>
	<g style="clip-path:url(#SVGID_00000162310539918238497890000003158741474961778331_);">
		<g>
			<path class="st2" d="M40.5,29.6c-0.3,0.2-0.4,0.4-0.3,0.8c0,0.4-0.1,0.8,0.3,1c0,0.3,0,0.5,0,0.8c-0.4,0.3-0.5,1.2-1.3,1
				c0-0.2,0-0.5,0-0.7c0.9-0.6,0.4-1.5,0.6-2.3c-1.3,0.3-0.9,1.3-1.1,2c-0.1,0-0.2,0-0.3,0s-0.2,0-0.2,0c-0.2-0.8,0.3-1.7,0-2.5
				c0.7,0.1,1.1-0.4,1.6-0.7c0.3-0.2,0.6-0.7,0.4-0.8c-0.5-0.3-0.7-1.1-1.4-0.8c-0.9,0.3-1.7,0.8-1.9,1.8c-0.5,0.4-0.9,0.5-1-0.3
				c0-0.3,0-0.6-0.3-0.8c-0.1-0.3,0.2-0.9-0.3-0.9c-0.7,0-0.3,0.6-0.4,0.9c-0.1,0-0.2,0-0.3,0c-0.5,0-0.7-0.4-1-0.5
				c0.2-0.5,0.3-1,0.5-1.5c0.3,0.1,0.7,0.4,0.7-0.2c0-0.2,0-0.5-0.3-0.5c-0.6-0.1-0.4,0.4-0.5,0.7c-0.8-0.2-1.2-0.8-0.4-1.2
				c0.9-0.5,0.9-1.1,0.6-1.9c0-0.1,0-0.2,0-0.3c0.3,0,0.5,0,0.8,0c0,0.3,0.1,0.6,0.5,0.7c0.2,0,0.3-0.2,0.3-0.3
				c-0.1-0.4-0.4-0.3-0.7-0.3c0-0.3,0-0.5,0-0.8c0-0.2,0-0.3,0-0.5c0-0.1,0-0.2,0-0.3c0.2,0.1,0.3,0.2,0.5,0.3
				c0.5,0.6,1,1.2,1.5,1.8c0.6-0.3,0.9-0.7,0.5-1.4c-0.2-0.3-0.2-0.6,0.3-0.7c0.1,0.1,0.1,0.3,0.2,0.4l0.2-0.1
				c0-0.3-0.2-0.4-0.4-0.5c-0.1-0.3-0.2-0.5-0.3-0.8c0.5,0.2,1.1,0.4,1.2,1c0.3,1.1,1,1.9,1.3,3c-0.2,0.7,0.6,1,0.7,1.6
				c-0.4,1.2,0,2.4,0,3.6C40.8,29.2,40.6,29.4,40.5,29.6z M36,23.8C36,23.9,36,24,36,24c0,0.1,0.1,0.1,0.2,0.1
				c0-0.1,0.1-0.2,0.1-0.2C36.2,23.8,36.1,23.8,36,23.8z"/>
			<path class="st3" d="M34.3,22.6c0,0.1,0,0.2,0,0.3c-0.2,0-0.3,0-0.5,0c-0.1-0.4-0.2-0.9-0.3-1.3c-0.2-0.9-0.8-0.3-1.1-0.2
				c-0.5,0.1-0.7,0.5-0.2,1c0,0.4,0,0.7,0.5,0.8c0.2,0.3,0.5,0.2,0.8,0.3c0,0.4-0.2,0.6-0.6,0.8c-0.8,0.3-1.7,0.2-2.3,1.2
				c-0.1,0.3-0.8,0.3-1-0.3c-0.2-0.7-0.6-1.3,0.1-2c0.5-0.5,0.4-1.5,1.3-1.8c0.2-0.1,0.1-0.4-0.2-0.5s-0.5-0.2-0.7-0.5
				c0.5,0,0.5-0.4,0.7-0.7c0.2-0.2,0.5-0.4,0.2-0.7c-0.1-0.1-0.5-0.1-0.7-0.1c-0.3,0-0.6,0.2-0.6,0.5s0.1,0.7,0.2,1
				c-0.8,0.1-0.7-0.9-1.3-1c0-0.3,0-0.6,0.3-0.8c0.9,0,1.2-0.8,1.6-1.4c0.3-0.4-0.3-0.4-0.6-0.4c0.1-0.3,0.2-0.5,0.3-0.8
				c0.4-0.4,0.3-0.7-0.3-0.8c-0.1,0-0.2,0-0.3,0c0.1-0.4-0.1-0.7-0.2-1c0.2-0.1,0.4-0.2,0.5-0.3c0.9,1.1,2.3,0.8,3.4,1.4
				c1.7,1,3.5,1.9,4.1,4c-1-0.5-2-1-3.1-1.5c0.2-1.1-0.5-1.8-2.1-1.8c1,0.8,0.3,1.4,0,2.1c-0.3,0.2-0.8,0.2-0.7,0.6
				c0.1,0.3,0.4,0.8,0.6,0.8c0.7-0.1,1.4,0.6,2.1,0.1l0,0c0,0.1,0,0.2,0,0.3c-0.2,0.3-0.5,0.6-0.5,1C34,21.4,34.3,22,34.3,22.6z
				 M31.8,20.7c-0.1,0-0.1,0-0.2,0l0.1,0.1C31.7,20.8,31.8,20.7,31.8,20.7z"/>
			<path class="st3" d="M17.4,19.9c-0.3-0.2-0.5-0.5-0.2-0.9c0.1,0,0.3,0,0.4-0.1c0.3,0.1,0.7,0.7,0.8,0.2c0.3-1.3,1.4-1.2,2.3-1.2
				c1.1,0,2.3-0.7,3.4,0c0.1,0.1,0.3,0.2,0.4,0c0,0-0.1-0.2-0.2-0.3c-0.1-0.4-0.7-0.7-0.1-1.1c0.4-0.3,0.7,0.2,1,0.4
				c0.3,0.2,0.5,0.6,0.9,0.5c0.3,0,0.7,0.2,1,0c0.4,0.1,0.6,0.1,0.2,0.5c-0.7,0.6-1.5-0.2-2.2,0.2c-0.1,0-0.3,0.1-0.4,0.1
				c0,0.1,0.1,0.2,0.1,0.3c0,0.3,0,0.5,0,0.8c-0.1,0-0.2,0-0.3,0c-0.3-0.4-0.5-0.8-1.2-0.6c-0.9,0.3-1.1,0.9-1.1,1.6
				c-0.2,0-0.5,0-0.7,0c-0.1-0.1-0.2-0.2-0.3-0.3c-0.1-0.1-0.2-0.1-0.3-0.2c-0.2-0.3,0.4-1-0.5-1.1c-0.6-0.1-1,0.3-1.3,0.8
				c-0.1,0.1-0.1,0.1-0.2,0.2C18.4,20,17.9,19.8,17.4,19.9z"/>
			<path class="st4" d="M6.7,22.8C5.6,22.7,4.5,21,4.5,20c0-1.3,0.8-1.8,1.6-2.3C7,17.2,8,17.1,8.9,17.6c-0.3,0.2-0.7,0.4-1,0.7
				c-0.7-0.1-1.4,0.1-1.3,1C5.2,20,5.2,20,6.4,21c0.1,0.1,0.1,0.1,0.2,0.1c0.1,0.3-0.5,0.7,0,1C6.7,22.4,6.7,22.6,6.7,22.8z"/>
			<path class="st5" d="M18.5,27.9c-0.4-0.2-0.7-0.7-1.2-0.5c0-0.3,0-0.6-0.1-0.9c0.4-0.6,1.5-1.1,0.6-2.1c0.1-0.1,0.3-0.2,0.4-0.3
				c0.3,0.4,0.5,1.3,0.9,0.1c0-0.1,0.2-0.2,0.4-0.3c0.1,0.6,0.7,0.7,1.1,1c-0.1,0.9,0,1.7,0.2,2.6c-0.3,0-0.5-0.3-0.8-0.4
				s-0.2-0.8-0.9-0.5C18.6,26.9,18.5,27.3,18.5,27.9z"/>
			<path class="st2" d="M18.3,24.2c-0.1,0.1-0.3,0.2-0.4,0.3c0.9,1-0.2,1.5-0.6,2.1c-0.2,0-0.4,0-0.6,0c-0.2-0.3-0.5-0.2-0.8-0.2
				c-0.8,0.1-1.2-0.3-1.2-1.1c0-0.8,0.5-1.1,1.3-1.1c0.3,0,0.5,0,0.8,0c0.4,0,0.6-0.2,0.6-0.6c0-0.1,0-0.3,0-0.4
				c0.5-0.5,1.1-0.9,1.3,0.2C18.2,23.6,18.3,23.9,18.3,24.2z M17,25c-0.4,0.1-0.9-0.2-1.5,0.3C16.2,25.5,16.6,25.3,17,25
				c0.2,0,0.4,0,0.4-0.3l-0.1-0.1C17,24.6,17,24.8,17,25z"/>
			<path class="st6" d="M8.7,23.5c-0.3,0.4,0.1,0.7,0.3,1c0.4,0.9,0,1.5-0.7,2c-0.6,0.4-1.2,0.2-1.7-0.3c-0.6-0.7-0.4-1.3,0.1-2
				c0.2-0.3,0.7-0.4,0.6-0.9c0.3-0.2,0.2-0.5,0.2-0.8c0.3,0,0.7,0,1,0C8.5,22.9,8.6,23.2,8.7,23.5z M7.5,26.2
				c0.4-0.1,0.6-0.3,0.7-0.7c0-0.4,0.1-0.9-0.5-1C7.3,24.4,7,24.6,7,25C7,25.5,7.1,26,7.5,26.2z M8.4,24.1L8.4,24.1L8.4,24.1
				L8.4,24.1z"/>
			<path class="st7" d="M11.3,21.5c0.2,0.7-0.2,1-0.8,1.1c-0.3-0.4-0.9-0.2-1-0.7c0-0.6,0-1.1-0.3-1.6c0.3-0.5,0.4-1,0.3-1.5l0,0
				C11.8,19.4,11.8,19.4,11.3,21.5z"/>
			<path class="st8" d="M28.1,38.9c-0.3,0-0.5,0-0.8,0c-0.1-0.6-0.2-1.2-0.3-1.8c0.5-0.3-0.1-0.7,0-1c0.6-0.8,1.2-1.3,1.9-0.1
				c0.2,0.4,0.6,0.4,1,0.2c0.5-0.3,0.9-0.4,1.5-0.3c0,0.3,0,0.5,0,0.8l0,0c-0.7,0.3-1.6,0.4-2.2,0.2c-1.4-0.4-1.3,0.2-0.9,1.1
				c-0.2,0.1-0.3,0.3-0.2,0.6C28.1,38.6,28.1,38.8,28.1,38.9z"/>
			<path class="st9" d="M36.1,36.9c-0.3,0.1-0.5,0.2-0.8,0.3c-0.1,0-0.2,0-0.3,0c-0.3-0.1-0.5-0.4-0.5-0.8c0.2-0.3,0.3-0.7,0.5-1
				c0.3-0.1,0.8,0.5,1-0.1s-0.5-0.3-0.8-0.5c-0.1-0.1-0.1-0.1-0.2-0.2c0-0.2,0-0.3,0-0.5c0.5,0.1,0.9,0.9,1.5,0.3
				c0.5,0.2,1,0.2,1.5,0c-0.1,0.2-0.2,0.5-0.3,0.7c-0.3,0-0.8,0.1-0.7,0.5C37.3,36.4,36.6,36.5,36.1,36.9z"/>
			<path class="st7" d="M18.5,27.9c0-0.5,0-0.9,0.6-1.2c0.7-0.3,0.6,0.4,0.9,0.5s0.4,0.4,0.8,0.4c0.1,0.1,0.2,0.2,0.3,0.3
				c0,0.1,0,0.1,0,0.2c-0.1,0.3-0.2,0.7-0.2,1c-0.5,0-1,0.1-1.1,0.7c-0.3,0-0.7,0-1,0c-0.1-0.1-0.2-0.3-0.3-0.4
				c0.1-0.1,0.1-0.3,0.2-0.4c0.2,0,0.6,0.1,0.6-0.3c0-0.3-0.2-0.4-0.5-0.4C18.6,28.2,18.6,28,18.5,27.9z"/>
			<path class="st7" d="M34.3,17.7c1,0.5,2,1,3.1,1.5c0,0.1,0,0.2,0.1,0.3c-0.4,0.3-0.5,0.8-1.2,0.8c-0.4,0-0.6,0.3-0.7,0.7
				c0,0.1,0,0.2,0,0.3c-0.2-0.1-0.3-0.2-0.5-0.3c-0.1-0.3-0.2-0.7-0.3-1c0.2-1-0.3-1.6-1-2.1C33.9,17.8,34.1,17.7,34.3,17.7z"/>
			<path class="st8" d="M23.5,36.1c0-0.5-0.3-0.6-0.6-0.9c0.8-0.7,0.8-1.3,0-2c0.5,0,0.9,0,1.3,0.3c-0.1,0.6,0.2,0.8,0.8,0.8
				c0.2,0.3,0.3,0.5,0.5,0.8c0.2,0.6-0.7,0.9-0.5,1.6c-0.3,0-0.5,0-0.8,0C24.2,36.1,24.2,35.6,23.5,36.1z"/>
			<path class="st4" d="M18.5,23.4c-0.3-1.2-0.8-0.7-1.3-0.2c-0.6-0.3-1.1,0-1.6,0.2c-0.4,0.2-0.7,0.1-0.8-0.3
				c-0.1-0.5,0.2-0.7,0.6-0.7c0.5,0.1,0.8-0.2,1.2-0.3c0.1,0,0.2,0,0.3,0c0.6,0.2,0.8-0.5,1.3-0.5c0.2,0.3,0.3,0.3,0.5,0h0.1h0.1
				c0,0.1,0,0.2,0,0.3c-0.1,0.5,0.6,0.9,0.3,1.5C19,23.4,18.8,23.4,18.5,23.4z"/>
			<path class="st4" d="M24.2,36.6c0.3,0,0.5,0,0.8,0c0.3,0.1,0.7,0.2,1,0.3c0.2,0,0.3,0,0.5,0c0.1,0.2,0.3,0.2,0.5,0.2
				c0.1,0.6,0.2,1.2,0.3,1.8c-0.3,0.3-0.5,0.5-0.8,0.8c-0.4,0-0.5-0.3-0.5-0.6c0.2-1.4,0-1.6-1.5-1.5C24.5,37.2,24.4,36.9,24.2,36.6
				z"/>
			<path class="st10" d="M18.8,32.9c-1,0.8-1.3-0.6-2-0.8c-0.4-0.1-0.6-0.9-0.5-1.5c0.2-0.8,0.8-0.3,1.3-0.4c0,0.8,0.3,1.5,1,2
				C18.6,32.5,18.7,32.7,18.8,32.9z"/>
			<path class="st2" d="M11.3,21.5c0.5-2.1,0.5-2.1-1.8-2.7c0-0.3,0-0.5,0-0.8c0.8,0,1.4,0.6,2.1,0.6c0.6,0,1.1,0.7,0.9,1.3
				C12.4,20.5,12.4,21.5,11.3,21.5z"/>
			<path class="st7" d="M35.1,35.3c-0.2,0.3-0.3,0.7-0.5,1c-0.5,0.5-0.2,1,0,1.5c0,0.2,0,0.5,0,0.7s0,0.3-0.2,0.4
				c-0.3-0.2-0.4-0.6-0.8-0.5c-0.3-0.4,0.1-1.6-1-0.8c0-0.3,0-0.6,0.3-0.8c0.5,0,0.7-0.3,0.8-0.8c0-0.1,0-0.2,0-0.2
				c0.1-0.1,0.2-0.2,0.3-0.3C34.2,35.5,34.6,35.4,35.1,35.3z"/>
			<path class="st5" d="M26,39.1c0,0.3,0.2,0.6,0.5,0.6c-0.1,0.8-0.5,1.5-0.8,2.3c-0.2,0.3-0.4,0.6-0.8,0.4
				c-0.5-0.2-0.5-0.5-0.2-0.9C25.1,40.6,25.6,39.9,26,39.1z"/>
			<path class="st10" d="M35.6,21.1c0-0.4,0.2-0.8,0.7-0.7c0.6,0,0.8-0.5,1.2-0.8c0.1,0.2,0.2,0.3,0.2,0.5c0.1,0.3,0.2,0.5,0.3,0.8
				c0,0.1,0,0.2,0,0.3c-0.5,0-0.5,0.3-0.3,0.7c0.4,0.7,0.1,1.1-0.5,1.4C37.1,22.1,36.9,21.2,35.6,21.1z"/>
			<path class="st3" d="M22.9,33.2c0.8,0.7,0.7,1.3,0,2c-1,0.2-1.5-0.5-2.2-1.1c0-0.1,0.1-0.1,0.1-0.2c0.4-0.1,0.8,0.5,1.2,0.1
				c0.2-0.3-0.1-0.6-0.1-0.8C22.3,33,22.6,33.2,22.9,33.2z"/>
			<path class="st11" d="M24.2,36.6c0.1,0.3,0.3,0.6,0.2,1c-1.1,0.3-1.2,1.7-2.4,2.1c0.4-1.4,1.6-2.3,1.5-3.6
				C24.2,35.6,24.2,36.1,24.2,36.6z"/>
			<path class="st2" d="M29.6,15.1c0.1,0,0.2,0,0.3,0c0,0.3,0,0.6,0.3,0.8c-0.1,0.3-0.2,0.5-0.3,0.8c-0.2,0-0.3,0-0.5,0
				c-0.1-0.9-0.7-0.1-1-0.3l0,0c0-0.5-0.2-1.1-0.4-1.6c-0.2-0.4-0.3-0.8,0.4-0.7C28.6,14.7,28.7,15.4,29.6,15.1z"/>
			<path class="st11" d="M18.5,32.2c-0.6-0.5-1-1.2-1-2c0-0.1,0-0.1,0.1-0.1c0.1-0.1,0.2-0.3,0.4-0.4c0.2-0.1,0.3-0.2,0.5-0.3
				c0.1,0.1,0.2,0.3,0.3,0.4c-0.9,0.6,0,0.7,0.3,1c0.3,0.2,0.8,0.2,0.5,0.8l0,0C19.2,31.8,18.7,31.5,18.5,32.2L18.5,32.2z"/>
			<path class="st5" d="M9.5,21.9c0.1,0.5,0.8,0.4,1,0.7c-0.2,0.2-0.4,0.3-0.5,0.5c-0.2,0.9-0.7,0.8-1.3,0.4
				c-0.1-0.3-0.2-0.6-0.2-0.9c0-0.4,0.3-0.5,0.5-0.7C9.2,21.9,9.3,21.9,9.5,21.9z"/>
			<path class="st4" d="M36.1,36.9c0.5-0.3,1.2-0.5,1.1-1.4c-0.1-0.4,0.4-0.5,0.7-0.5c0,0.1,0,0.2,0,0.3c-0.1,0.5-0.2,0.9-0.2,1.4
				c0,0.4-0.2,0.8-0.6,0.9C36.6,37.6,36.1,37.5,36.1,36.9z"/>
			<path class="st5" d="M28.1,38.9c0-0.2,0-0.3,0-0.5c0.6-0.1,0.5,0.8,1,0.8c0.1,0.5-0.6,1.5,0.7,1.3c-0.3,0.5-0.7,0.9-1.4,0.6
				c-0.7-0.4-0.3-0.9-0.1-1.3C28.4,39.4,28.2,39.2,28.1,38.9z"/>
			<path class="st4" d="M33.5,38.4c0.4,0,0.5,0.4,0.8,0.5c-0.7,1.3-1.2,1.4-2.2,0.4c0.1-0.1,0.2-0.3,0.3-0.4
				C32.9,38.8,33.1,38.4,33.5,38.4z"/>
			<path class="st2" d="M27.1,17.5c-0.3,0.3-0.7,0-1,0c-0.1-0.9,0.6-1.5,1.4-1.2c0.3,0.1,0.6,0.3,0.9,0.1l0,0
				c-0.1,0.3-0.2,0.5-0.3,0.8C27.7,17.3,27.3,17.1,27.1,17.5z"/>
			<path class="st12" d="M39.2,33.2c0.8,0.2,0.9-0.7,1.3-1c0.8,0,0.8,0.4,0.5,1c-0.5,0.7-1.1,1-1.9,0.9c0-0.2,0-0.5-0.1-0.7
				C39.1,33.3,39.2,33.3,39.2,33.2z"/>
			<path class="st5" d="M29.9,13.9c-0.2,0.1-0.4,0.2-0.5,0.3c-0.4,0-0.6-0.5-0.9-0.6c0-0.5,0-1,0.6-0.9C29.6,12.7,30,13.2,29.9,13.9
				z"/>
			<path class="st11" d="M16.7,26.5c0.2,0,0.4,0,0.6,0c0,0.3,0,0.6,0.1,0.9c-0.4,0.4-0.8,0.8-1.2,0.3C15.6,27,16.1,26.7,16.7,26.5z"
				/>
			<path class="st3" d="M17,22.1c-0.1,0-0.2,0-0.3,0c-0.5-0.6-0.8-1.2,0.4-1.3c0.2,0,0.3-0.3,0.4-0.4c0.2,0,0.3,0,0.5,0
				c0,0.3,0,0.5,0,0.8C17.4,21.1,17.3,21.7,17,22.1z"/>
			<path class="st5" d="M31.2,39.2c-0.2,0.6-0.7,1.1-1.3,1.3c0-0.2,0-0.4,0-0.6c0.1-0.2,0.2-0.3,0.3-0.5c0.2-0.4-0.1-0.3-0.3-0.3
				c0-0.2,0-0.3,0-0.5c0.3,0,0.7,0,1,0c0.1,0,0.2,0,0.3,0.1C31.2,38.9,31.2,39.1,31.2,39.2z"/>
			<path class="st3" d="M20.8,34.1c-0.9,0.1-1.4-0.2-1.1-1.2l0,0c0.4,0,0.6-0.2,0.8-0.5c0.1,0,0.2,0,0.3,0c0,0.2,0,0.4,0.2,0.5
				c0,0.3,0,0.7,0,1C20.8,34,20.8,34.1,20.8,34.1z"/>
			<path class="st2" d="M39,33.3c0,0.2,0,0.5,0.1,0.7c-0.1,0.7-0.7,1-1.2,1.3c0-0.1,0-0.2,0-0.3c0.1-0.2,0.2-0.5,0.3-0.7
				C38.3,33.2,38.4,33.1,39,33.3z"/>
			<path class="st7" d="M29.9,39.9c0,0.2,0,0.4,0,0.6h-0.1c-1.3,0.2-0.6-0.8-0.7-1.3c0.3,0,0.5,0,0.8,0c0.2,0.1,0.5-0.1,0.3,0.3
				C30,39.6,29.9,39.8,29.9,39.9z"/>
			<path class="st11" d="M20.6,32.5c-0.1,0-0.2,0-0.3,0c-0.4,0-0.8-0.1-0.8,0.5l0,0c-0.3,0-0.5,0-0.8-0.1c-0.1-0.2-0.2-0.4-0.3-0.7
				l0.1-0.1c0.4,0,0.9,0.2,1-0.5l0,0C19.9,31.9,20.3,32.2,20.6,32.5z"/>
			<path class="st12" d="M28.4,13.5c0.4,0.1,0.5,0.6,0.9,0.6c0.1,0.3,0.3,0.6,0.2,1c-0.8,0.3-0.9-0.5-1.2-0.9
				C28.4,14,28.4,13.8,28.4,13.5z"/>
			<path class="st8" d="M9.5,18c0,0.3,0,0.5,0,0.8l0,0c-0.4,0-0.9,0-1.3,0c-0.1-0.2-0.2-0.4-0.3-0.5c0.3-0.2,0.7-0.4,1-0.7
				C9.1,17.7,9.3,17.9,9.5,18z"/>
			<path class="st6" d="M31.2,39.2c0-0.2,0-0.3,0-0.5c0.5-0.1,0.7-0.7,1.3-0.6c0,0.3,0,0.5,0,0.8c-0.1,0.1-0.2,0.3-0.3,0.4
				C31.9,39,31.5,39.1,31.2,39.2z"/>
			<path class="st12" d="M41,25.5c-0.2-0.5-0.9-0.8-0.7-1.6C41,24.2,41.6,24.6,41,25.5z"/>
			<path class="st6" d="M34.5,37.9c-0.2-0.5-0.5-1,0-1.5c0,0.4,0.2,0.6,0.5,0.8c0,0.2,0,0.4,0,0.6c0.1,0.2,0,0.4-0.2,0.5
				C34.8,38.1,34.8,38,34.5,37.9z"/>
			<path class="st5" d="M7.4,22.7c0,0.3,0.1,0.6-0.2,0.8c-0.2-0.2-0.4-0.4-0.6-0.6c0-0.2,0-0.4,0-0.6C6.9,22.3,7.2,22.5,7.4,22.7z"
				/>
			<path class="st8" d="M18,20.3c-0.2,0-0.3,0-0.5,0c-0.1-0.1-0.1-0.3-0.2-0.4c0.5-0.1,1,0.1,1.4-0.1C18.8,20.3,18.4,20.3,18,20.3z"
				/>
			<path class="st12" d="M40.5,31.4c-0.3-0.3-0.2-0.7-0.3-1C40.9,30.6,40.8,31,40.5,31.4z"/>
			<path class="st4" d="M18.7,28.4c0.3,0,0.5,0.2,0.5,0.4c0,0.4-0.4,0.3-0.6,0.3C18.7,28.8,18.7,28.6,18.7,28.4z"/>
			<path class="st10" d="M18,29.7c-0.1,0.1-0.2,0.3-0.4,0.4c0-0.3-0.1-0.5-0.1-0.8l0,0C17.7,29.5,17.8,29.6,18,29.7z"/>
			<path class="st12" d="M40.5,29.6c0-0.3,0.2-0.4,0.5-0.5C41.4,29.8,40.8,29.5,40.5,29.6z"/>
			<path class="st4" d="M17.2,23.6c0,0.4-0.1,0.6-0.6,0.6C16.8,24,17,23.8,17.2,23.6z"/>
			<path class="st4" d="M35.1,37.8c0-0.2,0-0.4,0-0.6c0.1,0,0.2,0,0.3,0C35.3,37.4,35.4,37.6,35.1,37.8z"/>
			<path class="st4" d="M34.5,37.9c0.1,0.1,0.2,0.3,0.3,0.4c-0.1,0.1-0.2,0.2-0.3,0.3C34.6,38.3,34.6,38.1,34.5,37.9z"/>
			<path class="st10" d="M17.5,29.4v-0.1V29.4z"/>
			<path class="st8" d="M17.6,18.9c-0.1,0-0.3,0-0.4,0.1C17.3,18.7,17.5,18.8,17.6,18.9z"/>
			<path class="st11" d="M33.8,22.9c0.2,0,0.3,0,0.5,0c0.3,0.8,0.3,1.4-0.6,1.9c-0.9,0.5-0.4,1,0.4,1.2l0,0c-0.2,0.5-0.3,1-0.5,1.5
				c-0.8,0.5-1.5,1.3-2.1,2.1c-0.5,0.1-0.9-0.3-1.3-0.5c0-0.3-0.2-0.5-0.5-0.5c-0.2,0-0.3,0-0.5,0c0-0.2,0-0.3,0-0.5
				c-0.1-0.3-0.1-0.6-0.2-0.9c-0.2-0.7-1-1.3-0.2-2.2c0.2-0.2-0.3-0.7-0.5-0.9c-0.3-0.3-0.6,0-0.9,0.2c-0.9,0.6-1.4,1.4-0.8,2.5
				c-0.3,0-0.7,0-1,0c-0.2-0.4-0.1-1.2-0.7-1.2c-0.7,0-0.7,0.7-0.9,1.2c-0.2,0.6-0.2,1.2,0,1.8c-0.3,0-0.5,0-0.8,0
				c-0.4-0.5-0.6-1.3-1.6-1c-0.2,0-0.3,0-0.5,0c0.1-0.8,0.7-1.3,1.3-1.7c0.9-0.6,1.3-1.4,0.8-2.5c0.1-0.5,0.4-0.6,0.7-0.5
				c0.4,0.2,0.8,0,1.2-0.2c1.4-0.4,2.3-1.4,3.4-2.3c-0.3-0.3-0.7-0.5-1.2-0.4c0-0.1,0-0.2,0-0.3c0.4-0.2,0.9-0.3,1.3-0.5
				c0.6,0.2,0.5,1.1,1.3,1c0.1,0,0.2,0,0.3,0c0.1,0.3,0.4,0.5,0.7,0.5c0.3,0.1,0.4,0.4,0.2,0.5c-0.9,0.3-0.8,1.2-1.3,1.8
				c-0.6,0.7-0.3,1.3-0.1,2c0.2,0.6,0.9,0.5,1,0.3c0.5-1,1.4-0.9,2.3-1.2c0.4-0.1,0.6-0.4,0.6-0.8c0-0.2,0-0.3,0-0.5
				C33.6,22.9,33.8,22.9,33.8,22.9z"/>
			<path class="st13" d="M38.2,29.6c0.3,0.8-0.2,1.7,0,2.5c-0.6,0.2-0.9-0.7-1.5-0.5c-0.1-0.4,0.3-1.1-0.5-1.2
				c-0.5,0-0.6,0.5-0.6,0.9c-0.5,0.1-0.5,0.4-0.5,0.8c-0.2,0-0.3,0-0.5,0c-0.1,0-0.2,0-0.2,0c0-0.7-1-0.4-1.1-1c0.3,0,0.6,0,0.8-0.3
				c0.6,0,1-0.1,1-0.8c0.1-0.4,0.2-0.9,0.5-1.3c0.1,0,0.2,0,0.3,0c0.2,0.7,0.6,0.6,1,0.3C37.4,29,37.8,29.2,38.2,29.6z"/>
			<path class="st3" d="M34,30.9c-0.2,0.3-0.5,0.3-0.8,0.3c-0.2,0-0.3,0-0.5,0c-0.4-0.5-0.9-1-1.3-1.5c0.6-0.8,1.2-1.5,2.1-2.1
				c0.4,0.1,0.6,0.6,1,0.5c-0.1,0.5,0.3,1.3-0.8,1.3c0-0.2,0-0.4-0.3-0.4l-0.1,0.1c0,0.3,0.2,0.3,0.4,0.3C33.8,29.9,34,30.4,34,30.9
				z"/>
			<path class="st10" d="M38.2,29.6C38,29.2,37.5,29,37,29.1c0.2-1.1,1-1.5,1.9-1.8c0.7-0.3,0.9,0.6,1.4,0.8
				c0.3,0.1-0.1,0.6-0.4,0.8C39.3,29.2,38.9,29.7,38.2,29.6z"/>
			<path class="st10" d="M39,33.3c-0.6-0.2-0.7-0.1-0.8,1c-0.5,0.2-1,0.2-1.5,0C37,33.6,36,33.6,36,33c0.5,0.1,1.1,0.5,1-0.5
				c0.5-0.1,1.2,0.8,1.5-0.3c0.1,0,0.2,0,0.3,0c0.1,0.2,0.3,0.3,0.5,0.3c0,0.2,0,0.5,0,0.7C39.2,33.3,39.1,33.3,39,33.3z"/>
			<path class="st11" d="M33.8,29.4c1.1,0.1,0.7-0.7,0.8-1.3c0.1,0,0.2,0,0.3,0s0.2,0,0.3,0c0.2,0.3,0.3,0.5,0.5,0.8
				c-0.3,0.4-0.4,0.8-0.5,1.3c-0.1,0.7-0.5,0.8-1,0.8C34,30.4,33.8,29.9,33.8,29.4L33.8,29.4z"/>
			<path class="st13" d="M39.2,32.5c-0.2,0-0.4,0-0.5-0.3c0.2-0.7-0.2-1.8,1.1-2C39.6,31,40.1,31.8,39.2,32.5z"/>
			<path class="st5" d="M35.6,21.1c1.3,0.1,1.5,1,1.5,2.1c-0.5-0.6-1-1.2-1.5-1.8C35.6,21.3,35.6,21.2,35.6,21.1z"/>
			<path class="st10" d="M34.8,20.1c0.1,0.3,0.2,0.7,0.3,1c0,0.1,0,0.2,0,0.3c-0.2,0-0.3,0-0.5,0c-0.1-0.3-0.4-0.5-0.8-0.5
				c0-0.4,0.3-0.7,0.5-1C34.5,19.9,34.6,20,34.8,20.1z"/>
			<path class="st7" d="M38.4,32.2c-0.4,1-1,0.2-1.5,0.3c-0.3-0.2-0.3-0.5-0.3-0.8c0.6-0.1,0.9,0.7,1.5,0.5
				C38.3,32.2,38.3,32.2,38.4,32.2z"/>
			<path class="st5" d="M33.8,20.8c0.4,0,0.6,0.2,0.8,0.5c0,0.3,0.2,0.5,0.5,0.5c0,0.3,0,0.5,0,0.8l0,0c-0.3,0-0.5,0-0.8,0
				C34.3,22,34,21.4,33.8,20.8z"/>
			<path class="st5" d="M35.1,28.1c-0.1,0-0.2,0-0.3,0c0.1-0.3-0.2-1,0.4-0.9c0.5,0,0.3,0.6,0.3,0.9C35.4,28.1,35.2,28.1,35.1,28.1z
				"/>
			<path class="st11" d="M34,26c0-0.3-0.1-0.8,0.5-0.7c0.3,0,0.3,0.3,0.3,0.5C34.8,26.4,34.3,26.1,34,26L34,26z"/>
			<path class="st11" d="M35.1,22.6c0.3,0,0.6-0.1,0.7,0.3c0,0.2-0.1,0.4-0.3,0.3C35.2,23.3,35.1,23,35.1,22.6L35.1,22.6z"/>
			<path class="st3" d="M35.1,28.1c0.2,0,0.3,0,0.5,0c0.3,0.2,0.3,0.5,0.3,0.8c-0.1,0-0.2,0-0.3,0C35.4,28.6,35.2,28.3,35.1,28.1z"
				/>
			<path class="st5" d="M37.9,21.1c0-0.1,0-0.2,0-0.3c0.2,0.1,0.5,0.2,0.4,0.5l-0.2,0.1C38.1,21.4,38,21.2,37.9,21.1z"/>
			<path class="st11" d="M36,23.8c0.1,0,0.2,0,0.2,0.1s-0.1,0.1-0.1,0.2c-0.1,0-0.2,0-0.2-0.1C35.9,23.9,36,23.9,36,23.8z"/>
			<path class="st3" d="M35.1,21.9c-0.3,0-0.5-0.2-0.5-0.5c0.2,0,0.3,0,0.5,0C35.1,21.5,35.1,21.7,35.1,21.9z"/>
			<path class="st13" d="M34.8,20.1c-0.2-0.1-0.3-0.2-0.5-0.3c0-0.1,0-0.2,0-0.3c0,0,0-0.1,0.1-0.1c0,0,0,0.1-0.1,0.1
				c-0.7,0.5-1.4-0.2-2.1-0.1c-0.2,0-0.5-0.5-0.6-0.8c-0.1-0.4,0.4-0.5,0.7-0.6c0.2,0.3,0.2,0.8,0.7,0.8c0.1-0.5,0.2-1,0.8-0.8
				C34.5,18.5,35,19.1,34.8,20.1z"/>
			<path class="st8" d="M33.8,18c-0.7-0.1-0.8,0.3-0.8,0.8c-0.5-0.1-0.5-0.6-0.7-0.8c0.3-0.7,1-1.3,0-2.1c1.6,0.1,2.3,0.7,2.1,1.8
				C34.1,17.7,33.9,17.8,33.8,18z"/>
			<path class="st5" d="M28.6,19.3c-0.4,0.2-0.9,0.3-1.3,0.5c-0.4-0.6,0.4-0.8,0.5-1.2c0.1-0.4,0.7-0.8,0.3-1.3
				c0.1-0.3,0.2-0.5,0.3-0.8c0.3,0.1,0.9-0.7,1,0.3c-0.3,0.6,0,1.3-0.5,1.8C28.6,18.7,28.6,19,28.6,19.3z"/>
			<path class="st4" d="M28.9,18.5c0.5-0.5,0.2-1.2,0.5-1.8c0.2,0,0.3,0,0.5,0c0.3,0.1,0.9,0,0.6,0.4C30.1,17.7,29.8,18.6,28.9,18.5
				z"/>
			<path class="st4" d="M30.2,20.3c-0.1,0-0.2,0-0.3,0c-0.1-0.3-0.2-0.7-0.2-1c0-0.4,0.3-0.5,0.6-0.5c0.2,0,0.6,0,0.7,0.1
				c0.3,0.3,0,0.5-0.2,0.7C30.6,19.9,30.6,20.3,30.2,20.3z"/>
			<path class="st5" d="M33.8,22.9c-0.1,0-0.2,0-0.2,0c-0.3,0-0.6-0.1-0.8,0.2c-0.5,0-0.5-0.4-0.5-0.8c0.6,0,0.8-0.6,1.3-0.8
				C33.6,22,33.8,22.5,33.8,22.9z"/>
			<path class="st11" d="M33.5,21.6c-0.5,0.2-0.7,0.8-1.3,0.8c-0.5-0.4-0.3-0.8,0.2-1C32.8,21.3,33.3,20.7,33.5,21.6z"/>
			<path class="st4" d="M30.2,15.9c-0.3-0.2-0.2-0.5-0.3-0.8C30.5,15.3,30.6,15.5,30.2,15.9z"/>
			<path class="st2" d="M32.8,23.2c0.2-0.3,0.5-0.3,0.8-0.2c0,0.2,0,0.3,0,0.5C33.2,23.4,32.9,23.5,32.8,23.2z"/>
			<path class="st11" d="M31.8,20.7l-0.1,0.1c0,0-0.1,0-0.1-0.1C31.7,20.7,31.8,20.7,31.8,20.7z"/>
			<path class="st10" d="M22.1,20.3c0.1-0.8,0.3-1.4,1.1-1.6c0.7-0.2,0.9,0.2,1.2,0.6c-0.2,1.2,1.2,0.9,1.6,1.6
				c-0.2,0.7-0.4,1-1,0.3c-0.5-0.5-1-0.5-1.6-0.1c-0.3-0.1-0.5-0.2-0.8-0.3C22.5,20.6,22.3,20.5,22.1,20.3z"/>
			<path class="st10" d="M28.1,17.2c0.4,0.6-0.2,0.9-0.3,1.3s-0.9,0.6-0.5,1.2c0,0.1,0,0.2,0,0.3c0,0.4-0.2,0.6-0.5,0.8
				c-0.3-1-1.3-1.1-2.1-1.5c0-0.3,0-0.5,0-0.8c0.1-0.1,0.2-0.2,0.3-0.3c0.7-0.3,1.5,0.4,2.2-0.2c0.5-0.4,0.2-0.4-0.2-0.5
				C27.3,17.1,27.7,17.3,28.1,17.2z"/>
			<path class="st8" d="M22.1,20.3c0.2,0.2,0.4,0.3,0.5,0.5c-0.3,0.4-1.1,0.4-1.1,1.1c-0.5-0.5-1.7,0.2-1.8-1c0-0.6,0.3-1.4-0.8-1.3
				c0.3-0.5,0.7-0.8,1.3-0.8c0.8,0.1,0.2,0.8,0.5,1.1c0.1,0.1,0.2,0.2,0.3,0.2c0.1,0.1,0.2,0.2,0.3,0.3
				C21.6,20.3,21.9,20.3,22.1,20.3z"/>
			<path class="st5" d="M19,19.6c1.1-0.1,0.8,0.7,0.8,1.3c-0.2,0-0.3,0-0.5,0c-1-0.4-0.3,0.5-0.5,0.8c-0.2,0.2-0.4,0.2-0.5,0
				c0.1-0.3,0.2-0.5-0.3-0.5c0-0.3,0-0.5,0-0.8c0.4,0,0.8,0,0.8-0.6C18.9,19.7,19,19.6,19,19.6z"/>
			<path class="st8" d="M24.7,19.3c0.7,0.5,1.7,0.6,2.1,1.5c-0.3,0-0.5,0-0.8,0c-0.3-0.7-1.8-0.3-1.6-1.6
				C24.6,19.3,24.7,19.3,24.7,19.3z"/>
			<path class="st14" d="M25,18.2c-0.1,0.1-0.2,0.2-0.3,0.3c0-0.1-0.1-0.2-0.1-0.3C24.7,18.2,24.9,18.2,25,18.2z"/>
			<path class="st10" d="M21.4,20.3c-0.1-0.1-0.2-0.2-0.3-0.3C21.2,20.1,21.3,20.2,21.4,20.3z"/>
			<path class="st14" d="M24.3,17.6c0.1,0.1,0.2,0.2,0.2,0.3c-0.1,0.2-0.3,0.1-0.4,0C24.2,17.8,24.3,17.7,24.3,17.6z"/>
			<path class="st7" d="M7.4,22.7c-0.3-0.2-0.5-0.3-0.8-0.5c-0.5-0.3,0.1-0.7,0-1c0.1-0.2,0.3-0.3,0.5-0.3C7.7,21.3,8.7,21,8.9,22
				c-0.2,0.2-0.6,0.3-0.5,0.7C8.1,22.6,7.8,22.6,7.4,22.7z"/>
			<path class="st7" d="M8,18.3c0.1,0.2,0.2,0.4,0.3,0.5c0,0.3,0,0.7,0,1C8.2,19.9,8.1,20,8,20.1c-0.6,0-0.5-1.1-1.3-0.8l0,0
				C6.6,18.3,7.2,18.2,8,18.3z"/>
			<path class="st9" d="M7.2,20.8c-0.2,0-0.4,0.1-0.5,0.3c-0.1,0-0.2-0.1-0.2-0.1c-1.2-1.1-1.2-1.1,0.2-1.7l0,0
				C6.7,19.9,7.4,20.2,7.2,20.8z"/>
			<path class="st2" d="M23.2,23.4c0.5,1.1,0.2,1.8-0.8,2.5c-0.6,0.4-1.2,0.9-1.3,1.7c0,0.1,0,0.2,0,0.3c-0.1-0.1-0.2-0.2-0.3-0.3
				c-0.2-0.8-0.3-1.7-0.2-2.6c0.5-0.6,1.4-0.8,1.8-1.6C22.7,23.4,22.9,23.4,23.2,23.4z M22.7,24.2c0,0,0,0.1-0.1,0.1
				C22.6,24.3,22.7,24.2,22.7,24.2s0-0.1,0.1-0.1C22.7,24.1,22.7,24.2,22.7,24.2z"/>
			<path class="st8" d="M22.4,23.4c-0.4,0.7-1.3,0.9-1.8,1.6c-0.4-0.3-1-0.4-1.1-1c0.2-0.2,0.6-0.2,0.7-0.7
				c-0.3,0.1-0.6,0.1-0.9,0.1c0.3-0.6-0.3-1-0.3-1.5c0.5,0,1-0.1,1.3,0.4c0.4,0.8,0.9,0.2,1.3,0.1C21.5,23.1,22.1,23.1,22.4,23.4z"
				/>
			<path class="st9" d="M19.3,23.4c0.3,0,0.6-0.1,0.9-0.1c0,0.5-0.4,0.5-0.7,0.7c-0.1,0.1-0.3,0.2-0.4,0.3c-0.4,1.2-0.7,0.3-0.9-0.1
				c0-0.3,0-0.6,0.3-0.8C18.8,23.4,19,23.4,19.3,23.4z"/>
			<path class="st5" d="M17,25c-0.4,0.3-0.8,0.6-1.5,0.3C16.1,24.8,16.6,25,17,25L17,25z"/>
			<path class="st5" d="M17,25c0-0.2,0-0.4,0.3-0.4l0.1,0.1C17.4,24.9,17.2,24.9,17,25L17,25z"/>
			<path class="st15" d="M7.5,26.2C7,25.9,7,25.5,7,25c0-0.4,0.3-0.6,0.7-0.5c0.6,0.1,0.5,0.6,0.5,1C8.2,26,8,26.2,7.5,26.2z"/>
			<polygon class="st14" points="8.4,24.1 8.3,24 8.4,24 			"/>
			<path class="st15" d="M7.2,20.8c0.2-0.6-0.5-1-0.5-1.5C7.5,19,7.4,20.1,8,20.1c0.1,0.2,0.3,0.3,0.5,0.2c0.2,0,0.5,0,0.7,0
				c0.3,0.5,0.3,1.1,0.3,1.6c-0.2,0-0.3,0-0.5,0C8.7,21,7.7,21.3,7.2,20.8z"/>
			<path class="st4" d="M9.2,20.3c-0.2,0-0.5,0-0.7,0c-0.1-0.2-0.2-0.3-0.3-0.5c0-0.3,0-0.7,0-1c0.4,0,0.9,0,1.3,0
				C9.6,19.3,9.6,19.8,9.2,20.3z"/>
			<path class="st3" d="M31.5,35.8c-0.5-0.1-1,0.1-1.5,0.3c-0.4,0.2-0.8,0.3-1-0.2c-0.7-1.2-1.3-0.7-1.9,0.1
				c-0.4-0.3-0.8-0.6-1.1-1.1c0-0.1,0-0.2,0-0.2c1.4,0.2,1.6-0.8,1.8-1.8c0.3-0.4,0.6-0.9,0.9-1.4c0.3,0.5-0.2,0.9-0.1,1.4
				c0.1,0.5,0.5,0.7,0.9,0.7c0.3,0,0.4-0.3,0.3-0.5c-0.9-0.8,0.1-1.2,0.3-1.8c0.6,0.1,1.1-0.1,1.8,0.2c-1.3,0.5-1.7,1.1-1,1.5
				s0.7,1.1,1,1.7c0,0.2,0,0.5,0,0.7C31.8,35.7,31.6,35.7,31.5,35.8z"/>
			<path class="st15" d="M31.5,35.8c0.2-0.1,0.3-0.2,0.5-0.3c0.3,0.2,0.4,0.6,0.8,0.5l0,0c0,0.3,0,0.5,0,0.8
				c-0.3,0.2-0.2,0.5-0.3,0.8c0,0.2,0,0.3,0,0.5c-0.6-0.1-0.8,0.5-1.3,0.6c-0.1,0-0.2,0-0.3-0.1c-0.1-0.2-0.2-0.5-0.2-0.7
				c0-0.4,0-1.1-0.6-0.5s-1.1,0.4-1.7,0.4c-0.4-0.9-0.6-1.5,0.9-1.1c0.7,0.2,1.5,0.1,2.2-0.2c0,0.2,0,0.3,0,0.5
				c-0.1,0.1-0.3,0.1-0.1,0.3c0-0.1,0.1-0.2,0.1-0.3c0.2,0,0.6,0.1,0.6-0.2c0-0.4-0.4-0.3-0.6-0.3C31.5,36.3,31.5,36.1,31.5,35.8z"
				/>
			<path class="st6" d="M26,35c0.3,0.4,0.6,0.8,1.1,1.1c-0.1,0.3,0.5,0.7,0,1c-0.2,0-0.4,0-0.5-0.2c0-0.1,0-0.4-0.2-0.3
				c-0.1,0-0.2,0.2-0.3,0.3c-0.3-0.1-0.7-0.2-1-0.3c-0.2-0.6,0.7-0.9,0.5-1.6C25.7,35,25.8,35,26,35z"/>
			<path class="st16" d="M28.3,37.9c0.6-0.1,1.2,0.1,1.7-0.4c0.6-0.6,0.6,0.1,0.6,0.5c-0.5,0-0.6,0.4-0.8,0.7c0,0.2,0,0.3,0,0.5
				c-0.3,0-0.5,0-0.8,0c-0.5,0-0.4-0.9-1-0.8C28.1,38.2,28.1,38,28.3,37.9z"/>
			<path class="st16" d="M34.3,32.2c0.1,0,0.2,0,0.2,0c-0.1,0.3,0.4,0.6,0,1c-0.9,0.9-0.5,1.2,0.5,1.3c0.1,0.1,0.1,0.1,0.2,0.2
				c0.3,0.2,0.9,0,0.8,0.5c-0.2,0.6-0.6-0.1-1,0.1c-0.4,0.1-0.9,0.2-1.3,0.2l0,0c-0.1-0.1,0.1-0.5-0.3-0.3c-0.2,0-0.3,0-0.5,0
				c-0.1-0.2-0.2-0.3-0.3-0.5c0-0.4,0-0.9,0-1.3C33.3,33.1,33.8,32.6,34.3,32.2z"/>
			<path class="st17" d="M35.1,34.5c-1-0.1-1.5-0.5-0.5-1.3c0.4-0.4-0.1-0.7,0-1c0.2,0,0.3,0,0.5,0c0.6,0,0.6-0.4,0.5-0.8
				c0-0.4,0.1-1,0.6-0.9c0.8,0.1,0.3,0.8,0.5,1.2c0,0.3-0.1,0.6,0.3,0.8c0.1,1-0.6,0.6-1,0.5c-0.7,0-0.8,0.5-0.8,1
				C35.1,34.2,35.1,34.4,35.1,34.5z"/>
			<path class="st5" d="M35.1,34c0-0.5,0.1-1,0.8-1c0,0.6,1,0.6,0.8,1.3C36,34.9,35.6,34.1,35.1,34z"/>
			<path class="st10" d="M19.8,29.8c0.1-0.6,0.5-0.8,1.1-0.7c0.3,0.2,0.6,0.3,1,0.3c0.4,0.4,0.8,0.2,1.3,0.2l0,0
				C23,30,23,30.8,22.1,30.5c-0.2-0.1-0.5,0.3-0.7,0.4c-0.1,0-0.2,0-0.3,0C20.9,30.3,20.6,29.8,19.8,29.8z"/>
			<path class="st2" d="M21.9,29.4c-0.4,0-0.7-0.1-1-0.3c0.1-0.3,0.2-0.7,0.2-1c0.3,0,0.5-0.2,0.5-0.5c0.9-0.3,1.1,0.6,1.6,1
				c0,0.1,0,0.2,0,0.3C22.6,28.6,22.1,28.6,21.9,29.4z"/>
			<path class="st4" d="M19.8,29.8c0.8-0.1,1.1,0.5,1.3,1.1c-0.1,0.1-0.2,0.2-0.3,0.3c-0.4,0-0.6-0.2-0.8-0.5
				c-0.5-0.7-0.8-0.4-1,0.3c-0.3-0.3-1.2-0.4-0.3-1C19.1,29.9,19.5,29.9,19.8,29.8z"/>
			<path class="st5" d="M21.6,27.6c0,0.3-0.2,0.5-0.5,0.5c0-0.1,0-0.1,0-0.2s0-0.2,0-0.3C21.3,27.6,21.5,27.6,21.6,27.6z"/>
			<path class="st10" d="M19.1,30.9c0.2-0.6,0.5-1,1-0.3c0.2,0.3,0.4,0.5,0.8,0.5c0,1.1,1.2,0.8,1.6,1.5c0.2-0.5-0.4-1.1,0.4-1.2
				c-0.1,1.5,0.6,0.8,1.3,0.5c-0.3,0.5,0.2,1.1,0,1.6c-0.4-0.2-0.8-0.3-1.3-0.3c-0.3,0-0.7-0.3-1,0c-0.4,0.1-0.6-0.6-1.1-0.3
				c-0.2-0.1-0.2-0.3-0.2-0.5c-0.3-0.3-0.7-0.5-1-0.8C19.9,31.1,19.3,31.1,19.1,30.9z"/>
			<path class="st5" d="M24.2,33.5c0.2-0.5-0.3-1.1,0-1.6c0.1-0.2,0.2-0.3,0.3-0.5c1,0.5,1.8-0.2,2.6-0.5c0,0.1,0,0.2,0,0.3
				c-0.1,0.3-0.2,0.5-0.3,0.8c-1.1,0-1,0.8-1,1.6c-0.6-0.1-0.8,0.2-0.8,0.8C24.4,34.3,24.2,34,24.2,33.5z"/>
			<path class="st9" d="M25,34.3c0-0.6,0.2-0.8,0.8-0.8c0.1,0.2,0.3,0.2,0.5,0.3c-0.1,0.3-0.2,0.7-0.3,1c0,0.1,0,0.2,0,0.2
				c-0.2,0-0.3,0-0.5,0C25.3,34.8,25.2,34.5,25,34.3z"/>
			<path class="st17" d="M21.6,22.4c-0.4,0.1-0.9,0.7-1.3-0.1c-0.2-0.5-0.8-0.4-1.3-0.4c0-0.1,0-0.2,0-0.3c0.1-0.3,0.2-0.5,0.3-0.8
				c0.2,0,0.3,0,0.5,0c0,1.3,1.3,0.6,1.8,1C21.6,22.1,21.6,22.2,21.6,22.4L21.6,22.4z"/>
			<path class="st8" d="M18,21.1c0.4,0,0.4,0.2,0.3,0.5c-0.5,0-0.7,0.7-1.3,0.5C17.3,21.7,17.4,21.1,18,21.1z"/>
			<path class="st8" d="M19.4,20.9c-0.1,0.3-0.2,0.5-0.3,0.8H19h-0.1C19,21.4,18.3,20.5,19.4,20.9z"/>
			<path class="st8" d="M26,36.8c0.1-0.1,0.2-0.3,0.3-0.3c0.2,0,0.2,0.2,0.2,0.3C26.4,36.9,26.2,36.9,26,36.8z"/>
			<path class="st8" d="M32.5,38.1c0-0.2,0-0.3,0-0.5c1.1-0.8,0.8,0.4,1,0.8c-0.4,0-0.7,0.4-1,0.5C32.5,38.6,32.5,38.4,32.5,38.1z"
				/>
			<path class="st15" d="M33,35.3c0.2,0,0.3,0,0.5,0c0,0.1,0,0.2,0,0.3s0,0.2,0,0.3s0,0.2,0,0.2c-0.3,0-0.5,0-0.8,0l0,0
				C32.8,35.8,32.9,35.6,33,35.3z"/>
			<path class="st17" d="M32.8,36.1c0.3,0,0.5,0,0.8,0c0,0.5-0.3,0.7-0.8,0.8C32.8,36.6,32.8,36.3,32.8,36.1z"/>
			<path class="st16" d="M33.5,35.8c0-0.1,0-0.2,0-0.3c0.1,0,0.2,0,0.3,0l0,0C33.8,35.7,33.6,35.7,33.5,35.8z"/>
			<path class="st7" d="M20.9,33c0.5-0.3,0.7,0.3,1.1,0.3c0.1,0.3,0.4,0.6,0.1,0.8c-0.4,0.4-0.8-0.1-1.2-0.1
				C20.9,33.7,20.9,33.3,20.9,33z"/>
			<path class="st10" d="M19.6,31.7c-0.1,0.7-0.6,0.5-1,0.5C18.7,31.5,19.2,31.8,19.6,31.7z"/>
			<path class="st8" d="M29.9,38.7c0.2-0.3,0.2-0.8,0.8-0.7c0.1,0.2,0.2,0.5,0.2,0.7C30.6,38.7,30.3,38.7,29.9,38.7z"/>
			<path class="st6" d="M29.9,39.9c0-0.2,0-0.4,0.3-0.5C30.1,39.6,30,39.8,29.9,39.9z"/>
			<path class="st10" d="M19.6,33c0-0.6,0.4-0.5,0.8-0.5C20.2,32.8,20,33,19.6,33z"/>
			<path class="st13" d="M32.8,33.5c0,0.4,0,0.9,0,1.3c-0.2,0-0.5,0-0.7,0c-0.3-0.5-0.3-1.2-1-1.7c-0.7-0.4-0.3-1.1,1-1.5
				c-0.7-0.3-1.2-0.2-1.8-0.2l0,0c0-0.8-0.3-1.4-1-1.8c0-0.2,0-0.3,0-0.5l0,0c0.2,0,0.3,0,0.5,0s0.3,0,0.5,0
				c0.4,0.2,0.8,0.6,1.3,0.5c0.4,0.5,0.9,1,1.3,1.5c0.2,0.7,0.8,1.3-0.2,1.9C32.6,33.1,32.8,33.3,32.8,33.5z"/>
			<path class="st5" d="M22.4,23.4c-0.3-0.3-1-0.4-0.8-1.1l0,0c1.2,0.4,1.8-0.1,1.8-1.3c0.6-0.4,1.1-0.4,1.6,0.1
				c0.6,0.7,0.9,0.3,1-0.3c0.3,0,0.5,0,0.8,0c0.3-0.1,0.5-0.4,0.5-0.8c0.4,0,0.8,0.1,1.2,0.4c-1.1,0.9-2,1.9-3.4,2.3
				c-0.4,0.1-0.7,0.3-1.2,0.2c-0.4-0.1-0.7,0-0.7,0.5C22.9,23.4,22.7,23.4,22.4,23.4z"/>
			<path class="st3" d="M24,28.6c-0.2-0.6-0.2-1.2,0-1.8c0.2-0.5,0.2-1.2,0.9-1.2c0.6,0,0.5,0.8,0.7,1.2c0.3,1.2,0.6,1.4,1.4,0.7
				c0.4,0.5-0.1,0.9-0.1,1.4c-0.3,0-0.5,0-0.8,0c0-0.5-0.4-0.8-0.8-0.7c-0.6,0.2-0.2,0.8-0.3,1.2c-0.2,0.4-0.6,0.5-1,0.4
				C24,29.4,24,29,24,28.6z"/>
			<path class="st4" d="M26.6,26.8c-0.6-1.1,0-1.8,0.8-2.5c0.3-0.2,0.6-0.5,0.9-0.2c0.2,0.3,0.7,0.7,0.5,0.9c-0.8,0.9,0,1.5,0.2,2.2
				c0.1,0.3,0.1,0.6,0.2,0.9c-0.3,0-0.8,0-0.8-0.2C28.2,26.7,27.2,27.1,26.6,26.8z"/>
			<path class="st2" d="M26.6,26.8c0.6,0.3,1.6-0.1,1.8,1.1c0,0.3,0.5,0.2,0.8,0.2c0,0.2,0,0.3,0,0.5s0,0.3,0,0.5l0,0
				c-0.7-0.2-1.1,0.7-1.8,0.5c-0.2-0.3-0.4-0.5-0.5-0.8c0-0.5,0.5-0.9,0.1-1.4c-0.8,0.7-1,0.6-1.4-0.7
				C25.9,26.8,26.2,26.8,26.6,26.8z"/>
			<path class="st10" d="M24,28.6c0,0.4,0,0.8,0,1.3c-0.3-0.1-0.5-0.2-0.8-0.2l0,0c0-0.3,0-0.5,0-0.8c0-0.1,0-0.2,0-0.3
				C23.5,28.6,23.7,28.6,24,28.6z"/>
			<path class="st2" d="M30.2,29.1c-0.2,0-0.3,0-0.5,0c0-0.2,0-0.3,0-0.5C30,28.6,30.2,28.8,30.2,29.1z"/>
			<path class="st3" d="M29.7,28.6c0,0.2,0,0.3,0,0.5c-0.2,0-0.3,0-0.5,0c0-0.2,0-0.3,0-0.5C29.3,28.6,29.5,28.6,29.7,28.6z"/>
			<path class="st9" d="M32.8,33.5c-0.1-0.2-0.2-0.4-0.2-0.4c1-0.6,0.3-1.3,0.2-1.9c0.2,0,0.3,0,0.5,0c0.1,0.6,1,0.3,1.1,1
				C33.8,32.6,33.3,33.1,32.8,33.5z"/>
			<path class="st9" d="M35.6,31.4c0,0.4,0.1,0.8-0.5,0.8C35.1,31.8,35.1,31.5,35.6,31.4z"/>
			<path class="st11" d="M33.8,29.4c-0.2,0-0.4,0-0.4-0.3l0.1-0.1C33.8,29,33.8,29.2,33.8,29.4L33.8,29.4z"/>
			<path class="st3" d="M34.3,19.6c0,0,0-0.1,0.1-0.1C34.3,19.5,34.3,19.5,34.3,19.6C34.3,19.5,34.3,19.6,34.3,19.6z"/>
			<path class="st2" d="M23.5,21.1c0,1.2-0.6,1.7-1.8,1.3c0-0.2,0-0.3,0-0.5c0-0.7,0.7-0.7,1.1-1.1C22.9,20.9,23.2,21,23.5,21.1z"/>
			<path class="st8" d="M8.2,19.8c0.1,0.2,0.2,0.3,0.3,0.5c-0.2,0-0.4,0-0.5-0.2C8.1,20,8.1,19.9,8.2,19.8z"/>
			<path class="st5" d="M22.7,24.2c0,0,0,0.1-0.1,0.1C22.6,24.3,22.7,24.2,22.7,24.2L22.7,24.2z"/>
			<path class="st5" d="M22.7,24.2c0,0,0-0.1,0.1-0.1C22.7,24.1,22.7,24.2,22.7,24.2L22.7,24.2z"/>
			<path class="st11" d="M26.8,31.9c0.1-0.3,0.2-0.5,0.3-0.8c0.9,0,0.5-1.5,1.5-1.3c0.6,0.5,0.7,1.4,1.5,1.5l0,0
				c-0.3,0.6-1.2,1-0.3,1.8c0.1,0.1,0,0.5-0.3,0.5c-0.5,0-0.8-0.2-0.9-0.7c-0.1-0.5,0.4-0.9,0.1-1.4c-0.3,0.5-0.6,0.9-0.9,1.4
				c-0.3-0.1-0.5-0.2-0.8-0.3C26.8,32.5,26.8,32.2,26.8,31.9z"/>
			<path class="st6" d="M27.1,32.7c0.3,0.1,0.5,0.2,0.8,0.3c-0.3,0.9-0.4,2-1.8,1.8c0.1-0.3,0.2-0.7,0.3-1
				C26.6,33.4,27,33.2,27.1,32.7z"/>
			<path class="st17" d="M32,34.8c0.2,0,0.5,0,0.7,0c0.1,0.2,0.2,0.3,0.3,0.5c-0.1,0.3-0.2,0.5-0.3,0.8c-0.4,0-0.5-0.4-0.8-0.5
				C32,35.3,32,35.1,32,34.8z"/>
			<path class="st17" d="M31.5,37.1c0-0.2,0-0.3,0-0.5l0,0c0.2,0.1,0.7-0.1,0.6,0.3C32.1,37.2,31.7,37.1,31.5,37.1L31.5,37.1z"/>
			<path class="st16" d="M31.5,37.1c0,0.1-0.1,0.2-0.1,0.3C31.1,37.3,31.4,37.2,31.5,37.1L31.5,37.1z"/>
			<path class="st17" d="M33.8,35.6c-0.1,0-0.2,0-0.3,0c0-0.1,0-0.2,0-0.3C33.9,35.1,33.8,35.4,33.8,35.6z"/>
			<path class="st9" d="M23.2,29.6c0.3,0.1,0.5,0.2,0.8,0.2c0.4,0,0.8,0,1-0.4c0.3,0.1,0.5,0.2,0.8,0.2c0,0.2,0,0.3,0,0.5
				c-0.8,0-1.8-0.1-1.3,1.3c-0.1,0.2-0.2,0.3-0.3,0.5c-0.6,0.4-1.4,1.1-1.3-0.5c-0.3-0.4-0.6-0.3-1,0c-0.7,0.5-0.5-0.2-0.6-0.5
				c0.2-0.2,0.6-0.5,0.7-0.4C23,30.8,23,30.1,23.2,29.6z"/>
			<path class="st8" d="M21.4,30.9c0.1,0.3-0.2,1,0.6,0.5c0.4-0.3,0.7-0.3,1,0c-0.9,0.1-0.3,0.7-0.4,1.2c-0.4-0.7-1.6-0.4-1.6-1.5
				c0.1-0.1,0.2-0.2,0.3-0.3C21.2,30.9,21.3,30.9,21.4,30.9z"/>
			<path class="st3" d="M23.2,28.8c0,0.3,0,0.5,0,0.8c-0.4,0-0.9,0.2-1.3-0.2C22.1,28.6,22.6,28.6,23.2,28.8z"/>
			<path class="st10" d="M24.5,31.4C24,30,25,30.1,25.8,30.1c0.5-0.1,0.9,0.3,1.3,0.5c0,0.1,0,0.2,0,0.3
				C26.2,31.3,25.5,32,24.5,31.4z"/>
			<path class="st3" d="M27.1,32.7c-0.1,0.5-0.5,0.7-0.8,1c-0.2,0-0.4-0.1-0.5-0.3c0-0.7-0.1-1.6,1-1.6
				C26.8,32.2,26.8,32.5,27.1,32.7z"/>
			<path class="st3" d="M27.1,30.9c0-0.1,0-0.2,0-0.3c0.5-0.3-0.1-0.8,0.3-1c0.7,0.2,1.1-0.7,1.8-0.5c0,0.2,0,0.3,0,0.5
				c-0.2,0-0.4,0.1-0.5,0.3c-1.1-0.2-0.7,1.3-1.5,1.3C27.1,31.1,27.1,31,27.1,30.9z"/>
			<path class="st2" d="M28.6,29.9c0.1-0.2,0.3-0.3,0.5-0.3c0.8,0.4,1.1,1,1,1.8C29.3,31.3,29.2,30.4,28.6,29.9z"/>
			<path class="st6" d="M27.3,29.6c-0.4,0.3,0.2,0.8-0.3,1c-0.4-0.2-0.7-0.6-1.3-0.5c0-0.2,0-0.3,0-0.5c0.1-0.3,0.2-0.5,0.3-0.8
				c0.3,0,0.5,0,0.8,0C27,29.1,27.2,29.4,27.3,29.6z"/>
			<path class="st11" d="M26.1,28.9c-0.1,0.3-0.2,0.5-0.3,0.8c-0.3-0.1-0.5-0.2-0.8-0.2c0.1-0.4-0.3-1,0.3-1.2
				C25.6,28.1,26,28.4,26.1,28.9z"/>
		</g>
		<g>
			<path class="st18" d="M34.6,46.5l-0.1-0.6L34,46.1c-3.4,1-4.1,1.5-4.4,1.8C29.2,48.2,29,49,29,52.2c0,4.5,0.6,8.6,1.8,12.3
				c1.1,3.4,2.1,5,3.3,5c0.3,0,0.7-0.1,1.1-0.3c0.4-0.2,0.6-0.2,0.7-0.2h0.3l0.2-0.3c0.2-0.4,0.4-0.9,0.7-1.3
				c0.2-0.3,0.2-0.7,0.2-1.1V66L34.6,46.5L34.6,46.5z"/>
			<g>
				<path class="st18" d="M136.4,62.9h-0.2l-0.1,0.1c-1.3,0.9-2.3,1.5-3.1,1.7s-1.6,0.3-2.4,0.3c-1.1,0-2-0.4-2.6-1.1
					c-0.6-0.8-0.9-2-0.9-3.8c0.1-0.2,0.4-1.7,0.9-4.2c0.3-1.2,0.4-2.3,0.4-3.2c0-1.7-0.5-3.1-1.4-4c-1.2-1.2-3-1.8-5.5-1.8
					c-1.5,0-3.1,0.2-4.8,0.7c-1.4,0.4-2.7,0.9-3.9,1.6c0.1-3.3,0.7-9,1.8-16.9c1.2-8.8,2.1-14.3,2.6-16.1v-0.1v-5.4l-0.8,0.5
					c-0.8,0.5-2,2-3.8,9.9c-0.8,3.7-1.7,8.4-2.5,14c-0.5,3.4-1.2,8.4-2.4,15.1c-0.6,4-1.1,6.9-1.5,8.8l0,0l0,0c0,2.3-0.2,4.7-0.5,7
					c-0.3,2.3-0.7,4.3-1.1,5.9l-0.2,0.7h3.8l0.1-0.4c0.3-1.2,0.9-5.2,1.9-12c0.9-6.5,4.4-9.7,10.5-9.7c1.3,0,2.2,0.3,2.7,1
					s0.8,1.7,0.8,3c0,0.6-0.2,2.4-0.6,5.3c-0.2,1.3-0.2,2.4-0.2,3.2c0,1.9,0.4,3.4,1.3,4.5c0.9,1.1,2.4,1.7,4.6,1.7
					c1.8,0,3.6-0.4,5.2-1.2c2-1,3.6-2.6,4.7-4.6l0.4-0.8L136.4,62.9L136.4,62.9z"/>
				<path class="st18" d="M171.2,58.8h-0.5l-0.1,0.5c-0.2,1.9-0.9,3.2-1.8,3.9c-1.3,1.1-3.7,1.6-7.1,1.6c-5.1,0-9.2-1.7-12.3-5
					c-2.4-2.6-3.7-5.2-3.7-7.7c0-0.1,0-0.3,0.3-0.6c6.3,0,10.1-0.4,11.8-1.2c2.2-1.1,3.4-3.9,3.4-8.2V40c0-1.3-0.3-2.2-1-2.8
					c-0.8-0.8-2.3-1.2-4.3-1.2c-4.1,0-7.5,1.4-10.1,4.2s-3.9,6.3-3.9,10.4c0,5.2,1.8,9.7,5.4,13.4c3.6,3.7,8,5.6,13.3,5.6
					c3.8,0,6.4-0.4,7.9-1.3c2.3-1.4,3.9-4.4,4.8-8.9l0.1-0.6L171.2,58.8L171.2,58.8z M150.5,43.2c1.8-1.8,3.4-2.7,4.6-2.7
					s1.6,0.2,1.6,0.2l0,0c0,0,0.1,0.3,0.1,1.5c0,0.3-0.1,0.8-0.6,2c-0.3,0.8-0.5,1.4-0.5,2c-3.3,0-5.9,0.2-7.9,0.4
					C148.5,45.5,149.4,44.4,150.5,43.2z"/>
				<path class="st18" d="M203.9,58.8h-0.5l-0.1,0.5c-0.2,1.9-0.9,3.2-1.8,3.9c-1.3,1.1-3.7,1.6-7.1,1.6c-5.1,0-9.2-1.7-12.3-5
					c-2.4-2.6-3.7-5.2-3.7-7.7c0-0.1,0-0.3,0.3-0.6c6.3,0,10.1-0.4,11.8-1.2c2.3-1.1,3.4-3.9,3.4-8.2V40c0-1.3-0.3-2.2-1-2.8
					c-0.8-0.8-2.3-1.2-4.3-1.2c-4.1,0-7.5,1.4-10.1,4.2s-3.9,6.3-3.9,10.4c0,5.2,1.8,9.7,5.4,13.4c3.6,3.7,8,5.6,13.3,5.6
					c3.8,0,6.4-0.4,7.9-1.3c2.3-1.4,3.9-4.4,4.8-8.9l0.1-0.6L203.9,58.8L203.9,58.8z M183.2,43.2c1.8-1.8,3.4-2.7,4.6-2.7
					s1.6,0.2,1.6,0.2l0,0c0,0,0.1,0.3,0.1,1.5c0,0.3-0.1,0.8-0.6,2c-0.3,0.8-0.5,1.4-0.5,2c-3.3,0-5.9,0.2-7.9,0.4
					C181.1,45.5,182,44.4,183.2,43.2z"/>
				<path class="st18" d="M230.7,46c-1.6-0.8-3.1-1.4-4.4-1.8c-1.4-0.3-2.8-0.5-4.3-0.5c-3.2,0-6.2,0.9-9,2.8
					c-2.3,1.5-3.7,3.3-4.2,5.1c-0.3,1.2-0.4,2.3-0.4,3.2c0,3.7,1.6,7.5,4.6,11.4c3.4,4.2,4.5,4.8,5.1,4.8h0.5v-0.5
					c0-0.5-0.2-2.2-2.4-9.8c-0.7-2.8-1.5-5.6-2.4-8.3c0-0.2-0.1-0.5-0.1-1c0-1.4,0.5-2.2,1.5-2.7c1.1-0.5,2.9-0.7,5-0.7h4.5
					c1.5,0,2.6-0.1,3.5-0.2c0.9-0.1,1.7-0.4,2.3-0.8l0.8-0.5L230.7,46L230.7,46z"/>
				<path class="st18" d="M249.7,41.2h0.5v-0.5c0-1.4-0.1-1.8-0.1-2c-0.1-0.3-0.2-0.8-0.6-1.7l-0.2-0.4l-0.4,0.1
					c-2.2,0.4-4.8,1.7-7.6,3.8c-3,2.2-4.5,3.9-4.5,5.4c0,0.7,0.4,1.9,3.8,5.8c2.4,2.7,3.6,5.1,3.9,7.1c0,5.8-2.8,10.8-8.4,14.9
					c-7.4,5.3-7.6,5.5-7.7,5.6l-0.3,0.3l0.2,0.3l0.6,1.2l0.1,0.3h0.3c4.4,0,8.3-1.3,11.5-4c2.9-2.4,5.2-5.8,7-10.3
					c1.6-4.2,2.4-6.9,2.4-8.3c0-1.7-1.2-3.9-3.5-6.7c-2.1-2.5-3.8-4.7-5.1-6.5c2-1.6,3.8-2.7,5.2-3.4
					C247.6,41.6,248.6,41.3,249.7,41.2L249.7,41.2z"/>
				<path class="st19" d="M94.8,63.1L94.5,63l-0.2,0.2c-0.1,0.1-0.2,0.2-0.3,0.3l-0.2,0.2c-0.7,0.7-1.3,1.4-2,2c-1.8,2-3.8,4-6.3,5
					h-0.1l-0.1,0.1c-0.6,0.2-1.1,0.4-1.6,0.5c-1.1,0.2-2.1,0.3-3.1,0.4c-1,0-1.9,0-2.9,0c-6.3,0-11.5-0.3-16.7-1.8
					c-0.2-0.1-0.3-0.2-0.4-0.3l-0.1-0.1l-0.1-0.1c-1.2-0.6-2.2-1.3-3-2c-3.1-2.6-4.7-6.2-4.7-10.5c0-6.2,1.1-13.1,3.4-20.4
					c1.8-5.7,7.5-17.2,10.9-23.3c2.7-4.9,0-0.8,1.4-2.4c1.9-2.2,3.5-3.7,4.8-4.6c1-0.1,2-0.3,3.1-0.5c0.4-0.1,0.9-0.2,1.3-0.2h0.1
					h0.2c0.7,0,1.4,0.1,2.3,0.2c0.6,0.3,1.3,0.5,2,0.6C83,6.5,83.8,6.6,84.3,7c0.4,0.2,0.7,0.7,1,1.1c0.4,0.5,0.7,1,1.3,1.3
					c0.7,0.4,1.2,0.5,1.8,0.5c0.3,0,0.6-0.1,0.9-0.2c0.2-0.1,0.5-0.2,0.6-0.4c0.1,0,0.2-0.1,0.4-0.1h0.1l0.1-0.1
					c0.6-0.7,1.1-1.4,1.7-2l0.1-0.4l-0.2-0.2c-1.3-2-3.1-3.2-5.7-3.6c-0.1,0-0.1-0.1-0.2-0.1l-0.1-0.1l-0.1-0.1H86
					c-1.2-0.1-2.5-0.3-3.9-0.6H82h-0.1c-0.8,0.1-1.5,0.1-2.2,0.1c-1,0-2-0.1-2.8-0.2h-0.1h-0.1c-3,0.2-5.3,1.1-6.8,2.6
					c-0.2,0.2-0.3,0.4-0.3,0.6c-0.2,0.1-0.4,0.3-0.6,0.4l0,0l0,0c-1.8,2.1-3.3,4.1-4.9,6.2c-0.6,0.7-1.1,1.5-1.7,2.2
					c-0.6,0.7-1,1.6-1.3,2.4c-0.2,0.5-0.4,1-0.7,1.4c-0.6,1-1.1,2.1-1.5,3.1c-0.5,1.1-1.1,2.3-1.8,3.5c-1.1,1.8-2.6,4.5-3.3,7.2
					c-0.7,1.2-0.8,1.7-0.8,1.9c-0.1,0.5-0.2,1-0.2,1.5l-0.1,0.9c-1,3.2-1.7,6.4-2.2,8.9c-0.3,1.6-0.5,3.5-0.5,5.1c0,1-0.1,2.1-0.2,3
					c-0.1,1.5-0.2,3-0.1,4.6c-0.1,2.4,0.1,4.3,0.7,6c0.7,2.2,1.7,3.9,3,4.9c0,0.1,0.1,0.1,0.1,0.1c2.2,2.6,5.5,4.4,10,5.4
					C67,74.6,71.7,75,77.7,75c5.4,0,9.4-1.4,12.1-4c0.2-0.2,1-1.1,5.8-7.2l0.2-0.3l-0.3-0.2C95.2,63.3,95,63.1,94.8,63.1L94.8,63.1z
					"/>
			</g>
		</g>
		<g>
			<path class="st18" d="M312.9,57l3.1,2c-0.1,0.3-0.5,0.5-0.9,0.6c-3.1,4.2-7.5,7.7-12.6,10.3c7.3,2.6,16,4.1,25,4.8
				c-0.9,1-2,2.8-2.5,3.9c-9.9-1-19.4-3.1-27.3-6.5c-8,3.3-17.5,5.4-27.2,6.6c-0.4-1.1-1.5-2.8-2.3-3.7c8.8-0.9,17.5-2.5,24.9-5.1
				c-3.7-2-6.9-4.4-9.5-7.1c-3.7,2.5-7.7,4.7-11.5,6.3c-0.7-0.8-2-2.1-2.9-2.8c7.7-2.9,16-8.2,20.9-14.1c-2.9-0.5-3.7-1.7-3.7-4.7
				v-6.7l5.4,0.4c-0.1,0.5-0.4,0.8-1.2,0.8v5.5c0,1.3,0.5,1.6,3.3,1.6h10.3c2.2,0,2.6-0.5,2.8-4.7c0.9,0.6,2.5,1,3.6,1.3
				c-0.5,5.4-1.6,6.7-5.9,6.7H292l3.1,1.2c-0.3,0.3-0.8,0.5-1.4,0.5c-0.9,1-1.9,2.1-3,3.1h21.5L312.9,57L312.9,57z M274.6,36.7v7.2
				h-4.2V33.1h12c-0.8-2.2-2.6-5.2-4.4-7.3l1.8-0.7l-7.2,0.2c-0.1-1-0.5-2.5-0.9-3.4c16.5-0.5,36.8-1.8,47.4-4.1l3.3,3.3
				c-0.1,0.1-0.4,0.2-0.6,0.2s-0.4-0.1-0.6-0.1c-6.2,1.2-15,2.2-24.4,2.9c1.6,2.4,3.1,5.4,3.6,7.5l-4,1.4c-0.5-2.3-2.1-5.9-3.9-8.5
				l0.6-0.2c-3.7,0.3-7.4,0.5-11,0.6c1.9,2.3,3.7,5.1,4.3,7.2l-2.1,1h24.4c2.2-2.7,4.8-6.9,6.4-9.7l4.8,2.2
				c-0.2,0.3-0.7,0.5-1.4,0.5c-1.3,2-3.3,4.7-5.2,7h11.7v11.2h-4.4v-7.6h-26c3.3,1.5,7.2,3.6,9.2,5.3l-2.4,2.8
				c-2.1-1.8-6.4-4.3-9.9-5.9l2-2.2L274.6,36.7L274.6,36.7z M283.1,42.1c-1.4,4.4-3.8,8.4-8.6,10.6l-3-2.7c4.2-1.8,6.9-5.3,8.1-9.2
				L283.1,42.1L283.1,42.1z M286.5,60.6L286.5,60.6c2.8,2.9,6.7,5.4,11.2,7.4c4.5-2,8.3-4.4,11.1-7.4H286.5L286.5,60.6z M320.8,52.3
				c-2.2-2.9-6.8-7.2-10.7-10.2l3-2.2c4,2.8,8.7,6.9,10.9,9.9L320.8,52.3L320.8,52.3z"/>
			<path class="st18" d="M341.2,36.3c4.1,1.6,9.3,4.4,11.8,6.5l-2.5,3.7c-2.6-2.2-7.6-5.2-11.8-6.9
				C338.9,39.5,341.2,36.3,341.2,36.3z M340.6,75c3.2-5.2,7.8-14.1,11.1-21.7l3.5,2.6c-3,7.1-7.1,15.3-10.1,20.4
				c0.3,0.3,0.3,0.7,0.3,0.9s-0.1,0.5-0.2,0.7L340.6,75L340.6,75z M400.1,25.5h-15.7v9.8h12.8v42.8h-4.2v-2.8h-30.4v3.2h-4V35.4h11
				v-9.8h-13.4l-2.6,3.5c-2.4-2.4-7.4-5.5-11.6-7.5l2.5-3.2c3.9,1.6,8.6,4.5,11.2,6.7v-3.7H400L400.1,25.5L400.1,25.5z M373.5,39.3
				c0,4.2,0,11.8-7.7,17.7c-0.6-0.8-2-2-2.8-2.5c6.9-5.2,6.9-11,6.9-15.2h-7.3v20.1H393V47.7h-0.1c-0.5,4.5-1.4,5.7-4,5.7h-4.1
				c-3.4,0-4.3-1-4.3-4.9v-9.2H373.5L373.5,39.3z M362.6,71.4H393v-8.2h-30.4V71.4z M380.4,35.3v-9.8h-6.9v9.8H380.4z M388.4,49.8
				c1,0,1.2-0.5,1.4-4.2c0.7,0.6,2.1,1.2,3.2,1.4v-7.7h-9v9.2c0,1.1,0.1,1.3,1.1,1.3H388.4L388.4,49.8z"/>
			<path class="st18" d="M443.8,23.6h25.5V33h-4.5v-5.7h-13.2c-0.2,0.1-0.5,0.2-0.9,0.3v6.5c0,1.2,0.4,1.4,2.5,1.4h7.5
				c1.5,0,1.8-0.3,2-2.4c0.9,0.5,2.5,1,3.7,1.2c-0.4,3.6-1.6,4.5-5.1,4.5h-8.5c-5.1,0-6.4-0.8-6.4-4.6v-6.8h-13.7v0.1l4.4,0.4
				c-0.1,0.4-0.5,0.7-1.2,0.9C433.6,35,429.4,39,415.6,41c-0.4-1-1.4-2.5-2.2-3.3c12.2-1.5,16.3-4.5,17.8-10.4h-12.8v6H414v-9.7
				h25.2v-5.9L445,18c-0.1,0.5-0.4,0.8-1.3,0.9V23.6L443.8,23.6z M467.2,56.1V74c0,4.6-2.2,4.7-10.9,4.7c-0.2-1.1-0.9-2.7-1.4-3.8
				c1.9,0.1,3.7,0.1,5,0.1c2.7,0,3.1-0.1,3.1-1.1V59.6h-43v18.9H416V56.1h7.1v-14h37.3v14H467.2L467.2,56.1z M427.1,45.3v10.8h11.2
				v-7.2h17.9v-3.6H427.1L427.1,45.3z M454.9,63.4v10.3h-22.6v2.4h-4V63.4H454.9L454.9,63.4z M450.8,66.2h-18.5v4.6h18.5V66.2z
				 M456.1,56.1v-4.5h-13.8v4.5H456.1z"/>
		</g>
	</g>
</g>
</svg>
