<?xml version="1.0" encoding="utf-8"?>
<!-- Generator: Adobe Illustrator 28.2.0, SVG Export Plug-In . SVG Version: 6.00 Build 0)  -->
<svg version="1.1" id="_圖層_2" xmlns="http://www.w3.org/2000/svg" xmlns:xlink="http://www.w3.org/1999/xlink" x="0px" y="0px"
	 viewBox="0 0 473.8 83.3" style="enable-background:new 0 0 473.8 83.3;" xml:space="preserve">
<style type="text/css">
	.st0{clip-path:url(#SVGID_00000110472665651900963690000005771231029405111993_);}
	.st1{fill:#FDFDFD;}
	.st2{fill:#876284;}
	.st3{fill:#8B6888;}
	.st4{fill:#8E6C8B;}
	.st5{fill:#947390;}
	.st6{fill:#997A96;}
	.st7{fill:#AB92A8;}
	.st8{fill:#A489A1;}
	.st9{fill:#B29BAF;}
	.st10{fill:#9C7E98;}
	.st11{fill:#7F597D;}
	.st12{fill:#EEE9ED;}
	.st13{fill:#977794;}
	.st14{fill:#BCA7B9;}
	.st15{fill:#C3B1C1;}
	.st16{fill:#B6A0B3;}
	.st17{fill:#231815;}
	.st18{fill:#231815;stroke:#000000;stroke-miterlimit:10;}
	.st19{display:none;fill:#231815;}
</style>
<g>
	<defs>
		<rect id="SVGID_1_" x="-1" width="473.9" height="83.4"/>
	</defs>
	<clipPath id="SVGID_00000037686731692752456220000003187133085645060224_">
		<use xlink:href="#SVGID_1_"  style="overflow:visible;"/>
	</clipPath>
	<g style="clip-path:url(#SVGID_00000037686731692752456220000003187133085645060224_);">
		<g>
			<path class="st1" d="M4.7,51.8c0-14.6,0-29.3,0-43.9c0-0.9,0.2-1.1,1.1-1.1c14.2,0,28.4,0,42.6,0c0.9,0,1.1,0.2,1.1,1.1
				c0,14.3,0,28.6,0,42.9c0,0.9-0.2,1.1-1.1,1.1C33.7,51.8,19.2,51.8,4.7,51.8z M22.2,31.4L22.2,31.4C22.2,31.3,22.2,31.4,22.2,31.4
				c0,0.3,0.1,0.5,0.1,0.8c-0.1,0-0.1,0-0.1,0.1c-0.4,0.1-1.1-0.4-1.3,0.4c-0.1,0.6,0.1,1.4,0.5,1.5c0.7,0.2,1,1.6,2,0.8
				c0.3,0,0.5,0,0.8,0.1c-0.2,1,0.3,1.3,1.1,1.2c0.6,0.6,1.2,1.2,2.2,1.1c0.3,0.2,0.6,0.4,0.6,0.9c0.1,1.4-1.1,2.3-1.5,3.6
				c1.2-0.5,1.3-1.9,2.4-2.1c1.6-0.1,1.7,0.1,1.5,1.5c-0.4,0.8-0.9,1.6-1.3,2.3c-0.2,0.4-0.2,0.7,0.2,0.9c0.4,0.2,0.6,0,0.8-0.4
				c0.3-0.7,0.7-1.5,0.8-2.3c0.3-0.3,0.5-0.5,0.8-0.8c0.3,0,0.5,0,0.8,0c0.2,0.3,0.3,0.5,0.2,0.8c-0.2,0.5-0.5,1,0.1,1.3
				c0.7,0.4,1-0.1,1.4-0.6l0.1,0c0.7-0.2,1.1-0.6,1.3-1.3c0.3-0.1,0.6-0.2,0.9,0.1c1,1,1.5,0.9,2.2-0.4c0.2-0.1,0.3-0.2,0.2-0.4
				c0.1-0.1,0.2-0.2,0.3-0.3c0.2-0.1,0.3-0.3,0.2-0.5c0.3-0.1,0.2-0.4,0.2-0.7c0.3-0.1,0.5-0.2,0.8-0.3c0,0.6,0.5,0.8,1,0.7
				c0.4-0.1,0.6-0.4,0.6-0.9c0-0.5,0.1-0.9,0.2-1.4c0.5-0.3,1-0.7,1.2-1.3c0.8,0.1,1.5-0.2,1.9-0.9c0.4-0.5,0.4-1-0.5-1
				c0-0.3,0-0.5,0-0.8c0.3-0.4,0.4-0.8-0.3-1c-0.1-0.3,0-0.6,0.3-0.8c0.3-0.1,0.9,0.1,0.5-0.5c0-1.2-0.4-2.4,0-3.6
				c0.6-0.9,0-1.3-0.7-1.6c-0.4-1-1.1-1.9-1.3-3c-0.1-0.6-0.7-0.8-1.2-1c-0.1-0.2-0.2-0.3-0.2-0.5c0-0.1,0-0.2-0.1-0.3
				c-0.6-2.1-2.4-3-4.1-4c-1.1-0.6-2.5-0.3-3.4-1.4c0.1-0.7-0.3-1.2-0.9-1.3c-0.6-0.1-0.6,0.5-0.6,0.9c0,0.2,0,0.4-0.1,0.7
				c-0.7-0.1-0.6,0.3-0.4,0.7c0.2,0.5,0.4,1,0.4,1.6c-0.3,0.2-0.6,0-0.9-0.1c-0.8-0.3-1.4,0.3-1.4,1.2c-0.4,0.1-0.6-0.3-0.9-0.5
				c-0.3-0.2-0.6-0.6-1-0.4c-0.5,0.4,0,0.7,0.1,1.1c-0.1,0.1-0.1,0.2-0.2,0.2c-1.1-0.7-2.3,0-3.4,0c-0.8,0-1.9-0.1-2.3,1.2
				c-0.1,0.5-0.5-0.1-0.8-0.2c-0.2-0.1-0.3-0.2-0.4,0.1c-0.3,0.4-0.2,0.6,0.2,0.9c0.1,0.1,0.1,0.3,0.2,0.4c-0.1,0.2-0.3,0.4-0.4,0.4
				c-1.2,0.1-0.9,0.7-0.4,1.3c-0.4,0.1-0.8,0.3-1.2,0.3c-0.5-0.1-0.8,0.2-0.6,0.7c0.1,0.4,0.5,0.5,0.8,0.3c0.5-0.2,1-0.4,1.6-0.2
				c0,0.1,0,0.3,0,0.4c-0.2,0.2-0.4,0.4-0.6,0.6c-0.3,0-0.5,0-0.8,0c-0.8-0.1-1.3,0.2-1.3,1.1c0,0.8,0.4,1.2,1.2,1.1
				c0.3,0,0.6-0.1,0.8,0.2c-0.6,0.2-1.1,0.6-0.6,1.2c0.4,0.6,0.9,0.1,1.2-0.3c0.5-0.2,0.8,0.2,1.2,0.5c0.1,0.2,0.1,0.3,0.2,0.5
				c0,0.2,0,0.5-0.1,0.7c-0.1,0.1-0.1,0.3-0.2,0.4c-0.2,0.1-0.3,0.2-0.5,0.3C22.5,31.6,22.4,31.5,22.2,31.4z M14.2,20
				c-0.2-0.1-0.4-0.3-0.6-0.4c-1-0.5-1.9-0.4-2.8,0.1c-0.9,0.5-1.7,1-1.6,2.3c0,1,1.1,2.7,2.2,2.8c0.2,0.2,0.4,0.4,0.6,0.6
				c0.1,0.5-0.4,0.6-0.6,0.9c-0.5,0.6-0.7,1.3-0.1,2c0.5,0.5,1.1,0.7,1.7,0.3c0.7-0.5,1-1.1,0.7-2c-0.1-0.3-0.6-0.6-0.3-1
				c0.6,0.4,1.1,0.5,1.3-0.4c0.1-0.2,0.3-0.4,0.5-0.5c0.6-0.1,1-0.4,0.8-1.1c1,0,1.1-1,1.2-1.6c0.2-0.6-0.3-1.3-0.9-1.3
				C15.6,20.6,15,20,14.2,20z"/>
			<path class="st2" d="M45.2,31.6c-0.3,0.2-0.4,0.4-0.3,0.8c0,0.4-0.1,0.8,0.3,1c0,0.3,0,0.5,0,0.8c-0.4,0.3-0.5,1.2-1.3,1
				c0-0.2,0-0.5,0-0.7c0.9-0.6,0.4-1.5,0.6-2.3c-1.3,0.3-0.9,1.3-1.1,2c-0.1,0-0.2,0-0.3,0c-0.1,0-0.2,0-0.2,0
				c-0.2-0.8,0.3-1.7,0-2.5c0.7,0.1,1.1-0.4,1.6-0.7c0.3-0.2,0.6-0.7,0.4-0.8c-0.5-0.3-0.7-1.1-1.4-0.8c-0.9,0.3-1.7,0.8-1.9,1.8
				c-0.5,0.4-0.9,0.5-1-0.3c0-0.3,0-0.6-0.3-0.8c-0.1-0.3,0.2-0.9-0.3-0.9c-0.7,0-0.3,0.6-0.4,0.9c-0.1,0-0.2,0-0.3,0
				c-0.5,0-0.7-0.4-1-0.5c0.2-0.5,0.3-1,0.5-1.5c0.3,0.1,0.7,0.4,0.7-0.2c0-0.2,0-0.5-0.3-0.5c-0.6-0.1-0.4,0.4-0.5,0.7
				c-0.8-0.2-1.2-0.8-0.4-1.2c0.9-0.5,0.9-1.1,0.6-1.9c0-0.1,0-0.2,0-0.3c0.3,0,0.5,0,0.8,0c0,0.3,0.1,0.6,0.5,0.7
				c0.2,0,0.3-0.2,0.3-0.3c-0.1-0.4-0.4-0.3-0.7-0.3c0-0.3,0-0.5,0-0.8c0-0.2,0-0.3,0-0.5c0-0.1,0-0.2,0-0.3
				c0.2,0.1,0.3,0.2,0.5,0.3c0.5,0.6,1,1.2,1.5,1.8c0.6-0.3,0.9-0.7,0.5-1.4c-0.2-0.3-0.2-0.6,0.3-0.7c0.1,0.1,0.1,0.3,0.2,0.4
				c0,0,0.2-0.1,0.2-0.1c0-0.3-0.2-0.4-0.4-0.5c-0.1-0.3-0.2-0.5-0.3-0.8c0.5,0.2,1.1,0.4,1.2,1c0.3,1.1,1,1.9,1.3,3
				c-0.2,0.7,0.6,1,0.7,1.6c-0.4,1.2,0,2.4,0,3.6C45.4,31.2,45.3,31.4,45.2,31.6z M40.7,25.8c0,0.1-0.1,0.2-0.1,0.2
				c0,0.1,0.1,0.1,0.2,0.1c0-0.1,0.1-0.2,0.1-0.2C40.9,25.8,40.8,25.8,40.7,25.8z"/>
			<path class="st3" d="M39,24.6c0,0.1,0,0.2,0,0.3c-0.2,0-0.3,0-0.5,0c-0.1-0.4-0.2-0.9-0.3-1.3c-0.2-0.9-0.8-0.3-1.1-0.2
				c-0.5,0.1-0.7,0.5-0.2,1c0,0.4,0,0.7,0.5,0.8c0.2,0.3,0.5,0.2,0.8,0.3c0,0.4-0.2,0.6-0.6,0.8c-0.8,0.3-1.7,0.2-2.3,1.2
				c-0.1,0.3-0.8,0.3-1-0.3c-0.2-0.7-0.6-1.3,0.1-2c0.5-0.5,0.4-1.5,1.3-1.8c0.2-0.1,0.1-0.4-0.2-0.5c-0.3-0.1-0.5-0.2-0.7-0.5
				c0.5,0,0.5-0.4,0.7-0.7c0.2-0.2,0.5-0.4,0.2-0.7c-0.1-0.1-0.5-0.1-0.7-0.1c-0.3,0-0.6,0.2-0.6,0.5c0,0.3,0.1,0.7,0.2,1
				c-0.8,0.1-0.7-0.9-1.3-1c0-0.3,0-0.6,0.3-0.8c0.9,0,1.2-0.8,1.6-1.4c0.3-0.4-0.3-0.4-0.6-0.4c0.1-0.3,0.2-0.5,0.3-0.8
				c0.4-0.4,0.3-0.7-0.3-0.8c-0.1,0-0.2,0-0.3,0c0.1-0.4-0.1-0.7-0.2-1c0.2-0.1,0.4-0.2,0.5-0.3c0.9,1.1,2.3,0.8,3.4,1.4
				c1.7,1,3.5,1.9,4.1,4c-1-0.5-2-1-3.1-1.5c0.2-1.1-0.5-1.8-2.1-1.8c1,0.8,0.3,1.4,0,2.1c-0.3,0.2-0.8,0.2-0.7,0.6
				c0.1,0.3,0.4,0.8,0.6,0.8c0.7-0.1,1.4,0.6,2.1,0.1l0,0c0,0.1,0,0.2,0,0.3c-0.2,0.3-0.5,0.6-0.5,1C38.7,23.4,39,24,39,24.6z
				 M36.5,22.7c-0.1,0-0.1,0-0.2,0c0,0,0.1,0.1,0.1,0.1C36.4,22.8,36.5,22.7,36.5,22.7z"/>
			<path class="st3" d="M22.1,21.9c-0.3-0.2-0.5-0.5-0.2-0.9c0.1,0,0.3,0,0.4-0.1c0.3,0.1,0.7,0.7,0.8,0.2c0.3-1.3,1.4-1.2,2.3-1.2
				c1.1,0,2.3-0.7,3.4,0c0.1,0.1,0.3,0.2,0.4,0c0,0-0.1-0.2-0.2-0.3c-0.1-0.4-0.7-0.7-0.1-1.1c0.4-0.3,0.7,0.2,1,0.4
				c0.3,0.2,0.5,0.6,0.9,0.5c0.3,0,0.7,0.2,1,0c0.4,0.1,0.6,0.1,0.2,0.5c-0.7,0.6-1.5-0.2-2.2,0.2c-0.1,0-0.3,0.1-0.4,0.1
				c0,0.1,0.1,0.2,0.1,0.3c0,0.3,0,0.5,0,0.8c-0.1,0-0.2,0-0.3,0c-0.3-0.4-0.5-0.8-1.2-0.6c-0.9,0.3-1.1,0.9-1.1,1.6
				c-0.2,0-0.5,0-0.7,0c-0.1-0.1-0.2-0.2-0.3-0.3c-0.1-0.1-0.2-0.1-0.3-0.2c-0.2-0.3,0.4-1-0.5-1.1c-0.6-0.1-1,0.3-1.3,0.8
				c-0.1,0.1-0.1,0.1-0.2,0.2C23.1,22,22.6,21.8,22.1,21.9z"/>
			<path class="st4" d="M11.4,24.8C10.3,24.7,9.2,23,9.2,22c0-1.3,0.8-1.8,1.6-2.3c0.9-0.5,1.9-0.6,2.8-0.1c-0.3,0.2-0.7,0.4-1,0.7
				c-0.7-0.1-1.4,0.1-1.3,1c-1.4,0.7-1.4,0.7-0.2,1.7c0.1,0.1,0.1,0.1,0.2,0.1c0.1,0.3-0.5,0.7,0,1C11.4,24.4,11.4,24.6,11.4,24.8z"
				/>
			<path class="st5" d="M23.2,29.9c-0.4-0.2-0.7-0.7-1.2-0.5c0-0.3,0-0.6-0.1-0.9c0.4-0.6,1.5-1.1,0.6-2.1c0.1-0.1,0.3-0.2,0.4-0.3
				c0.3,0.4,0.5,1.3,0.9,0.1c0-0.1,0.2-0.2,0.4-0.3c0.1,0.6,0.7,0.7,1.1,1c-0.1,0.9,0,1.7,0.2,2.6c-0.3,0-0.5-0.3-0.8-0.4
				c-0.3-0.1-0.2-0.8-0.9-0.5C23.3,28.9,23.2,29.3,23.2,29.9z"/>
			<path class="st2" d="M23,26.2c-0.1,0.1-0.3,0.2-0.4,0.3c0.9,1-0.2,1.5-0.6,2.1c-0.2,0-0.4,0-0.6,0c-0.2-0.3-0.5-0.2-0.8-0.2
				c-0.8,0.1-1.2-0.3-1.2-1.1c0-0.8,0.5-1.1,1.3-1.1c0.3,0,0.5,0,0.8,0c0.4,0,0.6-0.2,0.6-0.6c0-0.1,0-0.3,0-0.4
				c0.5-0.5,1.1-0.9,1.3,0.2C22.9,25.6,23,25.9,23,26.2z M21.7,27c-0.4,0.1-0.9-0.2-1.5,0.3C20.9,27.5,21.3,27.3,21.7,27
				c0.2,0,0.4,0,0.4-0.3c0,0-0.1-0.1-0.1-0.1C21.7,26.6,21.7,26.8,21.7,27z"/>
			<path class="st6" d="M13.4,25.5c-0.3,0.4,0.1,0.7,0.3,1c0.4,0.9,0,1.5-0.7,2c-0.6,0.4-1.2,0.2-1.7-0.3c-0.6-0.7-0.4-1.3,0.1-2
				c0.2-0.3,0.7-0.4,0.6-0.9c0.3-0.2,0.2-0.5,0.2-0.8c0.3,0,0.7,0,1,0C13.2,24.9,13.3,25.2,13.4,25.5z M12.2,28.2
				c0.4-0.1,0.6-0.3,0.7-0.7c0-0.4,0.1-0.9-0.5-1c-0.4-0.1-0.7,0.1-0.7,0.5C11.7,27.5,11.8,28,12.2,28.2z M13.1,26.1L13.1,26.1
				L13.1,26.1L13.1,26.1z"/>
			<path class="st7" d="M16,23.5c0.2,0.7-0.2,1-0.8,1.1c-0.3-0.4-0.9-0.2-1-0.7c0-0.6,0-1.1-0.3-1.6c0.3-0.5,0.4-1,0.3-1.5l0,0
				C16.5,21.4,16.5,21.4,16,23.5z"/>
			<path class="st8" d="M32.8,40.9c-0.3,0-0.5,0-0.8,0c-0.1-0.6-0.2-1.2-0.3-1.8c0.5-0.3-0.1-0.7,0-1c0.6-0.8,1.2-1.3,1.9-0.1
				c0.2,0.4,0.6,0.4,1,0.2c0.5-0.3,0.9-0.4,1.5-0.3c0,0.3,0,0.5,0,0.8c0,0,0,0,0,0c-0.7,0.3-1.6,0.4-2.2,0.2
				c-1.4-0.4-1.3,0.2-0.9,1.1c-0.2,0.1-0.3,0.3-0.2,0.6C32.8,40.6,32.8,40.8,32.8,40.9z"/>
			<path class="st9" d="M40.8,38.9c-0.3,0.1-0.5,0.2-0.8,0.3c-0.1,0-0.2,0-0.3,0c-0.3-0.1-0.5-0.4-0.5-0.8c0.2-0.3,0.3-0.7,0.5-1
				c0.3-0.1,0.8,0.5,1-0.1c0.2-0.6-0.5-0.3-0.8-0.5c-0.1-0.1-0.1-0.1-0.2-0.2c0-0.2,0-0.3,0-0.5c0.5,0.1,0.9,0.9,1.5,0.3
				c0.5,0.2,1,0.2,1.5,0c-0.1,0.2-0.2,0.5-0.3,0.7c-0.3,0-0.8,0.1-0.7,0.5C42,38.4,41.3,38.5,40.8,38.9z"/>
			<path class="st7" d="M23.2,29.9c0-0.5,0-0.9,0.6-1.2c0.7-0.3,0.6,0.4,0.9,0.5c0.3,0.1,0.4,0.4,0.8,0.4c0.1,0.1,0.2,0.2,0.3,0.3
				c0,0.1,0,0.1,0,0.2c-0.1,0.3-0.2,0.7-0.2,1c-0.5,0-1,0.1-1.1,0.7c-0.3,0-0.7,0-1,0c-0.1-0.1-0.2-0.3-0.3-0.4
				c0.1-0.1,0.1-0.3,0.2-0.4c0.2,0,0.6,0.1,0.6-0.3c0-0.3-0.2-0.4-0.5-0.4C23.3,30.2,23.3,30,23.2,29.9z"/>
			<path class="st7" d="M39,19.7c1,0.5,2,1,3.1,1.5c0,0.1,0,0.2,0.1,0.3c-0.4,0.3-0.5,0.8-1.2,0.8c-0.4,0-0.6,0.3-0.7,0.7
				c0,0.1,0,0.2,0,0.3c-0.2-0.1-0.3-0.2-0.5-0.3c-0.1-0.3-0.2-0.7-0.3-1c0.2-1-0.3-1.6-1-2.1C38.6,19.8,38.8,19.7,39,19.7z"/>
			<path class="st8" d="M28.2,38.1c0-0.5-0.3-0.6-0.6-0.9c0.8-0.7,0.8-1.3,0-2c0.5,0,0.9,0,1.3,0.3c-0.1,0.6,0.2,0.8,0.8,0.8
				c0.2,0.3,0.3,0.5,0.5,0.8c0.2,0.6-0.7,0.9-0.5,1.6c-0.3,0-0.5,0-0.8,0C28.9,38.1,28.9,37.6,28.2,38.1z"/>
			<path class="st4" d="M23.2,25.4c-0.3-1.2-0.8-0.7-1.3-0.2c-0.6-0.3-1.1,0-1.6,0.2c-0.4,0.2-0.7,0.1-0.8-0.3
				c-0.1-0.5,0.2-0.7,0.6-0.7c0.5,0.1,0.8-0.2,1.2-0.3c0.1,0,0.2,0,0.3,0c0.6,0.2,0.8-0.5,1.3-0.5c0.2,0.3,0.3,0.3,0.5,0
				c0,0,0.1,0,0.1,0l0.1,0c0,0.1,0,0.2,0,0.3c-0.1,0.5,0.6,0.9,0.3,1.5C23.7,25.4,23.5,25.4,23.2,25.4z"/>
			<path class="st4" d="M28.9,38.6c0.3,0,0.5,0,0.8,0c0.3,0.1,0.7,0.2,1,0.3c0.2,0,0.3,0,0.5,0c0.1,0.2,0.3,0.2,0.5,0.2
				c0.1,0.6,0.2,1.2,0.3,1.8c-0.3,0.3-0.5,0.5-0.8,0.8c-0.4,0-0.5-0.3-0.5-0.6c0.2-1.4,0-1.6-1.5-1.5C29.2,39.2,29.1,38.9,28.9,38.6
				z"/>
			<path class="st10" d="M23.5,34.9c-1,0.8-1.3-0.6-2-0.8c-0.4-0.1-0.6-0.9-0.5-1.5c0.2-0.8,0.8-0.3,1.3-0.4c0,0.8,0.3,1.5,1,2
				C23.3,34.5,23.4,34.7,23.5,34.9z"/>
			<path class="st2" d="M16,23.5c0.5-2.1,0.5-2.1-1.8-2.7c0-0.3,0-0.5,0-0.8c0.8,0,1.4,0.6,2.1,0.6c0.6,0,1.1,0.7,0.9,1.3
				C17.1,22.5,17.1,23.5,16,23.5z"/>
			<path class="st7" d="M39.8,37.3c-0.2,0.3-0.3,0.7-0.5,1c-0.5,0.5-0.2,1,0,1.5c0,0.2,0,0.5,0,0.7c0,0.2,0,0.3-0.2,0.4
				c-0.3-0.2-0.4-0.6-0.8-0.5c-0.3-0.4,0.1-1.6-1-0.8c0-0.3,0-0.6,0.3-0.8c0.5,0,0.7-0.3,0.8-0.8c0-0.1,0-0.2,0-0.2
				c0.1-0.1,0.2-0.2,0.3-0.3C38.9,37.5,39.3,37.4,39.8,37.3z"/>
			<path class="st5" d="M30.7,41.1c0,0.3,0.2,0.6,0.5,0.6c-0.1,0.8-0.5,1.5-0.8,2.3c-0.2,0.3-0.4,0.6-0.8,0.4
				c-0.5-0.2-0.5-0.5-0.2-0.9C29.8,42.6,30.3,41.9,30.7,41.1z"/>
			<path class="st10" d="M40.3,23.1c0-0.4,0.2-0.8,0.7-0.7c0.6,0,0.8-0.5,1.2-0.8c0.1,0.2,0.2,0.3,0.2,0.5c0.1,0.3,0.2,0.5,0.3,0.8
				c0,0.1,0,0.2,0,0.3c-0.5,0-0.5,0.3-0.3,0.7c0.4,0.7,0.1,1.1-0.5,1.4C41.8,24.1,41.6,23.2,40.3,23.1z"/>
			<path class="st3" d="M27.6,35.2c0.8,0.7,0.7,1.3,0,2c-1,0.2-1.5-0.5-2.2-1.1c0-0.1,0.1-0.1,0.1-0.2c0.4-0.1,0.8,0.5,1.2,0.1
				c0.2-0.3-0.1-0.6-0.1-0.8C27,35,27.3,35.2,27.6,35.2z"/>
			<path class="st11" d="M28.9,38.6c0.1,0.3,0.3,0.6,0.2,1c-1.1,0.3-1.2,1.7-2.4,2.1c0.4-1.4,1.6-2.3,1.5-3.6
				C28.9,37.6,28.9,38.1,28.9,38.6z"/>
			<path class="st2" d="M34.3,17.1c0.1,0,0.2,0,0.3,0c0,0.3,0,0.6,0.3,0.8c-0.1,0.3-0.2,0.5-0.3,0.8c-0.2,0-0.3,0-0.5,0
				c-0.1-0.9-0.7-0.1-1-0.3l0,0c0-0.5-0.2-1.1-0.4-1.6c-0.2-0.4-0.3-0.8,0.4-0.7C33.3,16.7,33.4,17.4,34.3,17.1z"/>
			<path class="st11" d="M23.2,34.2c-0.6-0.5-1-1.2-1-2c0-0.1,0-0.1,0.1-0.1c0.1-0.1,0.2-0.3,0.4-0.4c0.2-0.1,0.3-0.2,0.5-0.3
				c0.1,0.1,0.2,0.3,0.3,0.4c-0.9,0.6,0,0.7,0.3,1c0.3,0.2,0.8,0.2,0.5,0.8l0,0C23.9,33.8,23.4,33.5,23.2,34.2L23.2,34.2z"/>
			<path class="st5" d="M14.2,23.9c0.1,0.5,0.8,0.4,1,0.7c-0.2,0.2-0.4,0.3-0.5,0.5c-0.2,0.9-0.7,0.8-1.3,0.4
				c-0.1-0.3-0.2-0.6-0.2-0.9c0-0.4,0.3-0.5,0.5-0.7C13.9,23.9,14,23.9,14.2,23.9z"/>
			<path class="st4" d="M40.8,38.9c0.5-0.3,1.2-0.5,1.1-1.4c-0.1-0.4,0.4-0.5,0.7-0.5c0,0.1,0,0.2,0,0.3c-0.1,0.5-0.2,0.9-0.2,1.4
				c0,0.4-0.2,0.8-0.6,0.9C41.3,39.6,40.8,39.5,40.8,38.9z"/>
			<path class="st5" d="M32.8,40.9c0-0.2,0-0.3,0-0.5c0.6-0.1,0.5,0.8,1,0.8c0.1,0.5-0.6,1.5,0.7,1.3c-0.3,0.5-0.7,0.9-1.4,0.6
				c-0.7-0.4-0.3-0.9-0.1-1.3C33.1,41.4,32.9,41.2,32.8,40.9z"/>
			<path class="st4" d="M38.2,40.4c0.4,0,0.5,0.4,0.8,0.5c-0.7,1.3-1.2,1.4-2.2,0.4c0.1-0.1,0.2-0.3,0.3-0.4
				C37.6,40.8,37.8,40.4,38.2,40.4z"/>
			<path class="st2" d="M31.8,19.5c-0.3,0.3-0.7,0-1,0c-0.1-0.9,0.6-1.5,1.4-1.2c0.3,0.1,0.6,0.3,0.9,0.1c0,0,0,0,0,0
				c-0.1,0.3-0.2,0.5-0.3,0.8C32.4,19.3,32,19.1,31.8,19.5z"/>
			<path class="st12" d="M43.9,35.2c0.8,0.2,0.9-0.7,1.3-1c0.8,0,0.8,0.4,0.5,1c-0.5,0.7-1.1,1-1.9,0.9c0-0.2,0-0.5-0.1-0.7
				C43.8,35.3,43.9,35.3,43.9,35.2z"/>
			<path class="st5" d="M34.6,15.9c-0.2,0.1-0.4,0.2-0.5,0.3c-0.4,0-0.6-0.5-0.9-0.6c0-0.5,0-1,0.6-0.9
				C34.3,14.7,34.7,15.2,34.6,15.9z"/>
			<path class="st11" d="M21.4,28.5c0.2,0,0.4,0,0.6,0c0,0.3,0,0.6,0.1,0.9c-0.4,0.4-0.8,0.8-1.2,0.3C20.3,29,20.8,28.7,21.4,28.5z"
				/>
			<path class="st3" d="M21.7,24.1c-0.1,0-0.2,0-0.3,0c-0.5-0.6-0.8-1.2,0.4-1.3c0.2,0,0.3-0.3,0.4-0.4c0.2,0,0.3,0,0.5,0
				c0,0.3,0,0.5,0,0.8C22.1,23.1,22,23.7,21.7,24.1z"/>
			<path class="st5" d="M35.9,41.2c-0.2,0.6-0.7,1.1-1.3,1.3c0-0.2,0-0.4,0-0.6c0.1-0.2,0.2-0.3,0.3-0.5c0.2-0.4-0.1-0.3-0.3-0.3
				c0-0.2,0-0.3,0-0.5c0.3,0,0.7,0,1,0c0.1,0,0.2,0,0.3,0.1C35.9,40.9,35.9,41.1,35.9,41.2z"/>
			<path class="st3" d="M25.5,36.1c-0.9,0.1-1.4-0.2-1.1-1.2c0,0,0,0,0,0c0.4,0,0.6-0.2,0.8-0.5c0.1,0,0.2,0,0.3,0
				c0,0.2,0,0.4,0.2,0.5c0,0.3,0,0.7,0,1C25.5,36,25.5,36.1,25.5,36.1z"/>
			<path class="st2" d="M43.7,35.3c0,0.2,0,0.5,0.1,0.7c-0.1,0.7-0.7,1-1.2,1.3c0-0.1,0-0.2,0-0.3c0.1-0.2,0.2-0.5,0.3-0.7
				C43,35.2,43.1,35.1,43.7,35.3z"/>
			<path class="st7" d="M34.6,41.9c0,0.2,0,0.4,0,0.6c0,0-0.1,0-0.1,0c-1.3,0.2-0.6-0.8-0.7-1.3c0.3,0,0.5,0,0.8,0
				c0.2,0.1,0.5-0.1,0.3,0.3C34.7,41.6,34.6,41.8,34.6,41.9z"/>
			<path class="st11" d="M25.3,34.5c-0.1,0-0.2,0-0.3,0c-0.4,0-0.8-0.1-0.8,0.5c0,0,0,0,0,0c-0.3,0-0.5,0-0.8-0.1
				c-0.1-0.2-0.2-0.4-0.3-0.7c0,0,0.1-0.1,0.1-0.1c0.4,0,0.9,0.2,1-0.5c0,0,0,0,0,0C24.6,33.9,25,34.2,25.3,34.5z"/>
			<path class="st12" d="M33.1,15.5c0.4,0.1,0.5,0.6,0.9,0.6c0.1,0.3,0.3,0.6,0.2,1c-0.8,0.3-0.9-0.5-1.2-0.9
				C33.1,16,33.1,15.8,33.1,15.5z"/>
			<path class="st8" d="M14.2,20c0,0.3,0,0.5,0,0.8c0,0,0,0,0,0c-0.4,0-0.9,0-1.3,0c-0.1-0.2-0.2-0.4-0.3-0.5c0.3-0.2,0.7-0.4,1-0.7
				C13.8,19.7,14,19.9,14.2,20z"/>
			<path class="st6" d="M35.9,41.2c0-0.2,0-0.3,0-0.5c0.5-0.1,0.7-0.7,1.3-0.6c0,0.3,0,0.5,0,0.8c-0.1,0.1-0.2,0.3-0.3,0.4
				C36.6,41,36.2,41.1,35.9,41.2z"/>
			<path class="st12" d="M45.7,27.5c-0.2-0.5-0.9-0.8-0.7-1.6C45.7,26.2,46.3,26.6,45.7,27.5z"/>
			<path class="st6" d="M39.2,39.9c-0.2-0.5-0.5-1,0-1.5c0,0.4,0.2,0.6,0.5,0.8c0,0.2,0,0.4,0,0.6c0.1,0.2,0,0.4-0.2,0.5
				C39.5,40.1,39.4,40,39.2,39.9z"/>
			<path class="st5" d="M12.1,24.7c0,0.3,0.1,0.6-0.2,0.8c-0.2-0.2-0.4-0.4-0.6-0.6c0-0.2,0-0.4,0-0.6
				C11.6,24.3,11.9,24.5,12.1,24.7z"/>
			<path class="st8" d="M22.7,22.3c-0.2,0-0.3,0-0.5,0c-0.1-0.1-0.1-0.3-0.2-0.4c0.5-0.1,1,0.1,1.4-0.1
				C23.5,22.3,23.1,22.3,22.7,22.3z"/>
			<path class="st12" d="M45.2,33.4c-0.3-0.3-0.2-0.7-0.3-1C45.6,32.6,45.5,33,45.2,33.4z"/>
			<path class="st4" d="M23.4,30.4c0.3,0,0.5,0.2,0.5,0.4c0,0.4-0.4,0.3-0.6,0.3C23.4,30.8,23.4,30.6,23.4,30.4z"/>
			<path class="st10" d="M22.7,31.7c-0.1,0.1-0.2,0.3-0.4,0.4c0-0.3-0.1-0.5-0.1-0.8l0,0C22.4,31.5,22.5,31.6,22.7,31.7z"/>
			<path class="st12" d="M45.2,31.6c0-0.3,0.2-0.4,0.5-0.5C46.1,31.8,45.5,31.5,45.2,31.6z"/>
			<path class="st4" d="M21.9,25.6c0,0.4-0.1,0.6-0.6,0.6C21.5,26,21.7,25.8,21.9,25.6z"/>
			<path class="st4" d="M39.8,39.8c0-0.2,0-0.4,0-0.6c0.1,0,0.2,0,0.3,0C40,39.4,40.1,39.6,39.8,39.8z"/>
			<path class="st4" d="M39.2,39.9c0.1,0.1,0.2,0.3,0.3,0.4c-0.1,0.1-0.2,0.2-0.3,0.3C39.3,40.3,39.3,40.1,39.2,39.9z"/>
			<polygon class="st10" points="22.2,31.4 22.2,31.3 22.2,31.4 			"/>
			<path class="st8" d="M22.3,20.9c-0.1,0-0.3,0-0.4,0.1C22,20.7,22.2,20.8,22.3,20.9z"/>
			<path class="st11" d="M38.5,24.9c0.2,0,0.3,0,0.5,0c0.3,0.8,0.3,1.4-0.6,1.9c-0.9,0.5-0.4,1,0.4,1.2v0c-0.2,0.5-0.3,1-0.5,1.5
				c-0.8,0.5-1.5,1.3-2.1,2.1c-0.5,0.1-0.9-0.3-1.3-0.5c0-0.3-0.2-0.5-0.5-0.5c-0.2,0-0.3,0-0.5,0c0-0.2,0-0.3,0-0.5
				c-0.1-0.3-0.1-0.6-0.2-0.9c-0.2-0.7-1-1.3-0.2-2.2c0.2-0.2-0.3-0.7-0.5-0.9c-0.3-0.3-0.6,0-0.9,0.2c-0.9,0.6-1.4,1.4-0.8,2.5
				c-0.3,0-0.7,0-1,0c-0.2-0.4-0.1-1.2-0.7-1.2c-0.7,0-0.7,0.7-0.9,1.2c-0.2,0.6-0.2,1.2,0,1.8c-0.3,0-0.5,0-0.8,0
				c-0.4-0.5-0.6-1.3-1.6-1c-0.2,0-0.3,0-0.5,0c0.1-0.8,0.7-1.3,1.3-1.7c0.9-0.6,1.3-1.4,0.8-2.5c0.1-0.5,0.4-0.6,0.7-0.5
				c0.4,0.2,0.8,0,1.2-0.2c1.4-0.4,2.3-1.4,3.4-2.3c-0.3-0.3-0.7-0.5-1.2-0.4c0-0.1,0-0.2,0-0.3c0.4-0.2,0.9-0.3,1.3-0.5
				c0.6,0.2,0.5,1.1,1.3,1c0.1,0,0.2,0,0.3,0c0.1,0.3,0.4,0.5,0.7,0.5c0.3,0.1,0.4,0.4,0.2,0.5c-0.9,0.3-0.8,1.2-1.3,1.8
				c-0.6,0.7-0.3,1.3-0.1,2c0.2,0.6,0.9,0.5,1,0.3c0.5-1,1.4-0.9,2.3-1.2c0.4-0.1,0.6-0.4,0.6-0.8c0-0.2,0-0.3,0-0.5
				C38.3,24.9,38.4,24.9,38.5,24.9z"/>
			<path class="st13" d="M42.9,31.6c0.3,0.8-0.2,1.7,0,2.5c-0.6,0.2-0.9-0.7-1.5-0.5c-0.1-0.4,0.3-1.1-0.5-1.2
				c-0.5,0-0.6,0.5-0.6,0.9c-0.5,0.1-0.5,0.4-0.5,0.8c-0.2,0-0.3,0-0.5,0c-0.1,0-0.2,0-0.2,0c0-0.7-1-0.4-1.1-1c0.3,0,0.6,0,0.8-0.3
				c0.6,0,1-0.1,1-0.8c0.1-0.4,0.2-0.9,0.5-1.3c0.1,0,0.2,0,0.3,0c0.2,0.7,0.6,0.6,1,0.3C42.1,31,42.5,31.2,42.9,31.6z"/>
			<path class="st3" d="M38.7,32.9c-0.2,0.3-0.5,0.3-0.8,0.3c-0.2,0-0.3,0-0.5,0c-0.4-0.5-0.9-1-1.3-1.5c0.6-0.8,1.2-1.5,2.1-2.1
				c0.4,0.1,0.6,0.6,1,0.5c-0.1,0.5,0.3,1.3-0.8,1.3c0-0.2,0-0.4-0.3-0.4c0,0-0.1,0.1-0.1,0.1c0,0.3,0.2,0.3,0.4,0.3
				C38.4,31.9,38.7,32.4,38.7,32.9z"/>
			<path class="st10" d="M42.9,31.6c-0.3-0.4-0.8-0.6-1.3-0.5c0.2-1.1,1-1.5,1.9-1.8c0.7-0.3,0.9,0.6,1.4,0.8
				c0.3,0.1-0.1,0.6-0.4,0.8C44,31.2,43.6,31.7,42.9,31.6z"/>
			<path class="st10" d="M43.7,35.3c-0.6-0.2-0.7-0.1-0.8,1c-0.5,0.2-1,0.2-1.5,0c0.3-0.7-0.8-0.7-0.8-1.3c0.5,0.1,1.1,0.5,1-0.5
				c0.5-0.1,1.2,0.8,1.5-0.3c0.1,0,0.2,0,0.3,0c0.1,0.2,0.3,0.3,0.5,0.3c0,0.2,0,0.5,0,0.7C43.9,35.3,43.8,35.3,43.7,35.3z"/>
			<path class="st11" d="M38.5,31.4c1.1,0.1,0.7-0.7,0.8-1.3c0.1,0,0.2,0,0.3,0c0.1,0,0.2,0,0.3,0c0.2,0.3,0.3,0.5,0.5,0.8
				c-0.3,0.4-0.4,0.8-0.5,1.3c-0.1,0.7-0.5,0.8-1,0.8C38.7,32.4,38.4,31.9,38.5,31.4L38.5,31.4z"/>
			<path class="st13" d="M43.9,34.5c-0.2,0-0.4,0-0.5-0.3c0.2-0.7-0.2-1.8,1.1-2C44.3,33,44.8,33.8,43.9,34.5z"/>
			<path class="st5" d="M40.3,23.1c1.3,0.1,1.5,1,1.5,2.1c-0.5-0.6-1-1.2-1.5-1.8C40.3,23.3,40.3,23.2,40.3,23.1z"/>
			<path class="st10" d="M39.5,22.1c0.1,0.3,0.2,0.7,0.3,1c0,0.1,0,0.2,0,0.3c-0.2,0-0.3,0-0.5,0c-0.1-0.3-0.4-0.5-0.8-0.5
				c0-0.4,0.3-0.7,0.5-1C39.2,21.9,39.3,22,39.5,22.1z"/>
			<path class="st7" d="M43.1,34.2c-0.4,1-1,0.2-1.5,0.3c-0.3-0.2-0.3-0.5-0.3-0.8c0.6-0.1,0.9,0.7,1.5,0.5
				C43,34.2,43,34.2,43.1,34.2z"/>
			<path class="st5" d="M38.5,22.8c0.4,0,0.6,0.2,0.8,0.5c0,0.3,0.2,0.5,0.5,0.5c0,0.3,0,0.5,0,0.8l0,0c-0.3,0-0.5,0-0.8,0
				C39,24,38.7,23.4,38.5,22.8z"/>
			<path class="st5" d="M39.8,30.1c-0.1,0-0.2,0-0.3,0c0.1-0.3-0.2-1,0.4-0.9c0.5,0,0.3,0.6,0.3,0.9C40.1,30.1,39.9,30.1,39.8,30.1z
				"/>
			<path class="st11" d="M38.7,28c0-0.3-0.1-0.8,0.5-0.7c0.3,0,0.3,0.3,0.3,0.5C39.4,28.4,39,28.1,38.7,28L38.7,28z"/>
			<path class="st11" d="M39.8,24.6c0.3,0,0.6-0.1,0.7,0.3c0,0.2-0.1,0.4-0.3,0.3C39.9,25.3,39.8,25,39.8,24.6
				C39.8,24.6,39.8,24.6,39.8,24.6z"/>
			<path class="st3" d="M39.8,30.1c0.2,0,0.3,0,0.5,0c0.3,0.2,0.3,0.5,0.3,0.8c-0.1,0-0.2,0-0.3,0C40.1,30.6,39.9,30.3,39.8,30.1z"
				/>
			<path class="st5" d="M42.6,23.1c0-0.1,0-0.2,0-0.3c0.2,0.1,0.5,0.2,0.4,0.5c0,0-0.2,0.1-0.2,0.1C42.8,23.4,42.7,23.2,42.6,23.1z"
				/>
			<path class="st11" d="M40.7,25.8c0.1,0,0.2,0,0.2,0.1c0,0.1-0.1,0.1-0.1,0.2c-0.1,0-0.2,0-0.2-0.1C40.6,25.9,40.7,25.9,40.7,25.8
				z"/>
			<path class="st3" d="M39.8,23.9c-0.3,0-0.5-0.2-0.5-0.5c0.2,0,0.3,0,0.5,0C39.8,23.5,39.8,23.7,39.8,23.9z"/>
			<path class="st13" d="M39.5,22.1c-0.2-0.1-0.3-0.2-0.5-0.3c0-0.1,0-0.2,0-0.3c0,0,0-0.1,0.1-0.1c0,0,0,0.1-0.1,0.1
				c-0.7,0.5-1.4-0.2-2.1-0.1c-0.2,0-0.5-0.5-0.6-0.8c-0.1-0.4,0.4-0.5,0.7-0.6c0.2,0.3,0.2,0.8,0.7,0.8c0.1-0.5,0.2-1,0.8-0.8
				C39.2,20.5,39.7,21.1,39.5,22.1z"/>
			<path class="st8" d="M38.5,20c-0.7-0.1-0.8,0.3-0.8,0.8c-0.5-0.1-0.5-0.6-0.7-0.8c0.3-0.7,1-1.3,0-2.1c1.6,0.1,2.3,0.7,2.1,1.8
				C38.8,19.7,38.6,19.8,38.5,20z"/>
			<path class="st5" d="M33.3,21.3c-0.4,0.2-0.9,0.3-1.3,0.5c-0.4-0.6,0.4-0.8,0.5-1.2c0.1-0.4,0.7-0.8,0.3-1.3
				c0.1-0.3,0.2-0.5,0.3-0.8c0.3,0.1,0.9-0.7,1,0.3c-0.3,0.6,0,1.3-0.5,1.8C33.3,20.7,33.3,21,33.3,21.3z"/>
			<path class="st4" d="M33.6,20.5c0.5-0.5,0.2-1.2,0.5-1.8c0.2,0,0.3,0,0.5,0c0.3,0.1,0.9,0,0.6,0.4C34.8,19.7,34.5,20.6,33.6,20.5
				z"/>
			<path class="st4" d="M34.9,22.3c-0.1,0-0.2,0-0.3,0c-0.1-0.3-0.2-0.7-0.2-1c0-0.4,0.3-0.5,0.6-0.5c0.2,0,0.6,0,0.7,0.1
				c0.3,0.3,0,0.5-0.2,0.7C35.3,21.9,35.3,22.3,34.9,22.3z"/>
			<path class="st5" d="M38.5,24.9c-0.1,0-0.2,0-0.2,0c-0.3,0-0.6-0.1-0.8,0.2c-0.5,0-0.5-0.4-0.5-0.8c0.6,0,0.8-0.6,1.3-0.8
				C38.3,24,38.4,24.5,38.5,24.9z"/>
			<path class="st11" d="M38.2,23.6c-0.5,0.2-0.7,0.8-1.3,0.8c-0.5-0.4-0.3-0.8,0.2-1C37.5,23.3,38,22.7,38.2,23.6z"/>
			<path class="st4" d="M34.9,17.9c-0.3-0.2-0.2-0.5-0.3-0.8C35.2,17.3,35.3,17.5,34.9,17.9z"/>
			<path class="st2" d="M37.5,25.2c0.2-0.3,0.5-0.3,0.8-0.2c0,0.2,0,0.3,0,0.5C37.9,25.4,37.6,25.5,37.5,25.2z"/>
			<path class="st11" d="M36.5,22.7c0,0-0.1,0.1-0.1,0.1c0,0-0.1,0-0.1-0.1C36.4,22.7,36.5,22.7,36.5,22.7z"/>
			<path class="st10" d="M26.8,22.3c0.1-0.8,0.3-1.4,1.1-1.6c0.7-0.2,0.9,0.2,1.2,0.6c-0.2,1.2,1.2,0.9,1.6,1.6
				c-0.2,0.7-0.4,1-1,0.3c-0.5-0.5-1-0.5-1.6-0.1c-0.3-0.1-0.5-0.2-0.8-0.3C27.2,22.6,27,22.5,26.8,22.3z"/>
			<path class="st10" d="M32.8,19.2c0.4,0.6-0.2,0.9-0.3,1.3c-0.1,0.4-0.9,0.6-0.5,1.2c0,0.1,0,0.2,0,0.3c0,0.4-0.2,0.6-0.5,0.8
				c-0.3-1-1.3-1.1-2.1-1.5c0-0.3,0-0.5,0-0.8c0.1-0.1,0.2-0.2,0.3-0.3c0.7-0.3,1.5,0.4,2.2-0.2c0.5-0.4,0.2-0.4-0.2-0.5
				C32,19.1,32.4,19.3,32.8,19.2z"/>
			<path class="st8" d="M26.8,22.3c0.2,0.2,0.4,0.3,0.5,0.5c-0.3,0.4-1.1,0.4-1.1,1.1c-0.5-0.5-1.7,0.2-1.8-1c0-0.6,0.3-1.4-0.8-1.3
				c0.3-0.5,0.7-0.8,1.3-0.8c0.8,0.1,0.2,0.8,0.5,1.1c0.1,0.1,0.2,0.2,0.3,0.2c0.1,0.1,0.2,0.2,0.3,0.3
				C26.3,22.3,26.6,22.3,26.8,22.3z"/>
			<path class="st5" d="M23.7,21.6c1.1-0.1,0.8,0.7,0.8,1.3c-0.2,0-0.3,0-0.5,0c-1-0.4-0.3,0.5-0.5,0.8c-0.2,0.2-0.4,0.2-0.5,0
				c0.1-0.3,0.2-0.5-0.3-0.5c0-0.3,0-0.5,0-0.8c0.4,0,0.8,0,0.8-0.6C23.6,21.7,23.7,21.6,23.7,21.6z"/>
			<path class="st8" d="M29.4,21.3c0.7,0.5,1.7,0.6,2.1,1.5c-0.3,0-0.5,0-0.8,0c-0.3-0.7-1.8-0.3-1.6-1.6
				C29.3,21.3,29.4,21.3,29.4,21.3z"/>
			<path class="st1" d="M29.7,20.2c-0.1,0.1-0.2,0.2-0.3,0.3c0-0.1-0.1-0.2-0.1-0.3C29.4,20.2,29.6,20.2,29.7,20.2z"/>
			<path class="st10" d="M26.1,22.3c-0.1-0.1-0.2-0.2-0.3-0.3C25.9,22.1,26,22.2,26.1,22.3z"/>
			<path class="st1" d="M29,19.6c0.1,0.1,0.2,0.2,0.2,0.3c-0.1,0.2-0.3,0.1-0.4,0C28.9,19.8,29,19.7,29,19.6z"/>
			<path class="st7" d="M12.1,24.7c-0.3-0.2-0.5-0.3-0.8-0.5c-0.5-0.3,0.1-0.7,0-1c0.1-0.2,0.3-0.3,0.5-0.3c0.6,0.4,1.6,0.1,1.8,1.1
				c-0.2,0.2-0.6,0.3-0.5,0.7C12.8,24.6,12.5,24.6,12.1,24.7z"/>
			<path class="st7" d="M12.7,20.3c0.1,0.2,0.2,0.4,0.3,0.5c0,0.3,0,0.7,0,1c-0.1,0.1-0.2,0.2-0.3,0.3c-0.6,0-0.5-1.1-1.3-0.8l0,0
				C11.3,20.3,11.9,20.2,12.7,20.3z"/>
			<path class="st9" d="M11.9,22.8c-0.2,0-0.4,0.1-0.5,0.3c-0.1,0-0.2-0.1-0.2-0.1c-1.2-1.1-1.2-1.1,0.2-1.7c0,0,0,0,0,0
				C11.4,21.9,12.1,22.2,11.9,22.8z"/>
			<path class="st2" d="M27.9,25.4c0.5,1.1,0.2,1.8-0.8,2.5c-0.6,0.4-1.2,0.9-1.3,1.7c0,0.1,0,0.2,0,0.3c-0.1-0.1-0.2-0.2-0.3-0.3
				c-0.2-0.8-0.3-1.7-0.2-2.6c0.5-0.6,1.4-0.8,1.8-1.6C27.4,25.4,27.6,25.4,27.9,25.4z M27.4,26.2c0,0,0,0.1-0.1,0.1
				C27.3,26.3,27.4,26.2,27.4,26.2c0,0,0-0.1,0.1-0.1C27.4,26.1,27.4,26.2,27.4,26.2z"/>
			<path class="st8" d="M27.1,25.4c-0.4,0.7-1.3,0.9-1.8,1.6c-0.4-0.3-1-0.4-1.1-1c0.2-0.2,0.6-0.2,0.7-0.7
				c-0.3,0.1-0.6,0.1-0.9,0.1c0.3-0.6-0.3-1-0.3-1.5c0.5,0,1-0.1,1.3,0.4c0.4,0.8,0.9,0.2,1.3,0.1C26.2,25.1,26.8,25.1,27.1,25.4z"
				/>
			<path class="st9" d="M24,25.4c0.3,0,0.6-0.1,0.9-0.1c0,0.5-0.4,0.5-0.7,0.7c-0.1,0.1-0.3,0.2-0.4,0.3c-0.4,1.2-0.7,0.3-0.9-0.1
				c0-0.3,0-0.6,0.3-0.8C23.5,25.4,23.7,25.4,24,25.4z"/>
			<path class="st5" d="M21.7,27c-0.4,0.3-0.8,0.6-1.5,0.3C20.8,26.8,21.3,27,21.7,27L21.7,27z"/>
			<path class="st5" d="M21.7,27c0-0.2,0-0.4,0.3-0.4c0,0,0.1,0.1,0.1,0.1C22.1,26.9,21.9,26.9,21.7,27C21.7,27,21.7,27,21.7,27z"/>
			<path class="st14" d="M12.2,28.2c-0.5-0.3-0.5-0.7-0.5-1.2c0-0.4,0.3-0.6,0.7-0.5c0.6,0.1,0.5,0.6,0.5,1
				C12.9,28,12.7,28.2,12.2,28.2z"/>
			<polygon class="st1" points="13.1,26.1 13,26 13.1,26 			"/>
			<path class="st14" d="M11.9,22.8c0.2-0.6-0.5-1-0.5-1.5c0.8-0.3,0.7,0.8,1.3,0.8c0.1,0.2,0.3,0.3,0.5,0.2c0.2,0,0.5,0,0.7,0
				c0.3,0.5,0.3,1.1,0.3,1.6c-0.2,0-0.3,0-0.5,0C13.4,23,12.4,23.3,11.9,22.8z"/>
			<path class="st4" d="M13.9,22.3c-0.2,0-0.5,0-0.7,0c-0.1-0.2-0.2-0.3-0.3-0.5c0-0.3,0-0.7,0-1c0.4,0,0.9,0,1.3,0
				C14.3,21.3,14.3,21.8,13.9,22.3z"/>
			<path class="st3" d="M36.2,37.8c-0.5-0.1-1,0.1-1.5,0.3c-0.4,0.2-0.8,0.3-1-0.2c-0.7-1.2-1.3-0.7-1.9,0.1
				c-0.4-0.3-0.8-0.6-1.1-1.1c0-0.1,0-0.2,0-0.2c1.4,0.2,1.6-0.8,1.8-1.8c0.3-0.4,0.6-0.9,0.9-1.4c0.3,0.5-0.2,0.9-0.1,1.4
				c0.1,0.5,0.5,0.7,0.9,0.7c0.3,0,0.4-0.3,0.3-0.5c-0.9-0.8,0.1-1.2,0.3-1.8c0.6,0.1,1.1-0.1,1.8,0.2c-1.3,0.5-1.7,1.1-1,1.5
				c0.7,0.4,0.7,1.1,1,1.7c0,0.2,0,0.5,0,0.7C36.5,37.7,36.3,37.7,36.2,37.8z"/>
			<path class="st14" d="M36.2,37.8c0.2-0.1,0.3-0.2,0.5-0.3c0.3,0.2,0.4,0.6,0.8,0.5l0,0c0,0.3,0,0.5,0,0.8
				c-0.3,0.2-0.2,0.5-0.3,0.8c0,0.2,0,0.3,0,0.5c-0.6-0.1-0.8,0.5-1.3,0.6c-0.1,0-0.2,0-0.3-0.1c-0.1-0.2-0.2-0.5-0.2-0.7
				c0-0.4,0-1.1-0.6-0.5c-0.6,0.6-1.1,0.4-1.7,0.4c-0.4-0.9-0.6-1.5,0.9-1.1c0.7,0.2,1.5,0.1,2.2-0.2c0,0.2,0,0.3,0,0.5
				c-0.1,0.1-0.3,0.1-0.1,0.3c0-0.1,0.1-0.2,0.1-0.3c0.2,0,0.6,0.1,0.6-0.2c0-0.4-0.4-0.3-0.6-0.3C36.2,38.3,36.2,38.1,36.2,37.8z"
				/>
			<path class="st6" d="M30.7,37c0.3,0.4,0.6,0.8,1.1,1.1c-0.1,0.3,0.5,0.7,0,1c-0.2,0-0.4,0-0.5-0.2c0-0.1,0-0.4-0.2-0.3
				c-0.1,0-0.2,0.2-0.3,0.3c-0.3-0.1-0.7-0.2-1-0.3c-0.2-0.6,0.7-0.9,0.5-1.6C30.4,37,30.5,37,30.7,37z"/>
			<path class="st15" d="M33,39.9c0.6-0.1,1.2,0.1,1.7-0.4c0.6-0.6,0.6,0.1,0.6,0.5c-0.5,0-0.6,0.4-0.8,0.7c0,0.2,0,0.3,0,0.5
				c-0.3,0-0.5,0-0.8,0c-0.5,0-0.4-0.9-1-0.8C32.8,40.2,32.8,40,33,39.9z"/>
			<path class="st15" d="M39,34.2c0.1,0,0.2,0,0.2,0c-0.1,0.3,0.4,0.6,0,1c-0.9,0.9-0.5,1.2,0.5,1.3c0.1,0.1,0.1,0.1,0.2,0.2
				c0.3,0.2,0.9,0,0.8,0.5c-0.2,0.6-0.6-0.1-1,0.1c-0.4,0.1-0.9,0.2-1.3,0.2c0,0,0,0,0,0c-0.1-0.1,0.1-0.5-0.3-0.3
				c-0.2,0-0.3,0-0.5,0c-0.1-0.2-0.2-0.3-0.3-0.5c0-0.4,0-0.9,0-1.3C38,35.1,38.5,34.6,39,34.2z"/>
			<path class="st16" d="M39.8,36.5c-1-0.1-1.5-0.5-0.5-1.3c0.4-0.4-0.1-0.7,0-1c0.2,0,0.3,0,0.5,0c0.6,0,0.6-0.4,0.5-0.8
				c0-0.4,0.1-1,0.6-0.9c0.8,0.1,0.3,0.8,0.5,1.2c0,0.3-0.1,0.6,0.3,0.8c0.1,1-0.6,0.6-1,0.5c-0.7,0-0.8,0.5-0.8,1
				C39.8,36.2,39.8,36.4,39.8,36.5z"/>
			<path class="st5" d="M39.8,36c0-0.5,0.1-1,0.8-1c0,0.6,1,0.6,0.8,1.3C40.7,36.9,40.3,36.1,39.8,36z"/>
			<path class="st10" d="M24.5,31.8c0.1-0.6,0.5-0.8,1.1-0.7c0.3,0.2,0.6,0.3,1,0.3c0.4,0.4,0.8,0.2,1.3,0.2l0,0
				c-0.2,0.4-0.2,1.2-1.1,0.9c-0.2-0.1-0.5,0.3-0.7,0.4c-0.1,0-0.2,0-0.3,0C25.6,32.3,25.3,31.8,24.5,31.8z"/>
			<path class="st2" d="M26.6,31.4c-0.4,0-0.7-0.1-1-0.3c0.1-0.3,0.2-0.7,0.2-1c0.3,0,0.5-0.2,0.5-0.5c0.9-0.3,1.1,0.6,1.6,1
				c0,0.1,0,0.2,0,0.3C27.3,30.6,26.8,30.6,26.6,31.4z"/>
			<path class="st4" d="M24.5,31.8c0.8-0.1,1.1,0.5,1.3,1.1c-0.1,0.1-0.2,0.2-0.3,0.3c-0.4,0-0.6-0.2-0.8-0.5
				c-0.5-0.7-0.8-0.4-1,0.3c-0.3-0.3-1.2-0.4-0.3-1C23.8,31.9,24.2,31.9,24.5,31.8z"/>
			<path class="st5" d="M26.3,29.6c0,0.3-0.2,0.5-0.5,0.5c0-0.1,0-0.1,0-0.2c0-0.1,0-0.2,0-0.3C26,29.6,26.2,29.6,26.3,29.6z"/>
			<path class="st10" d="M23.8,32.9c0.2-0.6,0.5-1,1-0.3c0.2,0.3,0.4,0.5,0.8,0.5c0,1.1,1.2,0.8,1.6,1.5c0.2-0.5-0.4-1.1,0.4-1.2
				c-0.1,1.5,0.6,0.8,1.3,0.5c-0.3,0.5,0.2,1.1,0,1.6c-0.4-0.2-0.8-0.3-1.3-0.3c-0.3,0-0.7-0.3-1,0c-0.4,0.1-0.6-0.6-1.1-0.3
				c-0.2-0.1-0.2-0.3-0.2-0.5c-0.3-0.3-0.7-0.5-1-0.8C24.6,33.1,24,33.1,23.8,32.9z"/>
			<path class="st5" d="M28.9,35.5c0.2-0.5-0.3-1.1,0-1.6c0.1-0.2,0.2-0.3,0.3-0.5c1,0.5,1.8-0.2,2.6-0.5c0,0.1,0,0.2,0,0.3
				c-0.1,0.3-0.2,0.5-0.3,0.8c-1.1,0-1,0.8-1,1.6c-0.6-0.1-0.8,0.2-0.8,0.8C29.1,36.3,28.9,36,28.9,35.5z"/>
			<path class="st9" d="M29.7,36.3c0-0.6,0.2-0.8,0.8-0.8c0.1,0.2,0.3,0.2,0.5,0.3c-0.1,0.3-0.2,0.7-0.3,1c0,0.1,0,0.2,0,0.2
				c-0.2,0-0.3,0-0.5,0C30,36.8,29.9,36.5,29.7,36.3z"/>
			<path class="st16" d="M26.3,24.4c-0.4,0.1-0.9,0.7-1.3-0.1c-0.2-0.5-0.8-0.4-1.3-0.4c0-0.1,0-0.2,0-0.3c0.1-0.3,0.2-0.5,0.3-0.8
				c0.2,0,0.3,0,0.5,0c0,1.3,1.3,0.6,1.8,1C26.3,24.1,26.3,24.2,26.3,24.4L26.3,24.4z"/>
			<path class="st8" d="M22.7,23.1c0.4,0,0.4,0.2,0.3,0.5c-0.5,0-0.7,0.7-1.3,0.5C22,23.7,22.1,23.1,22.7,23.1z"/>
			<path class="st8" d="M24.1,22.9c-0.1,0.3-0.2,0.5-0.3,0.8c0,0-0.1,0-0.1,0s-0.1,0-0.1,0C23.7,23.4,23,22.5,24.1,22.9z"/>
			<path class="st8" d="M30.7,38.8c0.1-0.1,0.2-0.3,0.3-0.3c0.2,0,0.2,0.2,0.2,0.3C31.1,38.9,30.9,38.9,30.7,38.8z"/>
			<path class="st8" d="M37.2,40.1c0-0.2,0-0.3,0-0.5c1.1-0.8,0.8,0.4,1,0.8c-0.4,0-0.7,0.4-1,0.5C37.2,40.6,37.2,40.4,37.2,40.1z"
				/>
			<path class="st14" d="M37.7,37.3c0.2,0,0.3,0,0.5,0c0,0.1,0,0.2,0,0.3c0,0.1,0,0.2,0,0.3c0,0.1,0,0.2,0,0.2c-0.3,0-0.5,0-0.8,0
				c0,0,0,0,0,0C37.5,37.8,37.6,37.6,37.7,37.3z"/>
			<path class="st16" d="M37.4,38.1c0.3,0,0.5,0,0.8,0c0,0.5-0.3,0.7-0.8,0.8C37.5,38.6,37.5,38.3,37.4,38.1z"/>
			<path class="st15" d="M38.2,37.8c0-0.1,0-0.2,0-0.3c0.1,0,0.2,0,0.3,0c0,0,0,0,0,0C38.4,37.7,38.3,37.7,38.2,37.8z"/>
			<path class="st7" d="M25.6,35c0.5-0.3,0.7,0.3,1.1,0.3c0.1,0.3,0.4,0.6,0.1,0.8c-0.4,0.4-0.8-0.1-1.2-0.1
				C25.6,35.7,25.6,35.3,25.6,35z"/>
			<path class="st10" d="M24.3,33.7c-0.1,0.7-0.6,0.5-1,0.5C23.4,33.5,23.9,33.8,24.3,33.7z"/>
			<path class="st8" d="M34.6,40.7c0.2-0.3,0.2-0.8,0.8-0.7c0.1,0.2,0.2,0.5,0.2,0.7C35.3,40.7,35,40.7,34.6,40.7z"/>
			<path class="st6" d="M34.6,41.9c0-0.2,0-0.4,0.3-0.5C34.8,41.6,34.7,41.8,34.6,41.9z"/>
			<path class="st10" d="M24.3,35c0-0.6,0.4-0.5,0.8-0.5C24.9,34.8,24.7,35,24.3,35z"/>
			<path class="st13" d="M37.5,35.5c0,0.4,0,0.9,0,1.3c-0.2,0-0.5,0-0.7,0c-0.3-0.5-0.3-1.2-1-1.7c-0.7-0.4-0.3-1.1,1-1.5
				c-0.7-0.3-1.2-0.2-1.8-0.2c0,0,0,0,0,0c0-0.8-0.3-1.4-1-1.8c0-0.2,0-0.3,0-0.5c0,0,0,0,0,0c0.2,0,0.3,0,0.5,0c0.2,0,0.3,0,0.5,0
				c0.4,0.2,0.8,0.6,1.3,0.5c0.4,0.5,0.9,1,1.3,1.5c0.2,0.7,0.8,1.3-0.2,1.9C37.3,35.1,37.4,35.3,37.5,35.5z"/>
			<path class="st5" d="M27.1,25.4c-0.3-0.3-1-0.4-0.8-1.1c0,0,0,0,0,0c1.2,0.4,1.8-0.1,1.8-1.3c0.6-0.4,1.1-0.4,1.6,0.1
				c0.6,0.7,0.9,0.3,1-0.3c0.3,0,0.5,0,0.8,0c0.3-0.1,0.5-0.4,0.5-0.8c0.4,0,0.8,0.1,1.2,0.4c-1.1,0.9-2,1.9-3.4,2.3
				c-0.4,0.1-0.7,0.3-1.2,0.2c-0.4-0.1-0.7,0-0.7,0.5C27.6,25.4,27.4,25.4,27.1,25.4z"/>
			<path class="st3" d="M28.7,30.6c-0.2-0.6-0.2-1.2,0-1.8c0.2-0.5,0.2-1.2,0.9-1.2c0.6,0,0.5,0.8,0.7,1.2c0.3,1.2,0.6,1.4,1.4,0.7
				c0.4,0.5-0.1,0.9-0.1,1.4c-0.3,0-0.5,0-0.8,0c0-0.5-0.4-0.8-0.8-0.7c-0.6,0.2-0.2,0.8-0.3,1.2c-0.2,0.4-0.6,0.5-1,0.4
				C28.7,31.4,28.7,31,28.7,30.6z"/>
			<path class="st4" d="M31.3,28.8c-0.6-1.1,0-1.8,0.8-2.5c0.3-0.2,0.6-0.5,0.9-0.2c0.2,0.3,0.7,0.7,0.5,0.9c-0.8,0.9,0,1.5,0.2,2.2
				c0.1,0.3,0.1,0.6,0.2,0.9c-0.3,0-0.8,0-0.8-0.2C32.9,28.7,31.9,29.1,31.3,28.8z"/>
			<path class="st2" d="M31.3,28.8c0.6,0.3,1.6-0.1,1.8,1.1c0,0.3,0.5,0.2,0.8,0.2c0,0.2,0,0.3,0,0.5c0,0.2,0,0.3,0,0.5c0,0,0,0,0,0
				c-0.7-0.2-1.1,0.7-1.8,0.5c-0.2-0.3-0.4-0.5-0.5-0.8c0-0.5,0.5-0.9,0.1-1.4c-0.8,0.7-1,0.6-1.4-0.7
				C30.6,28.8,30.9,28.8,31.3,28.8z"/>
			<path class="st10" d="M28.7,30.6c0,0.4,0,0.8,0,1.3c-0.3-0.1-0.5-0.2-0.8-0.2c0,0,0,0,0,0c0-0.3,0-0.5,0-0.8c0-0.1,0-0.2,0-0.3
				C28.2,30.6,28.4,30.6,28.7,30.6z"/>
			<path class="st2" d="M34.9,31.1c-0.2,0-0.3,0-0.5,0c0-0.2,0-0.3,0-0.5C34.7,30.6,34.9,30.8,34.9,31.1z"/>
			<path class="st3" d="M34.4,30.6c0,0.2,0,0.3,0,0.5c-0.2,0-0.3,0-0.5,0c0-0.2,0-0.3,0-0.5C34,30.6,34.2,30.6,34.4,30.6z"/>
			<path class="st9" d="M37.5,35.5c-0.1-0.2-0.2-0.4-0.2-0.4c1-0.6,0.3-1.3,0.2-1.9c0.2,0,0.3,0,0.5,0c0.1,0.6,1,0.3,1.1,1
				C38.5,34.6,38,35.1,37.5,35.5z"/>
			<path class="st9" d="M40.3,33.4c0,0.4,0.1,0.8-0.5,0.8C39.8,33.8,39.8,33.5,40.3,33.4z"/>
			<path class="st11" d="M38.5,31.4c-0.2,0-0.4,0-0.4-0.3c0,0,0.1-0.1,0.1-0.1C38.5,31,38.4,31.2,38.5,31.4
				C38.5,31.4,38.5,31.4,38.5,31.4z"/>
			<path class="st3" d="M39,21.6c0,0,0-0.1,0.1-0.1C39,21.5,39,21.5,39,21.6C39,21.5,39,21.6,39,21.6z"/>
			<path class="st2" d="M28.2,23.1c0,1.2-0.6,1.7-1.8,1.3c0-0.2,0-0.3,0-0.5c0-0.7,0.7-0.7,1.1-1.1C27.6,22.9,27.9,23,28.2,23.1z"/>
			<path class="st8" d="M12.9,21.8c0.1,0.2,0.2,0.3,0.3,0.5c-0.2,0-0.4,0-0.5-0.2C12.8,22,12.8,21.9,12.9,21.8z"/>
			<path class="st5" d="M27.4,26.2c0,0,0,0.1-0.1,0.1C27.3,26.3,27.4,26.2,27.4,26.2L27.4,26.2z"/>
			<path class="st5" d="M27.4,26.2c0,0,0-0.1,0.1-0.1C27.4,26.1,27.4,26.2,27.4,26.2C27.4,26.2,27.4,26.2,27.4,26.2z"/>
			<path class="st11" d="M31.5,33.9c0.1-0.3,0.2-0.5,0.3-0.8c0.9,0,0.5-1.5,1.5-1.3c0.6,0.5,0.7,1.4,1.5,1.5c0,0,0,0,0,0
				c-0.3,0.6-1.2,1-0.3,1.8c0.1,0.1,0,0.5-0.3,0.5c-0.5,0-0.8-0.2-0.9-0.7c-0.1-0.5,0.4-0.9,0.1-1.4c-0.3,0.5-0.6,0.9-0.9,1.4
				c-0.3-0.1-0.5-0.2-0.8-0.3C31.5,34.5,31.5,34.2,31.5,33.9z"/>
			<path class="st6" d="M31.8,34.7c0.3,0.1,0.5,0.2,0.8,0.3c-0.3,0.9-0.4,2-1.8,1.8c0.1-0.3,0.2-0.7,0.3-1
				C31.3,35.4,31.7,35.2,31.8,34.7z"/>
			<path class="st16" d="M36.7,36.8c0.2,0,0.5,0,0.7,0c0.1,0.2,0.2,0.3,0.3,0.5c-0.1,0.3-0.2,0.5-0.3,0.8c-0.4,0-0.5-0.4-0.8-0.5
				C36.7,37.3,36.7,37.1,36.7,36.8z"/>
			<path class="st16" d="M36.2,39.1c0-0.2,0-0.3,0-0.5c0,0,0,0,0,0c0.2,0.1,0.7-0.1,0.6,0.3C36.8,39.2,36.4,39.1,36.2,39.1
				L36.2,39.1z"/>
			<path class="st15" d="M36.2,39.1c0,0.1-0.1,0.2-0.1,0.3C35.8,39.3,36.1,39.2,36.2,39.1C36.2,39.1,36.2,39.1,36.2,39.1z"/>
			<path class="st16" d="M38.5,37.6c-0.1,0-0.2,0-0.3,0c0-0.1,0-0.2,0-0.3C38.6,37.1,38.4,37.4,38.5,37.6z"/>
			<path class="st9" d="M27.9,31.6c0.3,0.1,0.5,0.2,0.8,0.2c0.4,0,0.8,0,1-0.4c0.3,0.1,0.5,0.2,0.8,0.2c0,0.2,0,0.3,0,0.5
				c-0.8,0-1.8-0.1-1.3,1.3c-0.1,0.2-0.2,0.3-0.3,0.5c-0.6,0.4-1.4,1.1-1.3-0.5c-0.3-0.4-0.6-0.3-1,0c-0.7,0.5-0.5-0.2-0.6-0.5
				c0.2-0.2,0.6-0.5,0.7-0.4C27.7,32.8,27.7,32.1,27.9,31.6z"/>
			<path class="st8" d="M26.1,32.9c0.1,0.3-0.2,1,0.6,0.5c0.4-0.3,0.7-0.3,1,0c-0.9,0.1-0.3,0.7-0.4,1.2c-0.4-0.7-1.6-0.4-1.6-1.5
				c0.1-0.1,0.2-0.2,0.3-0.3C25.9,32.9,26,32.9,26.1,32.9z"/>
			<path class="st3" d="M27.9,30.8c0,0.3,0,0.5,0,0.8c-0.4,0-0.9,0.2-1.3-0.2C26.8,30.6,27.3,30.6,27.9,30.8z"/>
			<path class="st10" d="M29.2,33.4c-0.5-1.4,0.5-1.3,1.3-1.3c0.5-0.1,0.9,0.3,1.3,0.5c0,0.1,0,0.2,0,0.3
				C30.9,33.3,30.2,34,29.2,33.4z"/>
			<path class="st3" d="M31.8,34.7c-0.1,0.5-0.5,0.7-0.8,1c-0.2,0-0.4-0.1-0.5-0.3c0-0.7-0.1-1.6,1-1.6
				C31.5,34.2,31.5,34.5,31.8,34.7z"/>
			<path class="st3" d="M31.8,32.9c0-0.1,0-0.2,0-0.3c0.5-0.3-0.1-0.8,0.3-1c0.7,0.2,1.1-0.7,1.8-0.5c0,0.2,0,0.3,0,0.5
				c-0.2,0-0.4,0.1-0.5,0.3c-1.1-0.2-0.7,1.3-1.5,1.3C31.8,33.1,31.8,33,31.8,32.9z"/>
			<path class="st2" d="M33.3,31.9c0.1-0.2,0.3-0.3,0.5-0.3c0.8,0.4,1.1,1,1,1.8C34,33.3,33.9,32.4,33.3,31.9z"/>
			<path class="st6" d="M32,31.6c-0.4,0.3,0.2,0.8-0.3,1c-0.4-0.2-0.7-0.6-1.3-0.5c0-0.2,0-0.3,0-0.5c0.1-0.3,0.2-0.5,0.3-0.8
				c0.3,0,0.5,0,0.8,0C31.7,31.1,31.9,31.4,32,31.6z"/>
			<path class="st11" d="M30.8,30.9c-0.1,0.3-0.2,0.5-0.3,0.8c-0.3-0.1-0.5-0.2-0.8-0.2c0.1-0.4-0.3-1,0.3-1.2
				C30.3,30.1,30.7,30.4,30.8,30.9z"/>
		</g>
	</g>
</g>
<g>
	<path class="st17" d="M39.3,48.5l-0.1-0.6l-0.6,0.2c-3.4,1-4.1,1.5-4.4,1.8c-0.3,0.3-0.5,1.1-0.5,4.3c0,4.5,0.6,8.6,1.8,12.3
		c1.1,3.4,2.1,5,3.3,5c0.3,0,0.7-0.1,1.1-0.3c0.4-0.2,0.6-0.2,0.7-0.2h0.3l0.2-0.3c0.2-0.4,0.4-0.9,0.7-1.3c0.2-0.3,0.2-0.7,0.2-1.1
		V68L39.3,48.5L39.3,48.5z"/>
	<g>
		<path class="st17" d="M141.1,64.9h-0.2l-0.1,0.1c-1.3,0.9-2.3,1.5-3.1,1.7s-1.6,0.3-2.4,0.3c-1.1,0-2-0.4-2.6-1.1
			c-0.6-0.8-0.9-2-0.9-3.8c0.1-0.2,0.4-1.7,0.9-4.2c0.3-1.2,0.4-2.3,0.4-3.2c0-1.7-0.5-3.1-1.4-4c-1.2-1.2-3-1.8-5.5-1.8
			c-1.5,0-3.1,0.2-4.8,0.7c-1.4,0.4-2.7,0.9-3.9,1.6c0.1-3.3,0.7-9,1.8-16.9c1.2-8.8,2.1-14.3,2.6-16.1v-0.1v-5.4l-0.8,0.5
			c-0.8,0.5-2,2-3.8,9.9c-0.8,3.7-1.7,8.4-2.5,14c-0.5,3.4-1.2,8.4-2.4,15.1c-0.6,4-1.1,6.9-1.5,8.8l0,0l0,0c0,2.3-0.2,4.7-0.5,7
			c-0.3,2.3-0.7,4.3-1.1,5.9l-0.2,0.7h3.8l0.1-0.4c0.3-1.2,0.9-5.2,1.9-12c0.9-6.5,4.4-9.7,10.5-9.7c1.3,0,2.2,0.3,2.7,1
			s0.8,1.7,0.8,3c0,0.6-0.2,2.4-0.6,5.3c-0.2,1.3-0.2,2.4-0.2,3.2c0,1.9,0.4,3.4,1.3,4.5c0.9,1.1,2.4,1.7,4.6,1.7
			c1.8,0,3.6-0.4,5.2-1.2c2-1,3.6-2.6,4.7-4.6l0.4-0.8L141.1,64.9L141.1,64.9z"/>
		<path class="st17" d="M175.9,60.8h-0.5l-0.1,0.5c-0.2,1.9-0.9,3.2-1.8,3.9c-1.3,1.1-3.7,1.6-7.1,1.6c-5.1,0-9.2-1.7-12.3-5
			c-2.4-2.6-3.7-5.2-3.7-7.7c0-0.1,0-0.3,0.3-0.6c6.3,0,10.1-0.4,11.8-1.2c2.2-1.1,3.4-3.9,3.4-8.2V42c0-1.3-0.3-2.2-1-2.8
			c-0.8-0.8-2.3-1.2-4.3-1.2c-4.1,0-7.5,1.4-10.1,4.2s-3.9,6.3-3.9,10.4c0,5.2,1.8,9.7,5.4,13.4c3.6,3.7,8,5.6,13.3,5.6
			c3.8,0,6.4-0.4,7.9-1.3c2.3-1.4,3.9-4.4,4.8-8.9l0.1-0.6L175.9,60.8L175.9,60.8z M155.2,45.2c1.8-1.8,3.4-2.7,4.6-2.7
			s1.6,0.2,1.6,0.2l0,0c0,0,0.1,0.3,0.1,1.5c0,0.3-0.1,0.8-0.6,2c-0.3,0.8-0.5,1.4-0.5,2c-3.3,0-5.9,0.2-7.9,0.4
			C153.2,47.5,154.1,46.4,155.2,45.2z"/>
		<path class="st17" d="M208.6,60.8h-0.5l-0.1,0.5c-0.2,1.9-0.9,3.2-1.8,3.9c-1.3,1.1-3.7,1.6-7.1,1.6c-5.1,0-9.2-1.7-12.3-5
			c-2.4-2.6-3.7-5.2-3.7-7.7c0-0.1,0-0.3,0.3-0.6c6.3,0,10.1-0.4,11.8-1.2c2.3-1.1,3.4-3.9,3.4-8.2V42c0-1.3-0.3-2.2-1-2.8
			c-0.8-0.8-2.3-1.2-4.3-1.2c-4.1,0-7.5,1.4-10.1,4.2s-3.9,6.3-3.9,10.4c0,5.2,1.8,9.7,5.4,13.4c3.6,3.7,8,5.6,13.3,5.6
			c3.8,0,6.4-0.4,7.9-1.3c2.3-1.4,3.9-4.4,4.8-8.9l0.1-0.6L208.6,60.8L208.6,60.8z M187.9,45.2c1.8-1.8,3.4-2.7,4.6-2.7
			s1.6,0.2,1.6,0.2l0,0c0,0,0.1,0.3,0.1,1.5c0,0.3-0.1,0.8-0.6,2c-0.3,0.8-0.5,1.4-0.5,2c-3.3,0-5.9,0.2-7.9,0.4
			C185.8,47.5,186.7,46.4,187.9,45.2z"/>
		<path class="st17" d="M235.4,48c-1.6-0.8-3.1-1.4-4.4-1.8c-1.4-0.3-2.8-0.5-4.3-0.5c-3.2,0-6.2,0.9-9,2.8
			c-2.3,1.5-3.7,3.3-4.2,5.1c-0.3,1.2-0.4,2.3-0.4,3.2c0,3.7,1.6,7.5,4.6,11.4c3.4,4.2,4.5,4.8,5.1,4.8h0.5v-0.5
			c0-0.5-0.2-2.2-2.4-9.8c-0.7-2.8-1.5-5.6-2.4-8.3c0-0.2-0.1-0.5-0.1-1c0-1.4,0.5-2.2,1.5-2.7c1.1-0.5,2.9-0.7,5-0.7h4.5
			c1.5,0,2.6-0.1,3.5-0.2c0.9-0.1,1.7-0.4,2.3-0.8l0.8-0.5L235.4,48L235.4,48z"/>
		<path class="st17" d="M254.4,43.2h0.5v-0.5c0-1.4-0.1-1.8-0.1-2c-0.1-0.3-0.2-0.8-0.6-1.7l-0.2-0.4l-0.4,0.1
			c-2.2,0.4-4.8,1.7-7.6,3.8c-3,2.2-4.5,3.9-4.5,5.4c0,0.7,0.4,1.9,3.8,5.8c2.4,2.7,3.6,5.1,3.9,7.1c0,5.8-2.8,10.8-8.4,14.9
			c-7.4,5.3-7.6,5.5-7.7,5.6l-0.3,0.3l0.2,0.3l0.6,1.2l0.1,0.3h0.3c4.4,0,8.3-1.3,11.5-4c2.9-2.4,5.2-5.8,7-10.3
			c1.6-4.2,2.4-6.9,2.4-8.3c0-1.7-1.2-3.9-3.5-6.7c-2.1-2.5-3.8-4.7-5.1-6.5c2-1.6,3.8-2.7,5.2-3.4
			C252.3,43.6,253.3,43.3,254.4,43.2L254.4,43.2z"/>
		<path class="st18" d="M99.4,65.1L99.2,65L99,65.2c-0.1,0.1-0.2,0.2-0.3,0.3l-0.2,0.2c-0.7,0.7-1.3,1.4-2,2c-1.8,2-3.8,4-6.3,5
			h-0.1L90,72.8c-0.6,0.2-1.1,0.4-1.6,0.5c-1.1,0.2-2.1,0.3-3.1,0.4c-1,0-1.9,0-2.9,0c-6.3,0-11.5-0.3-16.7-1.8
			c-0.2-0.1-0.3-0.2-0.4-0.3l-0.1-0.1l-0.1-0.1c-1.2-0.6-2.2-1.3-3-2c-3.1-2.6-4.7-6.2-4.7-10.5c0-6.2,1.1-13.1,3.4-20.4
			c1.8-5.7,7.5-17.2,10.9-23.3c2.7-4.9,0-0.8,1.4-2.4c1.9-2.2,3.5-3.7,4.8-4.6c1-0.1,2-0.3,3.1-0.5c0.4-0.1,0.9-0.2,1.3-0.2h0.1h0.2
			c0.7,0,1.4,0.1,2.3,0.2c0.6,0.3,1.3,0.5,2,0.6C87.7,8.5,88.4,8.6,89,9c0.4,0.2,0.7,0.7,1,1.1c0.4,0.5,0.7,1,1.3,1.3
			c0.7,0.4,1.2,0.5,1.8,0.5c0.3,0,0.6-0.1,0.9-0.2c0.2-0.1,0.5-0.2,0.6-0.4c0.1,0,0.2-0.1,0.4-0.1h0.1l0.1-0.1
			c0.6-0.7,1.1-1.4,1.7-2L97,8.7l-0.2-0.2c-1.3-2-3.1-3.2-5.7-3.6c-0.1,0-0.1-0.1-0.2-0.1l-0.1-0.1l-0.1-0.1h-0.1
			c-1.2-0.1-2.5-0.3-3.9-0.6h-0.1h-0.1c-0.8,0.1-1.5,0.1-2.2,0.1c-1,0-2-0.1-2.8-0.2h-0.1h-0.1c-3,0.2-5.3,1.1-6.8,2.6
			c-0.2,0.2-0.3,0.4-0.3,0.6c-0.2,0.1-0.4,0.3-0.6,0.4l0,0l0,0c-1.8,2.1-3.3,4.1-4.9,6.2c-0.6,0.7-1.1,1.5-1.7,2.2
			c-0.6,0.7-1,1.6-1.3,2.4c-0.2,0.5-0.4,1-0.7,1.4c-0.6,1-1.1,2.1-1.5,3.1c-0.5,1.1-1.1,2.3-1.8,3.5c-1.1,1.8-2.6,4.5-3.3,7.2
			c-0.7,1.2-0.8,1.7-0.8,1.9c-0.1,0.5-0.2,1-0.2,1.5l-0.1,0.9c-1,3.2-1.7,6.4-2.2,8.9c-0.3,1.6-0.5,3.5-0.5,5.1c0,1-0.1,2.1-0.2,3
			c-0.1,1.5-0.2,3-0.1,4.6c-0.1,2.4,0.1,4.3,0.7,6c0.7,2.2,1.7,3.9,3,4.9c0,0.1,0.1,0.1,0.1,0.1c2.2,2.6,5.5,4.4,10,5.4
			c3.5,0.8,8.2,1.2,14.2,1.2c5.4,0,9.4-1.4,12.1-4c0.2-0.2,1-1.1,5.8-7.2l0.2-0.3l-0.3-0.2C99.9,65.3,99.7,65.1,99.4,65.1L99.4,65.1
			z"/>
	</g>
</g>
<path class="st19" d="M255.8,75.4c0-2.4,1.7-4.1,3.8-4.1s3.8,1.7,3.8,4.1s-1.7,4-3.8,4S255.8,77.8,255.8,75.4L255.8,75.4z
	 M262.8,75.4c0-2-1.4-3.4-3.1-3.4s-3.1,1.5-3.1,3.4s1.4,3.4,3.1,3.4S262.8,77.4,262.8,75.4z M258.2,73.2h1.5c0.8,0,1.6,0.3,1.6,1.3
	c0,0.5-0.3,1-0.8,1.1l1,1.8h-0.8l-0.8-1.6H259v1.6h-0.7L258.2,73.2L258.2,73.2z M259.5,75.3c0.6,0,1-0.2,1-0.8c0-0.4-0.2-0.8-1-0.8
	h-0.6v1.5h0.6V75.3z"/>
<g>
	<path class="st17" d="M317.5,59l3.1,2c-0.1,0.3-0.5,0.5-0.9,0.6c-3.1,4.2-7.5,7.7-12.6,10.3c7.3,2.6,16,4.1,25,4.8
		c-0.9,1-2,2.8-2.5,3.9c-9.9-1-19.4-3.1-27.3-6.5c-8,3.3-17.5,5.4-27.2,6.6c-0.4-1.1-1.5-2.8-2.3-3.7c8.8-0.9,17.5-2.5,24.9-5.1
		c-3.7-2-6.9-4.4-9.5-7.1c-3.7,2.5-7.7,4.7-11.5,6.3c-0.7-0.8-2-2.1-2.9-2.8c7.7-2.9,16-8.2,20.9-14.1c-2.9-0.5-3.7-1.7-3.7-4.7
		v-6.7l5.4,0.4c-0.1,0.5-0.4,0.8-1.2,0.8v5.5c0,1.3,0.5,1.6,3.3,1.6h10.3c2.2,0,2.6-0.5,2.8-4.7c0.9,0.6,2.5,1,3.6,1.3
		c-0.5,5.4-1.6,6.7-5.9,6.7h-12.6l3.1,1.2c-0.3,0.3-0.8,0.5-1.4,0.5c-0.9,1-1.9,2.1-3,3.1h21.5L317.5,59L317.5,59z M279.2,38.7v7.2
		H275V35.1h12c-0.8-2.2-2.6-5.2-4.4-7.3l1.8-0.7l-7.2,0.2c-0.1-1-0.5-2.5-0.9-3.4c16.5-0.5,36.8-1.8,47.4-4.1l3.3,3.3
		c-0.1,0.1-0.4,0.2-0.6,0.2s-0.4-0.1-0.6-0.1c-6.2,1.2-15,2.2-24.4,2.9c1.6,2.4,3.1,5.4,3.6,7.5l-4,1.4c-0.5-2.3-2.1-5.9-3.9-8.5
		l0.6-0.2c-3.7,0.3-7.4,0.5-11,0.6c1.9,2.3,3.7,5.1,4.3,7.2l-2.1,1h24.4c2.2-2.7,4.8-6.9,6.4-9.7l4.8,2.2c-0.2,0.3-0.7,0.5-1.4,0.5
		c-1.3,2-3.3,4.7-5.2,7h11.7v11.2h-4.4v-7.6h-26c3.3,1.5,7.2,3.6,9.2,5.3l-2.4,2.8c-2.1-1.8-6.4-4.3-9.9-5.9l2-2.2L279.2,38.7
		L279.2,38.7z M287.7,44.1c-1.4,4.4-3.8,8.4-8.6,10.6l-3-2.7c4.2-1.8,6.9-5.3,8.1-9.2L287.7,44.1L287.7,44.1z M291.1,62.6
		L291.1,62.6c2.8,2.9,6.7,5.4,11.2,7.4c4.5-2,8.3-4.4,11.1-7.4H291.1L291.1,62.6z M325.4,54.3c-2.2-2.9-6.8-7.2-10.7-10.2l3-2.2
		c4,2.8,8.7,6.9,10.9,9.9L325.4,54.3L325.4,54.3z"/>
	<path class="st17" d="M345.9,38.3c4.1,1.6,9.3,4.4,11.8,6.5l-2.5,3.7c-2.6-2.2-7.6-5.2-11.8-6.9C343.5,41.5,345.9,38.3,345.9,38.3z
		 M345.2,77c3.2-5.2,7.8-14.1,11.1-21.7l3.5,2.6c-3,7.1-7.1,15.3-10.1,20.4c0.3,0.3,0.3,0.7,0.3,0.9s-0.1,0.5-0.2,0.7L345.2,77
		L345.2,77z M404.7,27.5H389v9.8h12.8v42.8h-4.2v-2.8h-30.4v3.2h-4V37.4h11v-9.8h-13.4l-2.6,3.5c-2.4-2.4-7.4-5.5-11.6-7.5l2.5-3.2
		c3.9,1.6,8.6,4.5,11.2,6.7v-3.7h44.4L404.7,27.5L404.7,27.5z M378.1,41.3c0,4.2,0,11.8-7.7,17.7c-0.6-0.8-2-2-2.8-2.5
		c6.9-5.2,6.9-11,6.9-15.2h-7.3v20.1h30.4V49.7h-0.1c-0.5,4.5-1.4,5.7-4,5.7h-4.1c-3.4,0-4.3-1-4.3-4.9v-9.2H378.1L378.1,41.3z
		 M367.2,73.4h30.4v-8.2h-30.4V73.4z M385,37.3v-9.8h-6.9v9.8H385z M393,51.8c1,0,1.2-0.5,1.4-4.2c0.7,0.6,2.1,1.2,3.2,1.4v-7.7h-9
		v9.2c0,1.1,0.1,1.3,1.1,1.3H393L393,51.8z"/>
	<path class="st17" d="M448.4,25.6h25.5V35h-4.5v-5.7h-13.2c-0.2,0.1-0.5,0.2-0.9,0.3v6.5c0,1.2,0.4,1.4,2.5,1.4h7.5
		c1.5,0,1.8-0.3,2-2.4c0.9,0.5,2.5,1,3.7,1.2c-0.4,3.6-1.6,4.5-5.1,4.5h-8.5c-5.1,0-6.4-0.8-6.4-4.6v-6.8h-13.7v0.1l4.4,0.4
		c-0.1,0.4-0.5,0.7-1.2,0.9C438.3,37,434,41,420.3,43c-0.4-1-1.4-2.5-2.2-3.3c12.2-1.5,16.3-4.5,17.8-10.4h-12.8v6h-4.4v-9.7h25.2
		v-5.9l5.8,0.3c-0.1,0.5-0.4,0.8-1.3,0.9V25.6L448.4,25.6z M471.9,58.1V76c0,4.6-2.2,4.7-10.9,4.7c-0.2-1.1-0.9-2.7-1.4-3.8
		c1.9,0.1,3.7,0.1,5,0.1c2.7,0,3.1-0.1,3.1-1.1V61.6h-43v18.9h-4.1V58.1h7.1v-14H465v14H471.9L471.9,58.1z M431.7,47.3v10.8h11.2
		v-7.2h17.9v-3.6H431.7L431.7,47.3z M459.5,65.4v10.3h-22.6v2.4h-4V65.4H459.5L459.5,65.4z M455.4,68.2h-18.5v4.6h18.5V68.2z
		 M460.8,58.1v-4.5H447v4.5H460.8z"/>
</g>
</svg>
