<svg width="485" height="58" viewBox="0 0 485 58" fill="none" xmlns="http://www.w3.org/2000/svg">
<rect width="485" height="58" rx="29" fill="#F1F0F0"/>
<circle cx="28.5" cy="29" r="20" fill="#DCDCDC"/>
<path d="M30.8388 19.3636V39H27.8665V22.3359H27.7514L23.0533 25.4041V22.5661L27.9528 19.3636H30.8388Z" fill="#8B8B8B"/>
<path d="M63.028 30.256H69.172V31.392H63.028V30.256ZM63.028 32.832H69.172V33.984H63.028V32.832ZM63.028 35.424H69.796V36.688H63.028V35.424ZM60.884 24.08H69.556V26.848H68.18V25.36H62.18V26.896H60.884V24.08ZM65.652 28.592H67.044V36.064H65.652V28.592ZM63.524 27.584H69.364V28.864H63.524V37.36H62.1V28.912L63.396 27.584H63.524ZM64.852 22.464L66.276 22.752C65.3 26.176 63.588 28.96 61.124 30.72C60.964 30.4 60.532 29.728 60.244 29.424C62.5 27.936 64.036 25.456 64.852 22.464ZM65.268 26.304L66.516 25.824C66.884 26.448 67.268 27.28 67.444 27.808L66.132 28.384C65.956 27.824 65.588 26.944 65.268 26.304ZM55.268 23.6H60.564V24.992H55.268V23.6ZM56.9 28.32H60.42V35.344H56.9V34.032H59.108V29.648H56.9V28.32ZM57.204 24.144L58.628 24.368C58.116 27.664 57.22 30.816 55.668 32.848C55.524 32.512 55.108 31.776 54.836 31.456C56.116 29.728 56.82 27.008 57.204 24.144ZM56.372 28.32H57.652V36.576H56.372V28.32ZM73.812 27.36H78.468V28.528H73.812V27.36ZM73.812 29.488H78.468V30.656H73.812V29.488ZM73.156 25.184H79.012V26.416H73.156V25.184ZM74.42 31.664H78.548V36.416H74.42V35.184H77.284V32.896H74.42V31.664ZM73.796 31.664H75.044V37.136H73.796V31.664ZM74.66 23.04L75.764 22.4C76.276 23.04 76.852 23.904 77.124 24.496L75.956 25.248C75.716 24.64 75.156 23.712 74.66 23.04ZM86.148 23.104H87.572C87.572 23.104 87.572 23.504 87.54 23.68C87.396 27.392 87.236 28.8 86.836 29.28C86.564 29.616 86.26 29.744 85.812 29.792C85.444 29.84 84.772 29.84 84.068 29.808C84.036 29.408 83.908 28.864 83.7 28.512C84.308 28.576 84.884 28.576 85.124 28.576C85.364 28.576 85.492 28.56 85.62 28.4C85.86 28.08 86.02 26.816 86.148 23.344V23.104ZM82.948 23.648H84.324C84.02 26.448 83.284 29.12 80.26 30.608C80.1 30.272 79.7 29.776 79.396 29.536C82.148 28.304 82.708 25.936 82.948 23.648ZM79.748 23.104H86.804V24.384H79.748V23.104ZM80.388 24.784L81.476 25.024C81.204 26.064 80.692 27.232 80.004 27.952L79.028 27.248C79.62 26.688 80.132 25.712 80.388 24.784ZM80.996 31.52H82.292V35.344C82.292 35.808 82.388 35.888 82.932 35.888C83.156 35.888 84.34 35.888 84.628 35.888C85.108 35.888 85.188 35.648 85.236 33.92C85.508 34.144 86.052 34.384 86.404 34.48C86.26 36.672 85.908 37.216 84.772 37.216C84.484 37.216 83.044 37.216 82.772 37.216C81.348 37.216 80.996 36.8 80.996 35.36V31.52ZM79.604 31.616L80.692 31.984C80.5 33.376 80.18 35.088 79.62 36.128L78.516 35.6C79.06 34.592 79.428 32.96 79.604 31.616ZM82.116 30.832L83.076 30.16C83.78 30.992 84.548 32.128 84.868 32.928L83.86 33.696C83.556 32.896 82.804 31.696 82.116 30.832ZM85.364 31.888L86.372 31.376C87.124 32.576 87.876 34.176 88.164 35.248L87.044 35.824C86.804 34.768 86.084 33.152 85.364 31.888ZM98.772 24.24H104.644V25.68H98.772V24.24ZM104.196 24.24H104.436L104.692 24.192L105.636 24.448C104.9 30.944 102.612 35.088 99.268 37.36C99.044 36.992 98.628 36.496 98.308 36.224C101.316 34.368 103.54 30.192 104.196 24.576V24.24ZM100.756 25.312C101.476 30.112 103.06 34.176 106.212 36.064C105.876 36.32 105.412 36.864 105.172 37.248C101.86 35.04 100.292 30.848 99.428 25.52L100.756 25.312ZM91.396 23.2H98.692V24.56H91.396V23.2ZM93.188 26.544H97.14V27.84H93.188V26.544ZM93.172 29.904H97.204V31.216H93.172V29.904ZM92.388 23.968H93.844V34.192L92.388 34.352V23.968ZM91.236 33.792C93.14 33.552 96.132 33.104 98.932 32.656L99.012 33.936C96.372 34.432 93.588 34.912 91.556 35.248L91.236 33.792ZM96.148 23.952H97.62V37.328H96.148V23.952ZM113.396 23.376H124.036V24.752H113.396V23.376ZM114.644 32.464H122.676V33.76H114.644V32.464ZM114.644 35.296H122.676V36.608H114.644V35.296ZM113.892 26.624H123.524V37.312H122.068V27.952H115.284V37.344H113.892V26.624ZM109.764 23.872L110.628 22.768C111.46 23.216 112.66 23.888 113.268 24.304L112.372 25.536C111.796 25.088 110.612 24.368 109.764 23.872ZM109.22 28.16L110.052 27.04C110.9 27.456 112.148 28.08 112.772 28.496L111.908 29.744C111.3 29.312 110.084 28.64 109.22 28.16ZM109.492 36.24C110.228 34.992 111.268 32.912 112.052 31.056L113.252 31.92C112.548 33.632 111.652 35.584 110.852 37.104L109.492 36.24ZM116.58 24.096H117.908V27.504H116.58V24.096ZM119.236 24.08H120.596V27.52H119.236V24.08ZM116.788 27.392H117.956V28.448C117.956 29.584 117.556 30.912 115.876 31.792C115.7 31.568 115.236 31.136 114.996 30.976C116.484 30.208 116.788 29.264 116.788 28.432V27.392ZM119.188 27.408H120.356V29.616C120.356 29.904 120.404 29.936 120.74 29.936C120.868 29.936 121.604 29.936 121.78 29.936C122.004 29.936 122.068 29.92 122.1 29.872C122.324 30.048 122.82 30.24 123.188 30.32C123.028 30.944 122.66 31.136 121.956 31.136C121.732 31.136 120.788 31.136 120.564 31.136C119.46 31.136 119.188 30.816 119.188 29.632V27.408ZM131.796 24.608V27.264H137.86V24.608H131.796ZM130.324 23.168H139.396V28.704H130.324V23.168ZM128.052 30.256H133.94V37.232H132.42V31.696H129.492V37.344H128.052V30.256ZM135.508 30.256H141.668V37.264H140.148V31.696H136.964V37.344H135.508V30.256ZM128.692 35.056H133.044V36.512H128.692V35.056ZM136.228 35.056H140.868V36.512H136.228V35.056ZM145.684 24.304H151.156V25.712H145.684V24.304ZM147.652 25.088H149.172V32.736H147.652V25.088ZM145.3 32.944C146.788 32.512 149.14 31.744 151.332 31.008L151.588 32.336C149.62 33.072 147.508 33.824 145.924 34.384L145.3 32.944ZM151.284 23.216H160.356V24.496H151.284V23.216ZM153.428 29.408V30.736H158.26V29.408H153.428ZM153.428 31.808V33.136H158.26V31.808H153.428ZM153.428 27.024V28.336H158.26V27.024H153.428ZM152.004 25.872H159.748V34.272H152.004V25.872ZM154.98 23.888L156.74 24.112C156.436 25.072 156.084 26.096 155.812 26.784L154.452 26.528C154.66 25.776 154.884 24.672 154.98 23.888ZM153.732 34.4L154.996 35.264C153.94 36.064 152.276 36.896 150.868 37.36C150.66 37.056 150.228 36.592 149.924 36.304C151.284 35.872 152.932 35.072 153.732 34.4ZM156.276 35.28L157.412 34.464C158.452 35.008 159.876 35.872 160.628 36.48L159.428 37.376C158.756 36.784 157.348 35.888 156.276 35.28Z" fill="#8B8B8B"/>
<circle cx="216.5" cy="29" r="20" fill="#DCDCDC"/>
<path d="M210.389 39V36.8523L217.033 29.968C217.743 29.2202 218.328 28.565 218.788 28.0025C219.255 27.4336 219.603 26.8935 219.833 26.3821C220.063 25.8707 220.178 25.3274 220.178 24.7521C220.178 24.1001 220.025 23.5376 219.718 23.0646C219.411 22.5852 218.993 22.2177 218.462 21.962C217.931 21.6999 217.334 21.5689 216.669 21.5689C215.966 21.5689 215.352 21.7127 214.828 22.0004C214.304 22.288 213.901 22.6939 213.62 23.218C213.339 23.7422 213.198 24.3558 213.198 25.0589H210.37C210.37 23.8636 210.645 22.8185 211.194 21.9237C211.744 21.0288 212.498 20.3352 213.457 19.843C214.416 19.3445 215.506 19.0952 216.727 19.0952C217.96 19.0952 219.047 19.3413 219.987 19.8335C220.933 20.3192 221.671 20.984 222.201 21.8278C222.732 22.6651 222.997 23.6112 222.997 24.6658C222.997 25.3945 222.86 26.1072 222.585 26.804C222.316 27.5007 221.847 28.2773 221.175 29.1339C220.504 29.984 219.571 31.0163 218.376 32.2308L214.473 36.3153V36.4592H223.314V39H210.389Z" fill="#8B8B8B"/>
<path d="M252.384 28.176H257.04V29.632H252.384V28.176ZM251.664 28.176H253.168V35.008C253.168 35.648 253.28 35.744 253.968 35.744C254.288 35.744 255.76 35.744 256.16 35.744C256.832 35.744 256.944 35.344 257.024 33.12C257.36 33.376 258 33.648 258.416 33.744C258.24 36.4 257.824 37.168 256.272 37.168C255.92 37.168 254.112 37.168 253.776 37.168C252.176 37.168 251.664 36.72 251.664 35.008V28.176ZM251.616 23.232H257.792V30.688H256.336V24.688H251.616V23.232ZM244.032 26.064H250.576V37.056H249.36V27.328H245.232V37.28H244.032V26.064ZM244.656 32.512H249.936V33.6H244.656V32.512ZM244.656 35.024H249.936V36.224H244.656V35.024ZM243.68 23.104H250.912V24.448H243.68V23.104ZM245.92 23.44H246.96V27.024H245.92V23.44ZM247.76 23.44H248.816V27.024H247.76V23.44ZM246.144 27.008H246.912V28.608C246.912 29.568 246.704 30.8 245.824 31.68C245.696 31.52 245.392 31.248 245.216 31.152C246.032 30.384 246.144 29.408 246.144 28.592V27.008ZM247.648 27.008H248.432V30.16C248.432 30.368 248.448 30.4 248.608 30.4C248.672 30.4 248.976 30.4 249.056 30.4C249.216 30.4 249.264 30.384 249.28 30.352C249.456 30.496 249.76 30.592 250 30.656C249.904 31.04 249.664 31.2 249.2 31.2C249.072 31.2 248.64 31.2 248.512 31.2C247.856 31.2 247.648 31.024 247.648 30.176V27.008ZM266.048 28.832H276.128V30.224H266.048V28.832ZM266.592 25.376H275.616V26.768H266.592V25.376ZM270.176 26.096H271.728V28.592C271.728 30.656 271.072 33.264 267.12 35.04C266.912 34.72 266.432 34.192 266.08 33.904C269.872 32.432 270.176 30.192 270.176 28.576V26.096ZM273.44 22.496L274.96 22.976C274.336 24.096 273.568 25.36 272.96 26.16L271.76 25.728C272.352 24.864 273.056 23.488 273.44 22.496ZM267.504 23.04L268.768 22.544C269.248 23.28 269.856 24.304 270.16 24.912L268.816 25.504C268.544 24.88 267.968 23.824 267.504 23.04ZM265.072 27.872V34.944H263.6V29.28H261.68V27.872H265.072ZM262.128 23.36L263.344 22.64C264.16 23.536 265.168 24.768 265.632 25.568L264.352 26.384C263.904 25.568 262.928 24.288 262.128 23.36ZM264.192 33.888C264.736 33.888 265.136 34.368 266.064 34.928C267.152 35.584 268.608 35.696 270.48 35.696C272.352 35.696 274.928 35.536 276.576 35.328C276.384 35.76 276.128 36.544 276.096 37.008C274.96 37.072 272.08 37.184 270.416 37.184C268.32 37.184 266.944 37.008 265.776 36.304C265.072 35.872 264.512 35.312 264.16 35.312C263.68 35.312 262.96 36.368 262.288 37.408L261.2 35.936C262.272 34.72 263.376 33.888 264.192 33.888ZM270.128 30.576L271.12 29.68C272.544 30.96 274.592 32.768 275.584 33.84L274.512 34.896C273.584 33.792 271.584 31.904 270.128 30.576ZM280.448 23.84L281.12 22.8C282.208 23.088 283.712 23.616 284.496 24L283.824 25.168C283.072 24.752 281.568 24.176 280.448 23.84ZM279.696 26.928C280.848 26.64 282.56 26.144 284.224 25.648L284.416 26.848C282.976 27.344 281.488 27.856 280.288 28.224L279.696 26.928ZM286.656 23.632H292.96V24.736H285.792L286.656 23.632ZM292.592 23.632H292.816L293.056 23.568L294.064 23.856C293.632 24.704 293.04 25.632 292.496 26.208L291.296 25.808C291.776 25.312 292.304 24.496 292.592 23.824V23.632ZM286.784 22.496L288.128 22.72C287.552 23.936 286.752 25.104 285.52 26.08C285.248 25.808 284.736 25.488 284.368 25.344C285.568 24.528 286.352 23.44 286.784 22.496ZM283.328 31.008V31.92H290.912V31.008H283.328ZM283.328 32.832V33.776H290.912V32.832H283.328ZM283.328 29.184V30.096H290.912V29.184H283.328ZM281.856 28.24H292.432V34.72H281.856V28.24ZM288.448 35.488L289.456 34.672C291.152 35.232 293.024 35.952 294.144 36.48L292.784 37.312C291.808 36.8 290.112 36.064 288.448 35.488ZM284.512 34.72L285.888 35.344C284.592 36.144 282.544 36.912 280.928 37.36C280.672 37.072 280.144 36.496 279.808 36.24C281.472 35.904 283.392 35.344 284.512 34.72ZM289.456 25.2C290.304 26.256 292.096 27.056 294.032 27.36C293.76 27.616 293.376 28.112 293.184 28.448C291.184 28 289.392 26.944 288.416 25.568L289.456 25.2ZM288.56 24.752L289.936 24.976C289.248 26.704 287.408 27.84 285.12 28.304C284.992 28.016 284.688 27.536 284.464 27.28C286.448 26.928 288.112 26.08 288.56 24.752ZM298.448 27.36H303.04V28.528H298.448V27.36ZM298.448 29.488H303.072V30.656H298.448V29.488ZM297.808 25.184H303.632V26.416H297.808V25.184ZM299.056 31.664H303.072V36.416H299.056V35.184H301.856V32.896H299.056V31.664ZM298.448 31.664H299.632V37.136H298.448V31.664ZM299.472 23.008L300.544 22.432C300.976 23.088 301.44 23.952 301.68 24.528L300.544 25.216C300.352 24.624 299.856 23.68 299.472 23.008ZM303.632 29.344H308.928V30.768H303.632V29.344ZM309.424 23.376H310.928C310.816 29.344 310.8 35.376 311.568 35.584C311.664 35.616 311.76 34.592 311.824 33.488C312.048 33.872 312.432 34.432 312.656 34.656C312.448 36.96 311.792 37.456 310.944 37.104C309.264 36.496 309.424 30.288 309.424 23.376ZM305.632 24.304H307.056V37.344H305.632V24.304ZM303.824 23.376H310.112V24.816H303.824V23.376Z" fill="#8B8B8B"/>
<circle cx="368.5" cy="29" r="20" fill="#AA6373"/>
<path d="M369.225 39.2685C367.908 39.2685 366.732 39.0415 365.697 38.5877C364.668 38.1339 363.853 37.5043 363.252 36.6989C362.657 35.8871 362.338 34.9474 362.293 33.88H365.304C365.342 34.4616 365.537 34.9666 365.888 35.3949C366.246 35.8168 366.713 36.1428 367.288 36.3729C367.864 36.603 368.503 36.718 369.206 36.718C369.979 36.718 370.663 36.5838 371.258 36.3153C371.859 36.0469 372.328 35.6729 372.667 35.1935C373.006 34.7077 373.175 34.1484 373.175 33.5156C373.175 32.8572 373.006 32.2788 372.667 31.7802C372.335 31.2752 371.846 30.8789 371.2 30.5913C370.561 30.3036 369.788 30.1598 368.88 30.1598H367.221V27.7436H368.88C369.609 27.7436 370.248 27.6126 370.798 27.3505C371.354 27.0884 371.788 26.7241 372.102 26.2575C372.415 25.7844 372.571 25.2315 372.571 24.5987C372.571 23.9915 372.434 23.4641 372.159 23.0167C371.891 22.5629 371.507 22.2081 371.009 21.9524C370.516 21.6967 369.935 21.5689 369.263 21.5689C368.624 21.5689 368.027 21.6871 367.471 21.9237C366.921 22.1538 366.473 22.4862 366.128 22.9208C365.783 23.3491 365.598 23.8636 365.572 24.4645H362.705C362.737 23.4034 363.05 22.4702 363.645 21.6648C364.246 20.8594 365.038 20.2298 366.023 19.7759C367.007 19.3221 368.1 19.0952 369.302 19.0952C370.561 19.0952 371.648 19.3413 372.562 19.8335C373.482 20.3192 374.192 20.968 374.69 21.7798C375.195 22.5916 375.445 23.4801 375.438 24.4453C375.445 25.5447 375.138 26.478 374.518 27.245C373.904 28.0121 373.086 28.5266 372.063 28.7887V28.9421C373.367 29.1403 374.377 29.658 375.093 30.4954C375.815 31.3327 376.173 32.3714 376.167 33.6115C376.173 34.6918 375.873 35.6602 375.266 36.5167C374.665 37.3732 373.843 38.0476 372.801 38.5398C371.76 39.0256 370.567 39.2685 369.225 39.2685Z" fill="white"/>
<path d="M399.432 25.516H409.24V27.052H399.432V25.516ZM405.768 22.188H407.32V34.908C407.32 35.964 407.048 36.396 406.376 36.62C405.672 36.86 404.536 36.892 402.776 36.876C402.696 36.46 402.424 35.772 402.184 35.372C403.496 35.42 404.856 35.42 405.24 35.404C405.624 35.388 405.768 35.276 405.768 34.908V22.188ZM400.312 29.116L401.64 28.492C402.424 29.708 403.464 31.34 403.96 32.316L402.536 33.068C402.088 32.076 401.08 30.38 400.312 29.116ZM396.712 26.508L398.232 24.988L398.248 25.004V36.812H396.712V26.508ZM398.392 22.092L399.88 22.556C398.792 25.34 397.096 28.172 395.304 29.996C395.128 29.628 394.664 28.812 394.392 28.444C395.992 26.924 397.48 24.524 398.392 22.092ZM422.632 27.404H424.072V28.188C424.072 30.572 423.8 34.156 420.792 36.892C420.536 36.556 420.008 36.092 419.64 35.868C422.408 33.42 422.632 30.268 422.632 28.156V27.404ZM423.96 29.356C424.472 32.092 425.592 34.524 427.56 35.564C427.224 35.852 426.744 36.428 426.536 36.828C424.424 35.532 423.336 32.812 422.744 29.58L423.96 29.356ZM412.712 23.42H420.152V24.668H412.712V23.42ZM412.52 30.332H420.328V31.58H412.52V30.332ZM413.096 25.804H419.816V27.052H413.096V25.804ZM413.24 28.06H419.672V29.308H413.24V28.06ZM415.752 30.844H417.16V35.356C417.16 36.012 417.064 36.396 416.6 36.604C416.168 36.828 415.56 36.844 414.648 36.844C414.6 36.444 414.408 35.9 414.232 35.532C414.808 35.548 415.352 35.548 415.528 35.532C415.704 35.532 415.752 35.484 415.752 35.34V30.844ZM415.736 22.076H417.16V26.62H415.736V22.076ZM413.72 32.028L414.968 32.332C414.6 33.516 414.04 34.876 413.56 35.756C413.272 35.58 412.696 35.324 412.376 35.212C412.888 34.364 413.4 33.132 413.72 32.028ZM417.88 32.46L419.016 32.012C419.448 32.796 419.944 33.868 420.168 34.508L418.968 35.036C418.776 34.38 418.296 33.276 417.88 32.46ZM421.528 24.892H426.216V26.284H421.528V24.892ZM421.432 22.012L422.904 22.22C422.52 25.052 421.8 27.772 420.728 29.532C420.456 29.276 419.832 28.828 419.48 28.62C420.536 27.068 421.128 24.572 421.432 22.012ZM425.832 24.892H426.056L426.296 24.828L427.32 25.132C427.016 26.636 426.552 28.364 426.136 29.484L424.904 29.1C425.24 28.092 425.624 26.444 425.832 25.148V24.892ZM431.016 24.684H445.096V26.156H431.016V24.684ZM436.136 28.444H442.424V29.916H436.136V28.444ZM442.024 28.444H443.592C443.592 28.444 443.576 28.924 443.544 29.132C443.24 33.596 442.92 35.372 442.264 36.028C441.848 36.492 441.4 36.62 440.728 36.668C440.136 36.716 439.08 36.716 438.008 36.652C437.976 36.204 437.752 35.564 437.464 35.164C438.6 35.26 439.72 35.276 440.168 35.276C440.52 35.276 440.728 35.244 440.936 35.084C441.432 34.636 441.768 32.844 442.024 28.7V28.444ZM435.272 25.596H436.952C436.728 29.772 436.312 34.444 431.8 36.908C431.576 36.508 431.096 35.98 430.696 35.676C434.92 33.516 435.096 29.292 435.272 25.596ZM436.904 22.412L438.376 21.852C438.824 22.588 439.304 23.564 439.544 24.204L438.008 24.86C437.8 24.22 437.304 23.18 436.904 22.412ZM459.496 22.908L460.504 22.06C461.288 22.588 462.264 23.388 462.744 23.932L461.672 24.86C461.224 24.3 460.28 23.468 459.496 22.908ZM448.968 24.876H463.288V26.348H448.968V24.876ZM449.544 28.492H456.552V29.964H449.544V28.492ZM452.232 29.308H453.736V34.892H452.232V29.308ZM449 34.876C450.92 34.54 454.056 33.932 456.984 33.34L457.096 34.7C454.408 35.308 451.512 35.948 449.448 36.396L449 34.876ZM457 22.06H458.616C458.52 29.116 459.864 35.292 461.64 35.292C462.04 35.292 462.232 34.412 462.328 32.316C462.664 32.668 463.24 33.02 463.656 33.18C463.416 36.092 462.872 36.876 461.512 36.876C458.2 36.876 457.032 29.676 457 22.06Z" fill="#323232"/>
</svg>
