<svg width="140" height="54" viewBox="0 0 140 54" fill="none" xmlns="http://www.w3.org/2000/svg">
<rect x="0.5" y="0.5" width="139" height="53" rx="9.5" fill="white"/>
<rect x="0.5" y="0.5" width="139" height="53" rx="9.5" stroke="#727272"/>
<mask id="path-2-inside-1_4965_72683" fill="white">
<path d="M26 15H114V39H26V15Z"/>
</mask>
<path d="M114 38H26V40H114V38Z" fill="#727272" mask="url(#path-2-inside-1_4965_72683)"/>
<path d="M37.9 23.64H45.36V25.86H37.9V23.64ZM27.06 19H36.06V20.96H27.06V19ZM26.86 26.96H36.04V28.98H26.86V26.96ZM26.8 23.46H36.22V25.44H26.8V23.46ZM41.14 24.6H43.46V35.7H41.14V24.6ZM30.4 17.18H32.74V19.88H30.4V17.18ZM30.4 25.32H32.74V35.78H30.4V25.32ZM36.82 18.6L39.62 19.38C39.6 19.58 39.46 19.68 39.1 19.74V25.62C39.1 28.6 38.72 33.02 36 35.84C35.7 35.32 34.82 34.5 34.28 34.2C36.6 31.74 36.82 28.32 36.82 25.58V18.6ZM43.36 17.22L45.28 18.96C43.24 19.88 40.52 20.56 38.18 21C38.06 20.48 37.72 19.64 37.44 19.18C39.58 18.7 41.94 17.98 43.36 17.22ZM32.56 29.06C33.18 29.44 35.1 30.94 35.58 31.34L34.2 33.06C33.54 32.26 32.02 30.76 31.28 30.1L32.56 29.06ZM28.06 21.26L29.9 20.82C30.26 21.54 30.54 22.52 30.64 23.18L28.68 23.7C28.64 23.04 28.38 22.02 28.06 21.26ZM33.04 20.78L35.16 21.18C34.78 22.1 34.44 22.96 34.14 23.58L32.24 23.18C32.52 22.5 32.86 21.48 33.04 20.78ZM30.42 28.14L32.12 28.76C31.14 30.96 29.48 33.26 27.88 34.56C27.5 34.04 26.8 33.24 26.3 32.86C27.88 31.84 29.54 29.9 30.42 28.14ZM64.04 16.98L65.78 18.96C61.66 20.02 55.9 20.52 51 20.68C50.94 20.08 50.64 19.1 50.42 18.58C55.24 18.38 60.76 17.86 64.04 16.98ZM50.6 22.66H66.42V24.96H50.6V22.66ZM49.22 27.32H67.6V29.66H49.22V27.32ZM57.18 19.8H59.68V32.94C59.68 34.36 59.32 35 58.36 35.36C57.4 35.74 55.94 35.8 53.9 35.78C53.74 35.1 53.28 34.02 52.92 33.4C54.4 33.46 56.08 33.44 56.54 33.44C57 33.44 57.18 33.3 57.18 32.9V19.8ZM80.22 23.02H88.54V25.44H80.22V23.02ZM71.66 32.4H89.94V34.82H71.66V32.4ZM78.86 17.26H81.44V33.74H78.86V17.26ZM104.08 33.02H110.38V35.08H104.08V33.02ZM104.94 18.92H110.02V20.96H104.94V18.92ZM103.1 28.34H111.36V35.68H109.08V30.36H105.3V35.74H103.1V28.34ZM109.18 18.92H109.6L110.02 18.84L111.54 19.48C110.08 24.5 106.7 27.7 102.64 29.42C102.36 28.86 101.76 28.04 101.28 27.6C104.9 26.28 108.06 23.22 109.18 19.3V18.92ZM105.02 17L107.3 17.56C106.4 20.26 104.92 22.86 103.3 24.5C102.9 24.08 101.98 23.3 101.44 22.96C103 21.56 104.32 19.32 105.02 17ZM105.08 20.04C106.22 22.74 108.82 25.84 112.9 27.12C112.42 27.58 111.74 28.52 111.42 29.14C107.3 27.54 104.68 24.04 103.46 21.08L105.08 20.04ZM94.6 25.84H96.56V33.12H94.6V25.84ZM96.84 19.82V22.36H99.48V19.82H96.84ZM94.76 17.76H101.68V24.42H94.76V17.76ZM97.56 23.58H99.68V32.52H97.56V23.58ZM93.72 32.74C95.84 32.36 99.04 31.66 102.04 30.98L102.26 33.1C99.44 33.8 96.4 34.52 94.12 35.04L93.72 32.74ZM98.4 26.76H101.88V28.86H98.4V26.76Z" fill="#727272"/>
</svg>
