<svg width="248" height="54" viewBox="0 0 248 54" fill="none" xmlns="http://www.w3.org/2000/svg">
<rect width="248" height="54" rx="10" fill="#C88370"/>
<path d="M44.32 26.26L46.08 26.98C44.82 28.24 42.84 29.18 40.96 29.78C40.68 29.34 40.14 28.78 39.7 28.42C41.38 27.98 43.32 27.16 44.32 26.26ZM46.28 28.08L48 28.78C46.4 30.52 43.74 31.72 40.98 32.42C40.72 31.98 40.26 31.32 39.84 30.92C42.34 30.42 44.96 29.42 46.28 28.08ZM47.74 30.34L49.78 31.18C47.7 33.64 44.12 34.96 40.02 35.72C39.78 35.14 39.28 34.34 38.82 33.84C42.52 33.34 46.02 32.24 47.74 30.34ZM41.6 17L43.78 17.54C42.88 19.92 41.36 22.18 39.78 23.6C39.38 23.22 38.5 22.52 37.98 22.22C39.54 21 40.88 19.04 41.6 17ZM41.58 19.04H49.64V20.96H40.42L41.58 19.04ZM46.34 19.52L48.58 20C47 23.88 43.74 26.08 39.64 27.34C39.38 26.86 38.66 25.94 38.24 25.52C42.16 24.58 45.16 22.74 46.34 19.52ZM41.56 20.14C42.82 22.36 45.82 24.54 50.3 25.26C49.86 25.72 49.26 26.6 48.98 27.18C44.48 26.18 41.46 23.6 40.06 21.08L41.56 20.14ZM36.5 19.58H38.58V32.46H36.5V19.58ZM34.66 17.08L36.88 17.74C35.74 21.24 33.9 25.02 31.84 27.42C31.66 26.84 31.06 25.46 30.7 24.82C32.3 22.94 33.78 20.02 34.66 17.08ZM33.1 22.54L35.32 20.34L35.38 20.38V35.78H33.1V22.54ZM55.4 23.82H60.06V25.98H55.4V23.82ZM54.1 18.54H61.48V26.66H59.16V20.76H54.1V18.54ZM54.1 23.82H56.42V29.94C56.42 30.66 56.54 30.74 57.26 30.74C57.58 30.74 58.9 30.74 59.3 30.74C59.92 30.74 60.04 30.46 60.12 28.64C60.6 29.02 61.6 29.4 62.26 29.56C61.98 32.28 61.34 33 59.52 33C59.04 33 57.38 33 56.92 33C54.72 33 54.1 32.34 54.1 29.98V23.82ZM63.98 20.52H72.3V22.8H63.98V20.52ZM64.14 17.04L66.64 17.48C65.84 21.18 64.44 24.66 62.64 26.82C62.18 26.4 61.12 25.64 60.52 25.28C62.3 23.42 63.52 20.3 64.14 17.04ZM68.5 21.5L70.94 21.76C69.92 29.14 67.42 33.46 61.62 35.9C61.38 35.34 60.64 34.28 60.18 33.76C65.58 31.82 67.72 28.04 68.5 21.5ZM65.06 22.32C66.04 27.6 68.2 31.82 72.6 33.64C72.06 34.12 71.3 35.1 70.94 35.76C66.2 33.5 64.06 28.9 62.86 22.7L65.06 22.32ZM87.26 24H92.82V26.3H87.26V24ZM86.1 24H88.48V32.34C88.48 33.18 88.6 33.3 89.38 33.3C89.72 33.3 91.2 33.3 91.62 33.3C92.38 33.3 92.52 32.82 92.62 30.14C93.14 30.54 94.16 30.96 94.8 31.12C94.54 34.52 93.92 35.54 91.82 35.54C91.34 35.54 89.48 35.54 89.02 35.54C86.8 35.54 86.1 34.84 86.1 32.36V24ZM86.02 17.94H94.02V27.54H91.7V20.24H86.02V17.94ZM76.5 21.48H84.9V35.4H83V23.46H78.34V35.68H76.5V21.48ZM77.5 29.52H83.9V31.18H77.5V29.52ZM77.5 32.56H83.9V34.42H77.5V32.56ZM76.14 17.74H85.3V19.86H76.14V17.74ZM78.82 18.22H80.4V23.04H78.82V18.22ZM81.2 18.22H82.8V23.04H81.2V18.22ZM79.22 23.02H80.32V25.04C80.32 26.18 80.12 27.66 79.18 28.7C79 28.48 78.56 28.08 78.3 27.94C79.12 27.06 79.22 25.96 79.22 25.02V23.02ZM81 23.02H82.12V26.7C82.12 26.96 82.14 27 82.28 27C82.34 27 82.56 27 82.62 27C82.82 27 82.86 26.98 82.9 26.92C83.12 27.12 83.58 27.28 83.92 27.38C83.78 27.94 83.44 28.16 82.82 28.16C82.66 28.16 82.3 28.16 82.14 28.16C81.26 28.16 81 27.9 81 26.72V23.02ZM104.02 24.6H116.82V26.74H104.02V24.6ZM104.72 20.56H116.14V22.66H104.72V20.56ZM108.96 21.58H111.36V24.8C111.36 27.34 110.38 30.5 105.62 32.56C105.32 32.06 104.58 31.24 104.02 30.82C108.54 29.18 108.96 26.62 108.96 24.76V21.58ZM111.72 26.12C112.52 28.34 114.22 29.9 116.86 30.58C116.34 31.06 115.68 31.98 115.36 32.6C112.4 31.62 110.68 29.56 109.7 26.54L111.72 26.12ZM103.24 24.82V32.18H100.9V27.04H98.56V24.82H103.24ZM103.24 31.14C104.04 32.46 105.56 33.04 107.64 33.12C109.98 33.22 114.52 33.16 117.22 32.94C116.96 33.5 116.56 34.66 116.46 35.38C114.04 35.5 110 35.54 107.6 35.44C105.14 35.34 103.48 34.76 102.18 33.2C101.3 33.98 100.4 34.74 99.32 35.62L98.14 33.12C99.04 32.56 100.12 31.86 101.04 31.14H103.24ZM98.6 18.92L100.38 17.48C101.58 18.32 103.06 19.58 103.74 20.52L101.82 22.1C101.22 21.16 99.78 19.82 98.6 18.92ZM113.08 17L115.54 17.76C114.8 18.92 114.02 20.1 113.38 20.88L111.42 20.18C112 19.3 112.72 17.98 113.08 17ZM105.24 17.88L107.28 17.06C108.02 17.96 108.76 19.22 109.04 20.1L106.86 21.04C106.64 20.18 105.94 18.86 105.24 17.88ZM127.359 18.7727L122.671 36.1875H120.42L125.107 18.7727H127.359ZM137.078 21.34H149.438V23.78H137.078V21.34ZM144.738 17.24H147.218V32.9C147.218 34.42 146.858 35.06 145.898 35.42C144.918 35.8 143.398 35.84 141.178 35.82C141.058 35.16 140.618 34.08 140.258 33.44C141.818 33.52 143.558 33.52 144.038 33.5C144.538 33.48 144.738 33.34 144.738 32.88V17.24ZM137.978 26.2L140.098 25.2C140.998 26.66 142.258 28.64 142.858 29.86L140.578 31.02C140.058 29.8 138.878 27.74 137.978 26.2ZM133.398 22.9L135.818 20.48L135.838 20.52V35.76H133.398V22.9ZM135.398 17.12L137.758 17.88C136.418 21.36 134.258 25.02 131.998 27.32C131.738 26.72 131.018 25.4 130.578 24.8C132.498 22.98 134.318 20.06 135.398 17.12ZM153.338 18.62H162.718V20.58H153.338V18.62ZM153.058 27.36H162.938V29.32H153.058V27.36ZM153.818 21.6H162.258V23.54H153.818V21.6ZM153.938 24.48H162.158V26.42H153.938V24.48ZM156.958 28.2H159.178V33.56C159.178 34.54 159.038 35.12 158.378 35.46C157.758 35.78 156.938 35.82 155.838 35.82C155.758 35.2 155.458 34.34 155.198 33.76C155.818 33.78 156.478 33.78 156.678 33.76C156.898 33.76 156.958 33.7 156.958 33.52V28.2ZM156.918 17.14H159.178V22.86H156.918V17.14ZM154.278 29.68L156.258 30.04C155.938 31.74 155.298 33.42 154.558 34.52C154.138 34.22 153.238 33.8 152.738 33.62C153.518 32.64 154.018 31.14 154.278 29.68ZM159.738 30.34L161.518 29.66C162.018 30.54 162.538 31.72 162.718 32.48L160.858 33.28C160.678 32.52 160.198 31.28 159.738 30.34ZM164.518 20.64H170.178V22.82H164.518V20.64ZM166.938 21.48H168.078V24.92C168.078 26.9 168.818 31.3 172.058 33.7C171.638 34.24 170.958 35.22 170.618 35.8C168.278 34.12 167.178 30.68 166.918 28.96C166.658 30.74 165.378 34.02 162.718 35.8C162.478 35.28 161.798 34.26 161.378 33.82C165.018 31.38 165.758 26.94 165.758 24.92V21.48H166.938ZM164.078 16.98L166.478 17.34C166.018 20.98 165.098 24.5 163.678 26.74C163.278 26.34 162.238 25.58 161.678 25.24C162.998 23.32 163.738 20.18 164.078 16.98ZM169.518 20.64H169.838L170.198 20.56L171.778 20.96C171.538 22.9 171.158 25.14 170.778 26.6L168.898 26.06C169.138 24.76 169.378 22.64 169.518 21V20.64ZM176.458 18.94L177.498 17.32C178.838 17.64 180.738 18.28 181.738 18.76L180.658 20.58C179.738 20.08 177.838 19.36 176.458 18.94ZM175.578 22.34C177.058 22.06 179.218 21.54 181.338 21.06L181.558 22.94C179.818 23.46 177.978 24 176.478 24.42L175.578 22.34ZM184.438 18.36H192.118V20.04H183.098L184.438 18.36ZM191.558 18.36H191.898L192.258 18.28L193.838 18.68C193.318 19.78 192.598 20.98 191.938 21.72L190.078 21.16C190.618 20.52 191.218 19.48 191.558 18.62V18.36ZM186.478 19.06H188.638C188.238 21.92 187.118 23.64 182.638 24.54C182.438 24.06 181.938 23.26 181.538 22.84C185.398 22.24 186.178 21.08 186.478 19.06ZM188.498 19.58C188.838 21.06 189.718 22.36 194.258 22.88C193.818 23.36 193.298 24.26 193.078 24.86C188.078 24.06 187.098 21.88 186.578 19.76L188.498 19.58ZM184.378 17.02L186.478 17.36C185.698 18.96 184.718 20.42 183.198 21.66C182.778 21.24 181.958 20.74 181.398 20.52C182.858 19.52 183.838 18.18 184.378 17.02ZM180.618 27.9V28.76H189.318V27.9H180.618ZM180.618 30.12V31H189.318V30.12H180.618ZM180.618 25.7V26.54H189.318V25.7H180.618ZM178.298 24.26H191.738V32.42H178.298V24.26ZM185.998 33.46L187.998 32.32C190.098 33.08 192.578 34.08 193.998 34.78L191.198 35.86C190.078 35.18 188.018 34.22 185.998 33.46ZM181.558 32.26L183.758 33.24C182.118 34.3 179.518 35.3 177.478 35.88C177.058 35.4 176.238 34.52 175.698 34.12C177.818 33.72 180.198 33.02 181.558 32.26ZM205.678 17.8H213.438V20.08H205.678V17.8ZM205.458 24.52H211.798V26.76H205.458V24.52ZM207.638 19.32H209.918V24.38C209.918 28.18 209.558 32.58 206.238 35.82C205.858 35.3 205.038 34.48 204.478 34.12C207.338 31.3 207.638 27.56 207.638 24.36V19.32ZM212.198 17.8H214.658C214.458 24.62 214.538 32.9 215.498 33.18C215.618 33.22 215.758 31.82 215.798 30.44C216.178 31.06 216.778 32.02 217.118 32.38C216.798 35.52 215.738 36.2 214.458 35.64C212.058 34.74 212.218 26.3 212.198 17.8ZM198.818 23.16H204.858V24.96H198.818V23.16ZM198.878 17.64H204.798V19.46H198.878V17.64ZM198.818 25.88H204.858V27.7H198.818V25.88ZM197.858 20.34H205.518V22.24H197.858V20.34ZM199.858 28.66H204.878V34.74H199.858V32.84H202.838V30.56H199.858V28.66ZM198.778 28.66H200.798V35.54H198.778V28.66Z" fill="white"/>
</svg>
