<svg width="300" height="54" viewBox="0 0 300 54" fill="none" xmlns="http://www.w3.org/2000/svg">
<rect x="0.5" y="0.5" width="299" height="53" rx="9.5" fill="white"/>
<rect x="0.5" y="0.5" width="299" height="53" rx="9.5" stroke="#727272"/>
<mask id="path-2-inside-1_4965_72677" fill="white">
<path d="M84 15H216V39H84V15Z"/>
</mask>
<path d="M216 38H84V40H216V38Z" fill="#727272" mask="url(#path-2-inside-1_4965_72677)"/>
<path d="M97.82 26.26L99.58 26.98C98.32 28.24 96.34 29.18 94.46 29.78C94.18 29.34 93.64 28.78 93.2 28.42C94.88 27.98 96.82 27.16 97.82 26.26ZM99.78 28.08L101.5 28.78C99.9 30.52 97.24 31.72 94.48 32.42C94.22 31.98 93.76 31.32 93.34 30.92C95.84 30.42 98.46 29.42 99.78 28.08ZM101.24 30.34L103.28 31.18C101.2 33.64 97.62 34.96 93.52 35.72C93.28 35.14 92.78 34.34 92.32 33.84C96.02 33.34 99.52 32.24 101.24 30.34ZM95.1 17L97.28 17.54C96.38 19.92 94.86 22.18 93.28 23.6C92.88 23.22 92 22.52 91.48 22.22C93.04 21 94.38 19.04 95.1 17ZM95.08 19.04H103.14V20.96H93.92L95.08 19.04ZM99.84 19.52L102.08 20C100.5 23.88 97.24 26.08 93.14 27.34C92.88 26.86 92.16 25.94 91.74 25.52C95.66 24.58 98.66 22.74 99.84 19.52ZM95.06 20.14C96.32 22.36 99.32 24.54 103.8 25.26C103.36 25.72 102.76 26.6 102.48 27.18C97.98 26.18 94.96 23.6 93.56 21.08L95.06 20.14ZM90 19.58H92.08V32.46H90V19.58ZM88.16 17.08L90.38 17.74C89.24 21.24 87.4 25.02 85.34 27.42C85.16 26.84 84.56 25.46 84.2 24.82C85.8 22.94 87.28 20.02 88.16 17.08ZM86.6 22.54L88.82 20.34L88.88 20.38V35.78H86.6V22.54ZM108.9 23.82H113.56V25.98H108.9V23.82ZM107.6 18.54H114.98V26.66H112.66V20.76H107.6V18.54ZM107.6 23.82H109.92V29.94C109.92 30.66 110.04 30.74 110.76 30.74C111.08 30.74 112.4 30.74 112.8 30.74C113.42 30.74 113.54 30.46 113.62 28.64C114.1 29.02 115.1 29.4 115.76 29.56C115.48 32.28 114.84 33 113.02 33C112.54 33 110.88 33 110.42 33C108.22 33 107.6 32.34 107.6 29.98V23.82ZM117.48 20.52H125.8V22.8H117.48V20.52ZM117.64 17.04L120.14 17.48C119.34 21.18 117.94 24.66 116.14 26.82C115.68 26.4 114.62 25.64 114.02 25.28C115.8 23.42 117.02 20.3 117.64 17.04ZM122 21.5L124.44 21.76C123.42 29.14 120.92 33.46 115.12 35.9C114.88 35.34 114.14 34.28 113.68 33.76C119.08 31.82 121.22 28.04 122 21.5ZM118.56 22.32C119.54 27.6 121.7 31.82 126.1 33.64C125.56 34.12 124.8 35.1 124.44 35.76C119.7 33.5 117.56 28.9 116.36 22.7L118.56 22.32ZM140.76 24H146.32V26.3H140.76V24ZM139.6 24H141.98V32.34C141.98 33.18 142.1 33.3 142.88 33.3C143.22 33.3 144.7 33.3 145.12 33.3C145.88 33.3 146.02 32.82 146.12 30.14C146.64 30.54 147.66 30.96 148.3 31.12C148.04 34.52 147.42 35.54 145.32 35.54C144.84 35.54 142.98 35.54 142.52 35.54C140.3 35.54 139.6 34.84 139.6 32.36V24ZM139.52 17.94H147.52V27.54H145.2V20.24H139.52V17.94ZM130 21.48H138.4V35.4H136.5V23.46H131.84V35.68H130V21.48ZM131 29.52H137.4V31.18H131V29.52ZM131 32.56H137.4V34.42H131V32.56ZM129.64 17.74H138.8V19.86H129.64V17.74ZM132.32 18.22H133.9V23.04H132.32V18.22ZM134.7 18.22H136.3V23.04H134.7V18.22ZM132.72 23.02H133.82V25.04C133.82 26.18 133.62 27.66 132.68 28.7C132.5 28.48 132.06 28.08 131.8 27.94C132.62 27.06 132.72 25.96 132.72 25.02V23.02ZM134.5 23.02H135.62V26.7C135.62 26.96 135.64 27 135.78 27C135.84 27 136.06 27 136.12 27C136.32 27 136.36 26.98 136.4 26.92C136.62 27.12 137.08 27.28 137.42 27.38C137.28 27.94 136.94 28.16 136.32 28.16C136.16 28.16 135.8 28.16 135.64 28.16C134.76 28.16 134.5 27.9 134.5 26.72V23.02ZM157.52 24.6H170.32V26.74H157.52V24.6ZM158.22 20.56H169.64V22.66H158.22V20.56ZM162.46 21.58H164.86V24.8C164.86 27.34 163.88 30.5 159.12 32.56C158.82 32.06 158.08 31.24 157.52 30.82C162.04 29.18 162.46 26.62 162.46 24.76V21.58ZM165.22 26.12C166.02 28.34 167.72 29.9 170.36 30.58C169.84 31.06 169.18 31.98 168.86 32.6C165.9 31.62 164.18 29.56 163.2 26.54L165.22 26.12ZM156.74 24.82V32.18H154.4V27.04H152.06V24.82H156.74ZM156.74 31.14C157.54 32.46 159.06 33.04 161.14 33.12C163.48 33.22 168.02 33.16 170.72 32.94C170.46 33.5 170.06 34.66 169.96 35.38C167.54 35.5 163.5 35.54 161.1 35.44C158.64 35.34 156.98 34.76 155.68 33.2C154.8 33.98 153.9 34.74 152.82 35.62L151.64 33.12C152.54 32.56 153.62 31.86 154.54 31.14H156.74ZM152.1 18.92L153.88 17.48C155.08 18.32 156.56 19.58 157.24 20.52L155.32 22.1C154.72 21.16 153.28 19.82 152.1 18.92ZM166.58 17L169.04 17.76C168.3 18.92 167.52 20.1 166.88 20.88L164.92 20.18C165.5 19.3 166.22 17.98 166.58 17ZM158.74 17.88L160.78 17.06C161.52 17.96 162.26 19.22 162.54 20.1L160.36 21.04C160.14 20.18 159.44 18.86 158.74 17.88ZM175.18 18.94L176.22 17.32C177.56 17.64 179.46 18.28 180.46 18.76L179.38 20.58C178.46 20.08 176.56 19.36 175.18 18.94ZM174.3 22.34C175.78 22.06 177.94 21.54 180.06 21.06L180.28 22.94C178.54 23.46 176.7 24 175.2 24.42L174.3 22.34ZM183.16 18.36H190.84V20.04H181.82L183.16 18.36ZM190.28 18.36H190.62L190.98 18.28L192.56 18.68C192.04 19.78 191.32 20.98 190.66 21.72L188.8 21.16C189.34 20.52 189.94 19.48 190.28 18.62V18.36ZM185.2 19.06H187.36C186.96 21.92 185.84 23.64 181.36 24.54C181.16 24.06 180.66 23.26 180.26 22.84C184.12 22.24 184.9 21.08 185.2 19.06ZM187.22 19.58C187.56 21.06 188.44 22.36 192.98 22.88C192.54 23.36 192.02 24.26 191.8 24.86C186.8 24.06 185.82 21.88 185.3 19.76L187.22 19.58ZM183.1 17.02L185.2 17.36C184.42 18.96 183.44 20.42 181.92 21.66C181.5 21.24 180.68 20.74 180.12 20.52C181.58 19.52 182.56 18.18 183.1 17.02ZM179.34 27.9V28.76H188.04V27.9H179.34ZM179.34 30.12V31H188.04V30.12H179.34ZM179.34 25.7V26.54H188.04V25.7H179.34ZM177.02 24.26H190.46V32.42H177.02V24.26ZM184.72 33.46L186.72 32.32C188.82 33.08 191.3 34.08 192.72 34.78L189.92 35.86C188.8 35.18 186.74 34.22 184.72 33.46ZM180.28 32.26L182.48 33.24C180.84 34.3 178.24 35.3 176.2 35.88C175.78 35.4 174.96 34.52 174.42 34.12C176.54 33.72 178.92 33.02 180.28 32.26ZM204.4 17.8H212.16V20.08H204.4V17.8ZM204.18 24.52H210.52V26.76H204.18V24.52ZM206.36 19.32H208.64V24.38C208.64 28.18 208.28 32.58 204.96 35.82C204.58 35.3 203.76 34.48 203.2 34.12C206.06 31.3 206.36 27.56 206.36 24.36V19.32ZM210.92 17.8H213.38C213.18 24.62 213.26 32.9 214.22 33.18C214.34 33.22 214.48 31.82 214.52 30.44C214.9 31.06 215.5 32.02 215.84 32.38C215.52 35.52 214.46 36.2 213.18 35.64C210.78 34.74 210.94 26.3 210.92 17.8ZM197.54 23.16H203.58V24.96H197.54V23.16ZM197.6 17.64H203.52V19.46H197.6V17.64ZM197.54 25.88H203.58V27.7H197.54V25.88ZM196.58 20.34H204.24V22.24H196.58V20.34ZM198.58 28.66H203.6V34.74H198.58V32.84H201.56V30.56H198.58V28.66ZM197.5 28.66H199.52V35.54H197.5V28.66Z" fill="#727272"/>
</svg>
