<svg width="300" height="54" viewBox="0 0 300 54" fill="none" xmlns="http://www.w3.org/2000/svg">
<rect x="0.5" y="0.5" width="299" height="53" rx="9.5" fill="white"/>
<rect x="0.5" y="0.5" width="299" height="53" rx="9.5" stroke="#727272"/>
<path d="M98.08 18.8L99.88 17.56C100.98 18.5 102.28 19.84 102.88 20.78L100.94 22.14C100.42 21.18 99.16 19.78 98.08 18.8ZM84.98 22.7H103.04V24.98H84.98V22.7ZM84.6 28.36C87.02 28 90.82 27.34 94.32 26.7L94.5 28.88C91.26 29.56 87.78 30.26 85.2 30.78L84.6 28.36ZM88.78 19.48H91.2V33C91.2 34.3 90.94 34.96 90.12 35.34C89.32 35.72 88.14 35.8 86.5 35.8C86.4 35.12 86 34.04 85.64 33.36C86.78 33.42 87.94 33.42 88.3 33.4C88.66 33.4 88.78 33.3 88.78 32.96V19.48ZM92.88 17.14L94.5 19.18C91.9 19.98 88.48 20.52 85.58 20.84C85.46 20.28 85.16 19.38 84.88 18.84C87.7 18.46 90.82 17.84 92.88 17.14ZM94.84 17.18H97.36C97.22 25.24 99.02 33.44 100.84 33.44C101.26 33.44 101.48 32.46 101.6 30.08C102.1 30.64 102.92 31.2 103.56 31.46C103.18 35 102.42 35.88 100.6 35.88C96.46 35.88 94.9 26.16 94.84 17.18ZM100.28 25.64L102.4 26.54C100.32 30.26 97.06 33.24 93.44 35.16C93.08 34.56 92.42 33.76 91.82 33.22C95.24 31.66 98.5 28.94 100.28 25.64ZM107.22 27.86H125.58V29.8H107.22V27.86ZM107.6 17.72H125.1V19.8H107.6V17.72ZM113.88 25.94L116.24 26.54C114.96 28.66 113.26 31.18 112.04 32.78L109.72 32.08C110.96 30.48 112.72 27.9 113.88 25.94ZM119.68 28.58L122 29.18C120.02 33.9 115.9 35.26 108.48 35.84C108.32 35.14 107.96 34.3 107.58 33.78C114.32 33.5 118.08 32.42 119.68 28.58ZM111.1 32.24L112.32 30.52C116.92 31.46 121.9 32.84 124.9 33.94L123.46 35.88C120.56 34.7 115.88 33.26 111.1 32.24ZM112.86 18.54H115.12V25.38H112.86V18.54ZM117.4 18.54H119.66V25.38H117.4V18.54ZM110.76 22.82V24.7H122.06V22.82H110.76ZM108.52 20.94H124.46V26.58H108.52V20.94ZM135.26 29.6V30.62H142.04V29.6H135.26ZM135.26 27.08V28.08H142.04V27.08H135.26ZM132.9 25.5H144.54V32.2H132.9V25.5ZM129.84 19.26H147.76V21.32H129.84V19.26ZM137.52 17.02H139.9V24.94H137.52V17.02ZM136.42 19.9L138.42 20.66C136.7 23.34 133.86 25.62 130.8 26.82C130.46 26.24 129.76 25.36 129.26 24.9C132.16 23.98 134.98 22.02 136.42 19.9ZM140.9 19.88C142.36 21.96 145.28 23.84 148.26 24.72C147.74 25.16 147.04 26.08 146.7 26.68C143.62 25.54 140.72 23.28 138.96 20.62L140.9 19.88ZM130.02 33.12H147.6V35.24H130.02V33.12ZM161.22 26.74H165.2V28.46H161.22V26.74ZM161.46 19.96H168.68V22.16H161.46V19.96ZM161.46 23.72H166.32V31.56H161.46V29.74H164.3V25.54H161.46V23.72ZM160.14 23.72H162.16V32.46H160.14V23.72ZM167.92 19.96H170.2C170.2 19.96 170.2 20.78 170.2 21.08C170.04 30.36 169.9 33.54 169.16 34.58C168.64 35.34 168.12 35.58 167.32 35.7C166.58 35.82 165.4 35.8 164.26 35.74C164.22 35.12 163.92 34.12 163.52 33.5C164.72 33.58 165.78 33.58 166.3 33.58C166.66 33.58 166.88 33.52 167.1 33.24C167.66 32.58 167.8 29.12 167.92 20.46V19.96ZM161.6 17L164.02 17.56C163.16 20.54 161.7 23.44 160.06 25.28C159.64 24.84 158.64 24.02 158.08 23.64C159.66 22.1 160.92 19.56 161.6 17ZM152.7 23.16H158.56V24.96H152.7V23.16ZM152.76 17.64H158.5V19.46H152.76V17.64ZM152.7 25.88H158.56V27.7H152.7V25.88ZM151.78 20.34H159.08V22.24H151.78V20.34ZM153.74 28.66H158.58V34.74H153.74V32.84H156.58V30.56H153.74V28.66ZM152.66 28.66H154.62V35.54H152.66V28.66ZM182.74 18.6H193V20.9H182.74V18.6ZM187.1 19.54H189.54V32.96C189.54 34.32 189.28 34.98 188.42 35.36C187.58 35.74 186.3 35.8 184.52 35.8C184.44 35.12 184.04 34.04 183.72 33.34C184.92 33.4 186.2 33.4 186.6 33.4C186.98 33.4 187.1 33.28 187.1 32.94V19.54ZM175.16 23.16H181.62V24.96H175.16V23.16ZM175.28 17.64H181.66V19.46H175.28V17.64ZM175.16 25.88H181.62V27.7H175.16V25.88ZM174.18 20.34H182.42V22.24H174.18V20.34ZM176.26 28.66H181.56V34.74H176.26V32.84H179.46V30.56H176.26V28.66ZM175.1 28.66H177.18V35.54H175.1V28.66ZM204.66 23.7H207.16V35.8H204.66V23.7ZM201.3 27.24V28.32H210.76V27.24H201.3ZM201.3 24.46V25.52H210.76V24.46H201.3ZM198.94 22.62H213.22V30.16H198.94V22.62ZM197.06 31.2H214.98V33.26H197.06V31.2ZM200.36 19.24V20.4H203.18V19.24H200.36ZM198.22 17.8H205.42V21.82H198.22V17.8ZM208.74 19.24V20.4H211.62V19.24H208.74ZM206.62 17.8H213.86V21.82H206.62V17.8Z" fill="#727272"/>
<path d="M84 37H106.4V38H84V37ZM106.4 37H128.8V38H106.4V37ZM128.8 37H151.2V38H128.8V37ZM151.2 37H216V38H151.2V37Z" fill="#727272"/>
</svg>
