<svg width="485" height="58" viewBox="0 0 485 58" fill="none" xmlns="http://www.w3.org/2000/svg">
<rect width="485" height="58" rx="29" fill="#F1F0F0"/>
<circle cx="29" cy="29" r="20" fill="#DCDCDC"/>
<path d="M31.3388 19.3636V39H28.3665V22.3359H28.2514L23.5533 25.4041V22.5661L28.4528 19.3636H31.3388Z" fill="#8B8B8B"/>
<path d="M63.528 30.256H69.672V31.392H63.528V30.256ZM63.528 32.832H69.672V33.984H63.528V32.832ZM63.528 35.424H70.296V36.688H63.528V35.424ZM61.384 24.08H70.056V26.848H68.68V25.36H62.68V26.896H61.384V24.08ZM66.152 28.592H67.544V36.064H66.152V28.592ZM64.024 27.584H69.864V28.864H64.024V37.36H62.6V28.912L63.896 27.584H64.024ZM65.352 22.464L66.776 22.752C65.8 26.176 64.088 28.96 61.624 30.72C61.464 30.4 61.032 29.728 60.744 29.424C63 27.936 64.536 25.456 65.352 22.464ZM65.768 26.304L67.016 25.824C67.384 26.448 67.768 27.28 67.944 27.808L66.632 28.384C66.456 27.824 66.088 26.944 65.768 26.304ZM55.768 23.6H61.064V24.992H55.768V23.6ZM57.4 28.32H60.92V35.344H57.4V34.032H59.608V29.648H57.4V28.32ZM57.704 24.144L59.128 24.368C58.616 27.664 57.72 30.816 56.168 32.848C56.024 32.512 55.608 31.776 55.336 31.456C56.616 29.728 57.32 27.008 57.704 24.144ZM56.872 28.32H58.152V36.576H56.872V28.32ZM74.312 27.36H78.968V28.528H74.312V27.36ZM74.312 29.488H78.968V30.656H74.312V29.488ZM73.656 25.184H79.512V26.416H73.656V25.184ZM74.92 31.664H79.048V36.416H74.92V35.184H77.784V32.896H74.92V31.664ZM74.296 31.664H75.544V37.136H74.296V31.664ZM75.16 23.04L76.264 22.4C76.776 23.04 77.352 23.904 77.624 24.496L76.456 25.248C76.216 24.64 75.656 23.712 75.16 23.04ZM86.648 23.104H88.072C88.072 23.104 88.072 23.504 88.04 23.68C87.896 27.392 87.736 28.8 87.336 29.28C87.064 29.616 86.76 29.744 86.312 29.792C85.944 29.84 85.272 29.84 84.568 29.808C84.536 29.408 84.408 28.864 84.2 28.512C84.808 28.576 85.384 28.576 85.624 28.576C85.864 28.576 85.992 28.56 86.12 28.4C86.36 28.08 86.52 26.816 86.648 23.344V23.104ZM83.448 23.648H84.824C84.52 26.448 83.784 29.12 80.76 30.608C80.6 30.272 80.2 29.776 79.896 29.536C82.648 28.304 83.208 25.936 83.448 23.648ZM80.248 23.104H87.304V24.384H80.248V23.104ZM80.888 24.784L81.976 25.024C81.704 26.064 81.192 27.232 80.504 27.952L79.528 27.248C80.12 26.688 80.632 25.712 80.888 24.784ZM81.496 31.52H82.792V35.344C82.792 35.808 82.888 35.888 83.432 35.888C83.656 35.888 84.84 35.888 85.128 35.888C85.608 35.888 85.688 35.648 85.736 33.92C86.008 34.144 86.552 34.384 86.904 34.48C86.76 36.672 86.408 37.216 85.272 37.216C84.984 37.216 83.544 37.216 83.272 37.216C81.848 37.216 81.496 36.8 81.496 35.36V31.52ZM80.104 31.616L81.192 31.984C81 33.376 80.68 35.088 80.12 36.128L79.016 35.6C79.56 34.592 79.928 32.96 80.104 31.616ZM82.616 30.832L83.576 30.16C84.28 30.992 85.048 32.128 85.368 32.928L84.36 33.696C84.056 32.896 83.304 31.696 82.616 30.832ZM85.864 31.888L86.872 31.376C87.624 32.576 88.376 34.176 88.664 35.248L87.544 35.824C87.304 34.768 86.584 33.152 85.864 31.888ZM99.256 30.288H102.472V31.456H99.256V30.288ZM99.32 27.616H103.144V34.128H99.32V32.912H101.912V28.832H99.32V27.616ZM98.584 27.616H99.8V34.848H98.584V27.616ZM99.832 22.528L101.32 22.864C100.68 25.104 99.592 27.248 98.392 28.624C98.104 28.368 97.48 27.904 97.112 27.68C98.328 26.464 99.288 24.528 99.832 22.528ZM99.704 24.848H105.32V26.224H99.016L99.704 24.848ZM104.888 24.848H106.328C106.328 24.848 106.328 25.376 106.312 25.584C106.12 33.12 105.944 35.712 105.336 36.512C104.968 37.04 104.6 37.2 104.056 37.264C103.528 37.328 102.68 37.328 101.848 37.296C101.816 36.864 101.64 36.208 101.368 35.792C102.264 35.856 103.064 35.872 103.416 35.872C103.704 35.872 103.864 35.808 104.024 35.584C104.504 35.024 104.712 32.352 104.888 25.168V24.848ZM92.472 27.36H97.064V28.528H92.472V27.36ZM92.472 29.488H97.08V30.656H92.472V29.488ZM91.848 25.184H97.72V26.416H91.848V25.184ZM93.096 31.664H97.064V36.416H93.096V35.184H95.848V32.896H93.096V31.664ZM92.472 31.664H93.672V37.136H92.472V31.664ZM93.448 23.008L94.504 22.384C94.984 23.04 95.512 23.904 95.752 24.48L94.648 25.216C94.408 24.624 93.896 23.68 93.448 23.008ZM114.232 23.264H124.52V24.4H114.232V23.264ZM115.896 26.16V27.504H122.648V26.16H115.896ZM114.584 25.232H124.024V28.432H114.584V25.232ZM117.288 23.664H118.504V27.888H117.288V23.664ZM119.96 23.664H121.208V27.888H119.96V23.664ZM116.28 31.648V32.432H122.376V31.648H116.28ZM116.28 33.296V34.096H122.376V33.296H116.28ZM116.28 30.016V30.784H122.376V30.016H116.28ZM114.872 29.104H123.848V34.992H114.872V29.104ZM119.992 35.84L120.968 34.992C122.344 35.44 123.912 36.064 124.84 36.528L123.544 37.392C122.744 36.928 121.336 36.304 119.992 35.84ZM117.464 34.96L118.536 35.728C117.528 36.448 115.928 37.04 114.504 37.376C114.328 37.072 113.976 36.608 113.688 36.352C115.08 36.048 116.616 35.504 117.464 34.96ZM112.792 22.56L114.2 22.96C113.288 25.744 111.832 28.656 110.232 30.544C110.104 30.176 109.72 29.344 109.48 28.944C110.824 27.392 112.056 24.976 112.792 22.56ZM111.512 26.688L112.92 25.296L112.952 25.328V37.344H111.512V26.688ZM134.472 27.712H136.04V37.344H134.472V27.712ZM131.256 30.48V31.632H139.464V30.48H131.256ZM131.256 28.208V29.36H139.464V28.208H131.256ZM129.768 27.024H141.016V32.816H129.768V27.024ZM128.2 33.872H142.456V35.2H128.2V33.872ZM130.632 24.08V25.344H133.352V24.08H130.632ZM129.288 23.12H134.776V26.288H129.288V23.12ZM137.272 24.08V25.344H140.024V24.08H137.272ZM135.912 23.12H141.448V26.288H135.912V23.12Z" fill="#8B8B8B"/>
<circle cx="198" cy="29" r="20" fill="#DCDCDC"/>
<path d="M191.889 39V36.8523L198.533 29.968C199.243 29.2202 199.828 28.565 200.288 28.0025C200.755 27.4336 201.103 26.8935 201.333 26.3821C201.563 25.8707 201.678 25.3274 201.678 24.7521C201.678 24.1001 201.525 23.5376 201.218 23.0646C200.911 22.5852 200.493 22.2177 199.962 21.962C199.431 21.6999 198.834 21.5689 198.169 21.5689C197.466 21.5689 196.852 21.7127 196.328 22.0004C195.804 22.288 195.401 22.6939 195.12 23.218C194.839 23.7422 194.698 24.3558 194.698 25.0589H191.87C191.87 23.8636 192.145 22.8185 192.694 21.9237C193.244 21.0288 193.998 20.3352 194.957 19.843C195.916 19.3445 197.006 19.0952 198.227 19.0952C199.46 19.0952 200.547 19.3413 201.487 19.8335C202.433 20.3192 203.171 20.984 203.701 21.8278C204.232 22.6651 204.497 23.6112 204.497 24.6658C204.497 25.3945 204.36 26.1072 204.085 26.804C203.816 27.5007 203.347 28.2773 202.675 29.1339C202.004 29.984 201.071 31.0163 199.876 32.2308L195.973 36.3153V36.4592H204.814V39H191.889Z" fill="#8B8B8B"/>
<path d="M233.884 28.176H238.54V29.632H233.884V28.176ZM233.164 28.176H234.668V35.008C234.668 35.648 234.78 35.744 235.468 35.744C235.788 35.744 237.26 35.744 237.66 35.744C238.332 35.744 238.444 35.344 238.524 33.12C238.86 33.376 239.5 33.648 239.916 33.744C239.74 36.4 239.324 37.168 237.772 37.168C237.42 37.168 235.612 37.168 235.276 37.168C233.676 37.168 233.164 36.72 233.164 35.008V28.176ZM233.116 23.232H239.292V30.688H237.836V24.688H233.116V23.232ZM225.532 26.064H232.076V37.056H230.86V27.328H226.732V37.28H225.532V26.064ZM226.156 32.512H231.436V33.6H226.156V32.512ZM226.156 35.024H231.436V36.224H226.156V35.024ZM225.18 23.104H232.412V24.448H225.18V23.104ZM227.42 23.44H228.46V27.024H227.42V23.44ZM229.26 23.44H230.316V27.024H229.26V23.44ZM227.644 27.008H228.412V28.608C228.412 29.568 228.204 30.8 227.324 31.68C227.196 31.52 226.892 31.248 226.716 31.152C227.532 30.384 227.644 29.408 227.644 28.592V27.008ZM229.148 27.008H229.932V30.16C229.932 30.368 229.948 30.4 230.108 30.4C230.172 30.4 230.476 30.4 230.556 30.4C230.716 30.4 230.764 30.384 230.78 30.352C230.956 30.496 231.26 30.592 231.5 30.656C231.404 31.04 231.164 31.2 230.7 31.2C230.572 31.2 230.14 31.2 230.012 31.2C229.356 31.2 229.148 31.024 229.148 30.176V27.008ZM247.548 28.832H257.628V30.224H247.548V28.832ZM248.092 25.376H257.116V26.768H248.092V25.376ZM251.676 26.096H253.228V28.592C253.228 30.656 252.572 33.264 248.62 35.04C248.412 34.72 247.932 34.192 247.58 33.904C251.372 32.432 251.676 30.192 251.676 28.576V26.096ZM254.94 22.496L256.46 22.976C255.836 24.096 255.068 25.36 254.46 26.16L253.26 25.728C253.852 24.864 254.556 23.488 254.94 22.496ZM249.004 23.04L250.268 22.544C250.748 23.28 251.356 24.304 251.66 24.912L250.316 25.504C250.044 24.88 249.468 23.824 249.004 23.04ZM246.572 27.872V34.944H245.1V29.28H243.18V27.872H246.572ZM243.628 23.36L244.844 22.64C245.66 23.536 246.668 24.768 247.132 25.568L245.852 26.384C245.404 25.568 244.428 24.288 243.628 23.36ZM245.692 33.888C246.236 33.888 246.636 34.368 247.564 34.928C248.652 35.584 250.108 35.696 251.98 35.696C253.852 35.696 256.428 35.536 258.076 35.328C257.884 35.76 257.628 36.544 257.596 37.008C256.46 37.072 253.58 37.184 251.916 37.184C249.82 37.184 248.444 37.008 247.276 36.304C246.572 35.872 246.012 35.312 245.66 35.312C245.18 35.312 244.46 36.368 243.788 37.408L242.7 35.936C243.772 34.72 244.876 33.888 245.692 33.888ZM251.628 30.576L252.62 29.68C254.044 30.96 256.092 32.768 257.084 33.84L256.012 34.896C255.084 33.792 253.084 31.904 251.628 30.576ZM261.948 23.84L262.62 22.8C263.708 23.088 265.212 23.616 265.996 24L265.324 25.168C264.572 24.752 263.068 24.176 261.948 23.84ZM261.196 26.928C262.348 26.64 264.06 26.144 265.724 25.648L265.916 26.848C264.476 27.344 262.988 27.856 261.788 28.224L261.196 26.928ZM268.156 23.632H274.46V24.736H267.292L268.156 23.632ZM274.092 23.632H274.316L274.556 23.568L275.564 23.856C275.132 24.704 274.54 25.632 273.996 26.208L272.796 25.808C273.276 25.312 273.804 24.496 274.092 23.824V23.632ZM268.284 22.496L269.628 22.72C269.052 23.936 268.252 25.104 267.02 26.08C266.748 25.808 266.236 25.488 265.868 25.344C267.068 24.528 267.852 23.44 268.284 22.496ZM264.828 31.008V31.92H272.412V31.008H264.828ZM264.828 32.832V33.776H272.412V32.832H264.828ZM264.828 29.184V30.096H272.412V29.184H264.828ZM263.356 28.24H273.932V34.72H263.356V28.24ZM269.948 35.488L270.956 34.672C272.652 35.232 274.524 35.952 275.644 36.48L274.284 37.312C273.308 36.8 271.612 36.064 269.948 35.488ZM266.012 34.72L267.388 35.344C266.092 36.144 264.044 36.912 262.428 37.36C262.172 37.072 261.644 36.496 261.308 36.24C262.972 35.904 264.892 35.344 266.012 34.72ZM270.956 25.2C271.804 26.256 273.596 27.056 275.532 27.36C275.26 27.616 274.876 28.112 274.684 28.448C272.684 28 270.892 26.944 269.916 25.568L270.956 25.2ZM270.06 24.752L271.436 24.976C270.748 26.704 268.908 27.84 266.62 28.304C266.492 28.016 266.188 27.536 265.964 27.28C267.948 26.928 269.612 26.08 270.06 24.752ZM279.948 27.36H284.54V28.528H279.948V27.36ZM279.948 29.488H284.572V30.656H279.948V29.488ZM279.308 25.184H285.132V26.416H279.308V25.184ZM280.556 31.664H284.572V36.416H280.556V35.184H283.356V32.896H280.556V31.664ZM279.948 31.664H281.132V37.136H279.948V31.664ZM280.972 23.008L282.044 22.432C282.476 23.088 282.94 23.952 283.18 24.528L282.044 25.216C281.852 24.624 281.356 23.68 280.972 23.008ZM285.132 29.344H290.428V30.768H285.132V29.344ZM290.924 23.376H292.428C292.316 29.344 292.3 35.376 293.068 35.584C293.164 35.616 293.26 34.592 293.324 33.488C293.548 33.872 293.932 34.432 294.156 34.656C293.948 36.96 293.292 37.456 292.444 37.104C290.764 36.496 290.924 30.288 290.924 23.376ZM287.132 24.304H288.556V37.344H287.132V24.304ZM285.324 23.376H291.612V24.816H285.324V23.376Z" fill="#8B8B8B"/>
<circle cx="349" cy="29" r="20" fill="#AA6373"/>
<path d="M349.725 39.2685C348.408 39.2685 347.232 39.0415 346.197 38.5877C345.168 38.1339 344.353 37.5043 343.752 36.6989C343.157 35.8871 342.838 34.9474 342.793 33.88H345.804C345.842 34.4616 346.037 34.9666 346.388 35.3949C346.746 35.8168 347.213 36.1428 347.788 36.3729C348.364 36.603 349.003 36.718 349.706 36.718C350.479 36.718 351.163 36.5838 351.758 36.3153C352.359 36.0469 352.828 35.6729 353.167 35.1935C353.506 34.7077 353.675 34.1484 353.675 33.5156C353.675 32.8572 353.506 32.2788 353.167 31.7802C352.835 31.2752 352.346 30.8789 351.7 30.5913C351.061 30.3036 350.288 30.1598 349.38 30.1598H347.721V27.7436H349.38C350.109 27.7436 350.748 27.6126 351.298 27.3505C351.854 27.0884 352.288 26.7241 352.602 26.2575C352.915 25.7844 353.071 25.2315 353.071 24.5987C353.071 23.9915 352.934 23.4641 352.659 23.0167C352.391 22.5629 352.007 22.2081 351.509 21.9524C351.016 21.6967 350.435 21.5689 349.763 21.5689C349.124 21.5689 348.527 21.6871 347.971 21.9237C347.421 22.1538 346.973 22.4862 346.628 22.9208C346.283 23.3491 346.098 23.8636 346.072 24.4645H343.205C343.237 23.4034 343.55 22.4702 344.145 21.6648C344.746 20.8594 345.538 20.2298 346.523 19.7759C347.507 19.3221 348.6 19.0952 349.802 19.0952C351.061 19.0952 352.148 19.3413 353.062 19.8335C353.982 20.3192 354.692 20.968 355.19 21.7798C355.695 22.5916 355.945 23.4801 355.938 24.4453C355.945 25.5447 355.638 26.478 355.018 27.245C354.404 28.0121 353.586 28.5266 352.563 28.7887V28.9421C353.867 29.1403 354.877 29.658 355.593 30.4954C356.315 31.3327 356.673 32.3714 356.667 33.6115C356.673 34.6918 356.373 35.6602 355.766 36.5167C355.165 37.3732 354.343 38.0476 353.301 38.5398C352.26 39.0256 351.067 39.2685 349.725 39.2685Z" fill="white"/>
<path d="M383.436 30.288H386.652V31.456H383.436V30.288ZM383.5 27.616H387.324V34.128H383.5V32.912H386.092V28.832H383.5V27.616ZM382.764 27.616H383.98V34.848H382.764V27.616ZM384.012 22.528L385.5 22.864C384.86 25.104 383.772 27.248 382.572 28.624C382.284 28.368 381.66 27.904 381.292 27.68C382.508 26.464 383.468 24.528 384.012 22.528ZM383.884 24.848H389.5V26.224H383.196L383.884 24.848ZM389.068 24.848H390.508C390.508 24.848 390.508 25.376 390.492 25.584C390.3 33.12 390.124 35.712 389.516 36.512C389.148 37.04 388.78 37.2 388.236 37.264C387.708 37.328 386.86 37.328 386.028 37.296C385.996 36.864 385.82 36.208 385.548 35.792C386.444 35.856 387.244 35.872 387.596 35.872C387.884 35.872 388.044 35.808 388.204 35.584C388.684 35.024 388.892 32.352 389.068 25.168V24.848ZM376.652 27.36H381.244V28.528H376.652V27.36ZM376.652 29.488H381.26V30.656H376.652V29.488ZM376.028 25.184H381.9V26.416H376.028V25.184ZM377.276 31.664H381.244V36.416H377.276V35.184H380.028V32.896H377.276V31.664ZM376.652 31.664H377.852V37.136H376.652V31.664ZM377.628 23.008L378.684 22.384C379.164 23.04 379.692 23.904 379.932 24.48L378.828 25.216C378.588 24.624 378.076 23.68 377.628 23.008ZM398.412 23.264H408.7V24.4H398.412V23.264ZM400.076 26.16V27.504H406.828V26.16H400.076ZM398.764 25.232H408.204V28.432H398.764V25.232ZM401.468 23.664H402.684V27.888H401.468V23.664ZM404.14 23.664H405.388V27.888H404.14V23.664ZM400.46 31.648V32.432H406.556V31.648H400.46ZM400.46 33.296V34.096H406.556V33.296H400.46ZM400.46 30.016V30.784H406.556V30.016H400.46ZM399.052 29.104H408.028V34.992H399.052V29.104ZM404.172 35.84L405.148 34.992C406.524 35.44 408.092 36.064 409.02 36.528L407.724 37.392C406.924 36.928 405.516 36.304 404.172 35.84ZM401.644 34.96L402.716 35.728C401.708 36.448 400.108 37.04 398.684 37.376C398.508 37.072 398.156 36.608 397.868 36.352C399.26 36.048 400.796 35.504 401.644 34.96ZM396.972 22.56L398.38 22.96C397.468 25.744 396.012 28.656 394.412 30.544C394.284 30.176 393.9 29.344 393.66 28.944C395.004 27.392 396.236 24.976 396.972 22.56ZM395.692 26.688L397.1 25.296L397.132 25.328V37.344H395.692V26.688ZM418.652 27.712H420.22V37.344H418.652V27.712ZM415.436 30.48V31.632H423.644V30.48H415.436ZM415.436 28.208V29.36H423.644V28.208H415.436ZM413.948 27.024H425.196V32.816H413.948V27.024ZM412.38 33.872H426.636V35.2H412.38V33.872ZM414.812 24.08V25.344H417.532V24.08H414.812ZM413.468 23.12H418.956V26.288H413.468V23.12ZM421.452 24.08V25.344H424.204V24.08H421.452ZM420.092 23.12H425.628V26.288H420.092V23.12ZM432.38 28.512H436.236V29.904H432.38V28.512ZM435.644 28.512H437.116C437.116 28.512 437.116 28.912 437.116 29.104C437.036 32.608 436.956 34 436.604 34.464C436.316 34.8 436.028 34.928 435.58 34.992C435.164 35.04 434.444 35.04 433.676 35.008C433.644 34.576 433.484 33.984 433.26 33.6C433.916 33.664 434.54 33.664 434.812 33.664C435.036 33.664 435.196 33.632 435.308 33.488C435.532 33.216 435.596 32.048 435.644 28.752V28.512ZM440.284 23.392L441.196 22.464C442.14 22.96 443.372 23.712 443.98 24.256L443.02 25.28C442.444 24.72 441.244 23.92 440.284 23.392ZM442.412 27.632L443.932 28C442.572 32.176 440.204 35.328 436.972 37.28C436.748 36.96 436.188 36.336 435.868 36.032C439.036 34.352 441.244 31.424 442.412 27.632ZM432.476 25.072H444.844V26.56H432.476V25.072ZM431.484 25.072H433.068V29.68C433.068 32 432.812 35.376 431.356 37.504C431.1 37.2 430.428 36.656 430.076 36.48C431.356 34.528 431.484 31.744 431.484 29.664V25.072ZM438.076 22.512H439.644C439.58 29.52 441.116 35.696 442.988 35.696C443.404 35.696 443.596 34.88 443.692 32.8C444.028 33.136 444.588 33.488 444.988 33.632C444.732 36.48 444.204 37.232 442.86 37.232C439.516 37.232 438.124 30.016 438.076 22.512ZM449.148 25.456H462.204V26.976H449.148V25.456ZM448.444 35.184H462.876V36.704H448.444V35.184ZM451.276 28.032L452.78 27.664C453.42 29.776 454.06 32.416 454.332 34.208L452.716 34.624C452.492 32.848 451.852 30.096 451.276 28.032ZM458.54 27.696L460.236 28C459.532 30.656 458.508 33.84 457.644 35.824L456.156 35.472C457.036 33.472 458.028 30.112 458.54 27.696ZM454.348 22.752L455.836 22.368C456.172 23.184 456.524 24.24 456.7 24.928L455.132 25.392C454.988 24.688 454.652 23.584 454.348 22.752Z" fill="#323232"/>
</svg>
