<svg width="467" height="60" viewBox="0 0 467 60" fill="none" xmlns="http://www.w3.org/2000/svg">
<rect width="467" height="60" rx="30" fill="#F1F0F0"/>
<circle cx="30" cy="30" r="20" fill="#DCDCDC"/>
<path d="M68.544 30.74H74.672V31.876H68.544V30.74ZM68.544 33.332H74.672V34.468H68.544V33.332ZM68.528 35.924H75.296V37.188H68.528V35.924ZM66.4 24.564H75.056V27.348H73.696V25.86H67.696V27.38H66.4V24.564ZM71.168 29.076H72.56V36.548H71.168V29.076ZM69.04 28.084H74.88V29.364H69.04V37.844H67.6V29.412L68.896 28.084H69.04ZM70.352 22.948L71.776 23.252C71.296 24.9587 70.624 26.4947 69.76 27.86C68.9067 29.2147 67.8613 30.3293 66.624 31.204C66.5707 31.0973 66.4907 30.964 66.384 30.804C66.288 30.6333 66.1813 30.468 66.064 30.308C65.9573 30.1373 65.856 30.004 65.76 29.908C66.88 29.1613 67.824 28.1907 68.592 26.996C69.3707 25.8013 69.9573 24.452 70.352 22.948ZM70.768 26.804L72.032 26.308C72.2133 26.6173 72.3893 26.9587 72.56 27.332C72.7307 27.7053 72.864 28.0253 72.96 28.292L71.632 28.868C71.5467 28.5907 71.4187 28.26 71.248 27.876C71.088 27.4813 70.928 27.124 70.768 26.804ZM60.784 24.1H66.08V25.476H60.784V24.1ZM62.416 28.82H65.92V35.844H62.416V34.516H64.608V30.132H62.416V28.82ZM62.72 24.628L64.144 24.852C63.9733 25.9507 63.7547 27.0227 63.488 28.068C63.2213 29.1027 62.896 30.0733 62.512 30.98C62.1387 31.876 61.696 32.66 61.184 33.332C61.1307 33.2253 61.056 33.0867 60.96 32.916C60.864 32.7347 60.7573 32.5533 60.64 32.372C60.5333 32.1907 60.4373 32.0467 60.352 31.94C60.7787 31.364 61.1413 30.692 61.44 29.924C61.7493 29.156 62.0053 28.324 62.208 27.428C62.4213 26.5213 62.592 25.588 62.72 24.628ZM61.872 28.82H63.168V37.06H61.872V28.82ZM79.312 27.844H83.968V29.028H79.312V27.844ZM79.312 29.988H83.968V31.156H79.312V29.988ZM78.672 25.684H84.512V26.9H78.672V25.684ZM79.936 32.148H84.048V36.916H79.936V35.668H82.784V33.38H79.936V32.148ZM79.296 32.148H80.544V37.636H79.296V32.148ZM80.16 23.524L81.28 22.884C81.536 23.204 81.792 23.5613 82.048 23.956C82.304 24.34 82.496 24.6813 82.624 24.98L81.472 25.732C81.3547 25.4333 81.168 25.076 80.912 24.66C80.6667 24.244 80.416 23.8653 80.16 23.524ZM91.664 23.588H93.072C93.072 23.588 93.072 23.6627 93.072 23.812C93.072 23.9613 93.0667 24.084 93.056 24.18C93.0133 25.4067 92.96 26.404 92.896 27.172C92.832 27.9293 92.7573 28.5107 92.672 28.916C92.5867 29.3213 92.4747 29.604 92.336 29.764C92.208 29.9347 92.064 30.0573 91.904 30.132C91.744 30.2067 91.552 30.26 91.328 30.292C91.136 30.3133 90.88 30.324 90.56 30.324C90.2507 30.324 89.92 30.3133 89.568 30.292C89.5573 30.1 89.52 29.8813 89.456 29.636C89.392 29.3907 89.3067 29.1827 89.2 29.012C89.5093 29.0333 89.792 29.0493 90.048 29.06C90.3147 29.0707 90.5067 29.0707 90.624 29.06C90.752 29.06 90.848 29.0547 90.912 29.044C90.9867 29.0227 91.0613 28.9747 91.136 28.9C91.2107 28.7827 91.28 28.5533 91.344 28.212C91.408 27.86 91.4667 27.332 91.52 26.628C91.5733 25.924 91.6213 24.9907 91.664 23.828V23.588ZM88.464 24.132H89.84C89.7547 24.836 89.6373 25.524 89.488 26.196C89.3387 26.868 89.1147 27.508 88.816 28.116C88.528 28.724 88.1387 29.2787 87.648 29.78C87.1573 30.2813 86.5333 30.7187 85.776 31.092C85.6907 30.932 85.5627 30.7453 85.392 30.532C85.2213 30.308 85.056 30.1373 84.896 30.02C85.5893 29.7107 86.1547 29.3427 86.592 28.916C87.0293 28.4787 87.3707 28.004 87.616 27.492C87.872 26.9693 88.0587 26.4253 88.176 25.86C88.304 25.284 88.4 24.708 88.464 24.132ZM85.264 23.588H92.32V24.868H85.264V23.588ZM85.888 25.284L86.992 25.508C86.8533 26.0307 86.656 26.5587 86.4 27.092C86.1547 27.6253 85.856 28.0733 85.504 28.436L84.528 27.732C84.8373 27.4547 85.1093 27.092 85.344 26.644C85.5787 26.196 85.76 25.7427 85.888 25.284ZM86.512 32.004H87.808V35.844C87.808 36.0787 87.8453 36.228 87.92 36.292C87.9947 36.3453 88.1653 36.372 88.432 36.372C88.496 36.372 88.6027 36.372 88.752 36.372C88.912 36.372 89.0827 36.372 89.264 36.372C89.456 36.372 89.632 36.372 89.792 36.372C89.952 36.372 90.0693 36.372 90.144 36.372C90.304 36.372 90.4213 36.3293 90.496 36.244C90.5813 36.1587 90.64 35.9773 90.672 35.7C90.7147 35.412 90.7413 34.9853 90.752 34.42C90.88 34.5267 91.0613 34.6333 91.296 34.74C91.5307 34.836 91.7333 34.9107 91.904 34.964C91.8613 35.6893 91.7813 36.2493 91.664 36.644C91.5573 37.0493 91.392 37.3267 91.168 37.476C90.9547 37.636 90.656 37.716 90.272 37.716C90.1973 37.716 90.064 37.716 89.872 37.716C89.6907 37.716 89.488 37.716 89.264 37.716C89.0507 37.716 88.848 37.716 88.656 37.716C88.4747 37.716 88.352 37.716 88.288 37.716C87.8187 37.716 87.4507 37.6573 87.184 37.54C86.928 37.4333 86.752 37.2413 86.656 36.964C86.56 36.6973 86.512 36.324 86.512 35.844V32.004ZM85.12 32.116L86.208 32.468C86.144 32.9267 86.0587 33.4173 85.952 33.94C85.856 34.452 85.7387 34.9427 85.6 35.412C85.472 35.8707 85.312 36.276 85.12 36.628L84.032 36.1C84.2133 35.7587 84.3733 35.364 84.512 34.916C84.6507 34.468 84.768 33.9987 84.864 33.508C84.9707 33.0173 85.056 32.5533 85.12 32.116ZM87.616 31.316L88.576 30.644C88.9387 31.06 89.2853 31.5293 89.616 32.052C89.9573 32.564 90.208 33.0173 90.368 33.412L89.36 34.18C89.264 33.9133 89.12 33.6147 88.928 33.284C88.7467 32.9427 88.5387 32.6013 88.304 32.26C88.08 31.9187 87.8507 31.604 87.616 31.316ZM90.864 32.388L91.888 31.876C92.144 32.2707 92.3893 32.6973 92.624 33.156C92.8587 33.6147 93.0667 34.068 93.248 34.516C93.44 34.964 93.5787 35.3693 93.664 35.732L92.544 36.324C92.4693 35.972 92.3413 35.572 92.16 35.124C91.9893 34.6653 91.792 34.2013 91.568 33.732C91.344 33.252 91.1093 32.804 90.864 32.388ZM101.136 25.108V27.748H107.2V25.108H101.136ZM99.68 23.652H108.752V29.204H99.68V23.652ZM97.408 30.74H103.28V37.732H101.776V32.196H98.832V37.844H97.408V30.74ZM104.864 30.74H111.008V37.764H109.488V32.196H106.304V37.844H104.864V30.74ZM98.048 35.556H102.4V37.012H98.048V35.556ZM105.568 35.556H110.208V37.012H105.568V35.556ZM115.024 24.788H120.512V26.196H115.024V24.788ZM116.992 25.588H118.512V33.236H116.992V25.588ZM114.656 33.428C115.157 33.2787 115.733 33.1027 116.384 32.9C117.045 32.6973 117.744 32.4787 118.48 32.244C119.216 31.9987 119.952 31.7533 120.688 31.508L120.944 32.836C119.952 33.1987 118.955 33.5613 117.952 33.924C116.96 34.276 116.064 34.596 115.264 34.884L114.656 33.428ZM120.624 23.7H129.696V24.996H120.624V23.7ZM122.768 29.892V31.22H127.616V29.892H122.768ZM122.768 32.292V33.636H127.616V32.292H122.768ZM122.768 27.508V28.82H127.616V27.508H122.768ZM121.36 26.372H129.104V34.772H121.36V26.372ZM124.336 24.388L126.08 24.612C125.931 25.092 125.771 25.572 125.6 26.052C125.44 26.5213 125.291 26.9267 125.152 27.268L123.792 27.012C123.899 26.6387 124.005 26.2067 124.112 25.716C124.219 25.2147 124.293 24.772 124.336 24.388ZM123.072 34.9L124.336 35.748C123.995 36.0147 123.589 36.2813 123.12 36.548C122.661 36.8147 122.176 37.06 121.664 37.284C121.163 37.508 120.677 37.6947 120.208 37.844C120.101 37.6947 119.957 37.5187 119.776 37.316C119.595 37.1133 119.429 36.9427 119.28 36.804C119.728 36.6547 120.192 36.4787 120.672 36.276C121.163 36.0627 121.621 35.8333 122.048 35.588C122.475 35.3427 122.816 35.1133 123.072 34.9ZM125.616 35.78L126.752 34.964C127.115 35.1453 127.493 35.3533 127.888 35.588C128.293 35.8227 128.677 36.0627 129.04 36.308C129.413 36.5427 129.723 36.7613 129.968 36.964L128.768 37.876C128.555 37.6733 128.267 37.4493 127.904 37.204C127.552 36.9587 127.173 36.708 126.768 36.452C126.373 36.196 125.989 35.972 125.616 35.78Z" fill="#8B8B8B"/>
<path d="M32.3388 20.3636V40H29.3665V23.3359H29.2514L24.5533 26.4041V23.5661L29.4528 20.3636H32.3388Z" fill="#8B8B8B"/>
<circle cx="182" cy="30" r="20" fill="#DCDCDC"/>
<path d="M221.884 28.676H226.54V30.132H221.884V28.676ZM221.164 28.676H222.668V35.508C222.668 36.148 222.78 36.244 223.468 36.244C223.788 36.244 225.26 36.244 225.66 36.244C226.332 36.244 226.444 35.844 226.524 33.62C226.86 33.876 227.5 34.148 227.916 34.244C227.74 36.9 227.324 37.668 225.772 37.668C225.42 37.668 223.612 37.668 223.276 37.668C221.676 37.668 221.164 37.22 221.164 35.508V28.676ZM221.116 23.732H227.292V31.188H225.836V25.188H221.116V23.732ZM213.532 26.564H220.076V37.556H218.86V27.828H214.732V37.78H213.532V26.564ZM214.156 33.012H219.436V34.1H214.156V33.012ZM214.156 35.524H219.436V36.724H214.156V35.524ZM213.18 23.604H220.412V24.948H213.18V23.604ZM215.42 23.94H216.46V27.524H215.42V23.94ZM217.26 23.94H218.316V27.524H217.26V23.94ZM215.644 27.508H216.412V29.108C216.412 30.068 216.204 31.3 215.324 32.18C215.196 32.02 214.892 31.748 214.716 31.652C215.532 30.884 215.644 29.908 215.644 29.092V27.508ZM217.148 27.508H217.932V30.66C217.932 30.868 217.948 30.9 218.108 30.9C218.172 30.9 218.476 30.9 218.556 30.9C218.716 30.9 218.764 30.884 218.78 30.852C218.956 30.996 219.26 31.092 219.5 31.156C219.404 31.54 219.164 31.7 218.7 31.7C218.572 31.7 218.14 31.7 218.012 31.7C217.356 31.7 217.148 31.524 217.148 30.676V27.508ZM235.548 29.332H245.628V30.724H235.548V29.332ZM236.092 25.876H245.116V27.268H236.092V25.876ZM239.676 26.596H241.228V29.092C241.228 31.156 240.572 33.764 236.62 35.54C236.412 35.22 235.932 34.692 235.58 34.404C239.372 32.932 239.676 30.692 239.676 29.076V26.596ZM242.94 22.996L244.46 23.476C243.836 24.596 243.068 25.86 242.46 26.66L241.26 26.228C241.852 25.364 242.556 23.988 242.94 22.996ZM237.004 23.54L238.268 23.044C238.748 23.78 239.356 24.804 239.66 25.412L238.316 26.004C238.044 25.38 237.468 24.324 237.004 23.54ZM234.572 28.372V35.444H233.1V29.78H231.18V28.372H234.572ZM231.628 23.86L232.844 23.14C233.66 24.036 234.668 25.268 235.132 26.068L233.852 26.884C233.404 26.068 232.428 24.788 231.628 23.86ZM233.692 34.388C234.236 34.388 234.636 34.868 235.564 35.428C236.652 36.084 238.108 36.196 239.98 36.196C241.852 36.196 244.428 36.036 246.076 35.828C245.884 36.26 245.628 37.044 245.596 37.508C244.46 37.572 241.58 37.684 239.916 37.684C237.82 37.684 236.444 37.508 235.276 36.804C234.572 36.372 234.012 35.812 233.66 35.812C233.18 35.812 232.46 36.868 231.788 37.908L230.7 36.436C231.772 35.22 232.876 34.388 233.692 34.388ZM239.628 31.076L240.62 30.18C242.044 31.46 244.092 33.268 245.084 34.34L244.012 35.396C243.084 34.292 241.084 32.404 239.628 31.076ZM249.948 24.34L250.62 23.3C251.708 23.588 253.212 24.116 253.996 24.5L253.324 25.668C252.572 25.252 251.068 24.676 249.948 24.34ZM249.196 27.428C250.348 27.14 252.06 26.644 253.724 26.148L253.916 27.348C252.476 27.844 250.988 28.356 249.788 28.724L249.196 27.428ZM256.156 24.132H262.46V25.236H255.292L256.156 24.132ZM262.092 24.132H262.316L262.556 24.068L263.564 24.356C263.132 25.204 262.54 26.132 261.996 26.708L260.796 26.308C261.276 25.812 261.804 24.996 262.092 24.324V24.132ZM256.284 22.996L257.628 23.22C257.052 24.436 256.252 25.604 255.02 26.58C254.748 26.308 254.236 25.988 253.868 25.844C255.068 25.028 255.852 23.94 256.284 22.996ZM252.828 31.508V32.42H260.412V31.508H252.828ZM252.828 33.332V34.276H260.412V33.332H252.828ZM252.828 29.684V30.596H260.412V29.684H252.828ZM251.356 28.74H261.932V35.22H251.356V28.74ZM257.948 35.988L258.956 35.172C260.652 35.732 262.524 36.452 263.644 36.98L262.284 37.812C261.308 37.3 259.612 36.564 257.948 35.988ZM254.012 35.22L255.388 35.844C254.092 36.644 252.044 37.412 250.428 37.86C250.172 37.572 249.644 36.996 249.308 36.74C250.972 36.404 252.892 35.844 254.012 35.22ZM258.956 25.7C259.804 26.756 261.596 27.556 263.532 27.86C263.26 28.116 262.876 28.612 262.684 28.948C260.684 28.5 258.892 27.444 257.916 26.068L258.956 25.7ZM258.06 25.252L259.436 25.476C258.748 27.204 256.908 28.34 254.62 28.804C254.492 28.516 254.188 28.036 253.964 27.78C255.948 27.428 257.612 26.58 258.06 25.252ZM267.948 27.86H272.54V29.028H267.948V27.86ZM267.948 29.988H272.572V31.156H267.948V29.988ZM267.308 25.684H273.132V26.916H267.308V25.684ZM268.556 32.164H272.572V36.916H268.556V35.684H271.356V33.396H268.556V32.164ZM267.948 32.164H269.132V37.636H267.948V32.164ZM268.972 23.508L270.044 22.932C270.476 23.588 270.94 24.452 271.18 25.028L270.044 25.716C269.852 25.124 269.356 24.18 268.972 23.508ZM273.132 29.844H278.428V31.268H273.132V29.844ZM278.924 23.876H280.428C280.316 29.844 280.3 35.876 281.068 36.084C281.164 36.116 281.26 35.092 281.324 33.988C281.548 34.372 281.932 34.932 282.156 35.156C281.948 37.46 281.292 37.956 280.444 37.604C278.764 36.996 278.924 30.788 278.924 23.876ZM275.132 24.804H276.556V37.844H275.132V24.804ZM273.324 23.876H279.612V25.316H273.324V23.876Z" fill="#8B8B8B"/>
<path d="M175.889 40V37.8523L182.533 30.968C183.243 30.2202 183.828 29.565 184.288 29.0025C184.755 28.4336 185.103 27.8935 185.333 27.3821C185.563 26.8707 185.678 26.3274 185.678 25.7521C185.678 25.1001 185.525 24.5376 185.218 24.0646C184.911 23.5852 184.493 23.2177 183.962 22.962C183.431 22.6999 182.834 22.5689 182.169 22.5689C181.466 22.5689 180.852 22.7127 180.328 23.0004C179.804 23.288 179.401 23.6939 179.12 24.218C178.839 24.7422 178.698 25.3558 178.698 26.0589H175.87C175.87 24.8636 176.145 23.8185 176.694 22.9237C177.244 22.0288 177.998 21.3352 178.957 20.843C179.916 20.3445 181.006 20.0952 182.227 20.0952C183.46 20.0952 184.547 20.3413 185.487 20.8335C186.433 21.3192 187.171 21.984 187.701 22.8278C188.232 23.6651 188.497 24.6112 188.497 25.6658C188.497 26.3945 188.36 27.1072 188.085 27.804C187.816 28.5007 187.347 29.2773 186.675 30.1339C186.004 30.984 185.071 32.0163 183.876 33.2308L179.973 37.3153V37.4592H188.814V40H175.889Z" fill="#8B8B8B"/>
<circle cx="334" cy="30" r="20" fill="#AA6373"/>
<path d="M365.772 27.844H370.812V29.028H365.772V27.844ZM365.772 29.988H370.796V31.156H365.772V29.988ZM365.068 25.684H371.276V26.9H365.068V25.684ZM366.46 32.148H370.748V36.916H366.46V35.668H369.42V33.38H366.46V32.148ZM365.788 32.148H367.084V37.636H365.788V32.148ZM366.844 23.508L368.012 22.916C368.247 23.2467 368.476 23.6093 368.7 24.004C368.924 24.388 369.1 24.7293 369.228 25.028L368.012 25.7C367.884 25.412 367.708 25.06 367.484 24.644C367.271 24.2173 367.057 23.8387 366.844 23.508ZM371.596 24.276H379.82V25.764H371.596V24.276ZM375.98 24.74H377.516V35.748C377.516 36.2067 377.452 36.564 377.324 36.82C377.196 37.076 376.972 37.268 376.652 37.396C376.332 37.524 375.905 37.5987 375.372 37.62C374.839 37.652 374.183 37.668 373.404 37.668C373.383 37.5293 373.335 37.364 373.26 37.172C373.196 36.98 373.121 36.788 373.036 36.596C372.961 36.404 372.881 36.2387 372.796 36.1C373.191 36.1213 373.569 36.1373 373.932 36.148C374.305 36.148 374.636 36.148 374.924 36.148C375.212 36.148 375.415 36.148 375.532 36.148C375.703 36.1373 375.82 36.1053 375.884 36.052C375.948 35.988 375.98 35.8813 375.98 35.732V24.74ZM389.628 28.212H391.18V37.844H389.628V28.212ZM386.396 30.964V32.116H394.604V30.964H386.396ZM386.396 28.708V29.844H394.604V28.708H386.396ZM384.924 27.508H396.156V33.316H384.924V27.508ZM383.356 34.372H397.612V35.684H383.356V34.372ZM385.788 24.58V25.828H388.492V24.58H385.788ZM384.428 23.62H389.916V26.788H384.428V23.62ZM392.412 24.58V25.828H395.164V24.58H392.412ZM391.068 23.62H396.604V26.788H391.068V23.62ZM403.356 28.996H407.196V30.388H403.356V28.996ZM406.62 28.996H408.092C408.092 28.996 408.092 29.0333 408.092 29.108C408.092 29.1827 408.087 29.268 408.076 29.364C408.076 29.46 408.076 29.54 408.076 29.604C408.055 30.7667 408.028 31.716 407.996 32.452C407.964 33.188 407.916 33.7533 407.852 34.148C407.788 34.532 407.697 34.7987 407.58 34.948C407.441 35.1187 407.292 35.2413 407.132 35.316C406.972 35.3907 406.775 35.444 406.54 35.476C406.337 35.508 406.065 35.524 405.724 35.524C405.383 35.524 405.02 35.5187 404.636 35.508C404.625 35.284 404.583 35.0387 404.508 34.772C404.433 34.5053 404.337 34.276 404.22 34.084C404.551 34.116 404.86 34.1373 405.148 34.148C405.436 34.1587 405.649 34.164 405.788 34.164C405.895 34.164 405.985 34.1533 406.06 34.132C406.145 34.1 406.22 34.052 406.284 33.988C406.359 33.892 406.417 33.684 406.46 33.364C406.503 33.0333 406.535 32.5373 406.556 31.876C406.588 31.2147 406.609 30.3347 406.62 29.236V28.996ZM411.244 23.876L412.172 22.964C412.492 23.124 412.828 23.3107 413.18 23.524C413.532 23.7267 413.863 23.9347 414.172 24.148C414.481 24.3613 414.737 24.5587 414.94 24.74L413.98 25.764C413.788 25.5827 413.537 25.38 413.228 25.156C412.929 24.932 412.604 24.708 412.252 24.484C411.911 24.26 411.575 24.0573 411.244 23.876ZM413.372 28.132L414.892 28.5C414.22 30.58 413.292 32.404 412.108 33.972C410.935 35.54 409.543 36.8093 407.932 37.78C407.868 37.6627 407.767 37.524 407.628 37.364C407.489 37.2147 407.351 37.06 407.212 36.9C407.073 36.7507 406.945 36.628 406.828 36.532C408.417 35.6787 409.761 34.5373 410.86 33.108C411.959 31.6787 412.796 30.02 413.372 28.132ZM403.452 25.572H415.82V27.06H403.452V25.572ZM402.444 25.572H404.028V30.164C404.028 30.7507 404.007 31.3853 403.964 32.068C403.921 32.7507 403.841 33.4493 403.724 34.164C403.607 34.868 403.436 35.5507 403.212 36.212C402.988 36.8733 402.689 37.4653 402.316 37.988C402.241 37.892 402.119 37.7747 401.948 37.636C401.788 37.4973 401.623 37.364 401.452 37.236C401.292 37.1187 401.153 37.028 401.036 36.964C401.473 36.324 401.788 35.6093 401.98 34.82C402.183 34.02 402.311 33.2147 402.364 32.404C402.417 31.5933 402.444 30.8413 402.444 30.148V25.572ZM409.036 23.012H410.62C410.609 24.42 410.657 25.7747 410.764 27.076C410.871 28.3667 411.025 29.5667 411.228 30.676C411.431 31.7853 411.671 32.7507 411.948 33.572C412.225 34.3933 412.535 35.0333 412.876 35.492C413.228 35.9507 413.585 36.18 413.948 36.18C414.161 36.18 414.321 35.956 414.428 35.508C414.535 35.06 414.609 34.3187 414.652 33.284C414.833 33.4547 415.047 33.62 415.292 33.78C415.537 33.94 415.761 34.0573 415.964 34.132C415.879 35.0813 415.756 35.8173 415.596 36.34C415.436 36.8627 415.212 37.2253 414.924 37.428C414.647 37.6307 414.284 37.732 413.836 37.732C413.281 37.732 412.775 37.5453 412.316 37.172C411.868 36.7987 411.463 36.2707 411.1 35.588C410.748 34.9053 410.444 34.1053 410.188 33.188C409.943 32.2707 409.735 31.2627 409.564 30.164C409.393 29.0653 409.265 27.9133 409.18 26.708C409.095 25.492 409.047 24.26 409.036 23.012ZM420.108 25.956H433.18V27.476H420.108V25.956ZM419.42 35.668H433.836V37.204H419.42V35.668ZM422.236 28.516L423.756 28.164C423.969 28.8573 424.172 29.5987 424.364 30.388C424.567 31.1667 424.748 31.9347 424.908 32.692C425.079 33.4387 425.207 34.1107 425.292 34.708L423.676 35.108C423.612 34.5107 423.5 33.8333 423.34 33.076C423.191 32.3187 423.015 31.5453 422.812 30.756C422.62 29.956 422.428 29.2093 422.236 28.516ZM429.5 28.18L431.212 28.5C431.031 29.1613 430.833 29.8493 430.62 30.564C430.417 31.268 430.199 31.9667 429.964 32.66C429.74 33.3533 429.511 34.0147 429.276 34.644C429.052 35.2627 428.833 35.8173 428.62 36.308L427.116 35.956C427.34 35.4653 427.564 34.9 427.788 34.26C428.023 33.6093 428.247 32.932 428.46 32.228C428.673 31.524 428.871 30.8253 429.052 30.132C429.233 29.4387 429.383 28.788 429.5 28.18ZM425.324 23.252L426.812 22.868C426.972 23.2733 427.132 23.716 427.292 24.196C427.452 24.6653 427.575 25.076 427.66 25.428L426.092 25.876C426.028 25.524 425.921 25.1027 425.772 24.612C425.623 24.1107 425.473 23.6573 425.324 23.252Z" fill="#323232"/>
<path d="M334.725 40.2685C333.408 40.2685 332.232 40.0415 331.197 39.5877C330.168 39.1339 329.353 38.5043 328.752 37.6989C328.157 36.8871 327.838 35.9474 327.793 34.88H330.804C330.842 35.4616 331.037 35.9666 331.388 36.3949C331.746 36.8168 332.213 37.1428 332.788 37.3729C333.364 37.603 334.003 37.718 334.706 37.718C335.479 37.718 336.163 37.5838 336.758 37.3153C337.359 37.0469 337.828 36.6729 338.167 36.1935C338.506 35.7077 338.675 35.1484 338.675 34.5156C338.675 33.8572 338.506 33.2788 338.167 32.7802C337.835 32.2752 337.346 31.8789 336.7 31.5913C336.061 31.3036 335.288 31.1598 334.38 31.1598H332.721V28.7436H334.38C335.109 28.7436 335.748 28.6126 336.298 28.3505C336.854 28.0884 337.288 27.7241 337.602 27.2575C337.915 26.7844 338.071 26.2315 338.071 25.5987C338.071 24.9915 337.934 24.4641 337.659 24.0167C337.391 23.5629 337.007 23.2081 336.509 22.9524C336.016 22.6967 335.435 22.5689 334.763 22.5689C334.124 22.5689 333.527 22.6871 332.971 22.9237C332.421 23.1538 331.973 23.4862 331.628 23.9208C331.283 24.3491 331.098 24.8636 331.072 25.4645H328.205C328.237 24.4034 328.55 23.4702 329.145 22.6648C329.746 21.8594 330.538 21.2298 331.523 20.7759C332.507 20.3221 333.6 20.0952 334.802 20.0952C336.061 20.0952 337.148 20.3413 338.062 20.8335C338.982 21.3192 339.692 21.968 340.19 22.7798C340.695 23.5916 340.945 24.4801 340.938 25.4453C340.945 26.5447 340.638 27.478 340.018 28.245C339.404 29.0121 338.586 29.5266 337.563 29.7887V29.9421C338.867 30.1403 339.877 30.658 340.593 31.4954C341.315 32.3327 341.673 33.3714 341.667 34.6115C341.673 35.6918 341.373 36.6602 340.766 37.5167C340.165 38.3732 339.343 39.0476 338.301 39.5398C337.26 40.0256 336.067 40.2685 334.725 40.2685Z" fill="white"/>
</svg>
