<svg width="300" height="54" viewBox="0 0 300 54" fill="none" xmlns="http://www.w3.org/2000/svg">
<rect width="300" height="54" rx="10" fill="#C88370"/>
<path d="M93.42 23.02H101.74V25.44H93.42V23.02ZM84.86 32.4H103.14V34.82H84.86V32.4ZM92.06 17.26H94.64V33.74H92.06V17.26ZM115.86 24.26V25.08H122.7V24.26H115.86ZM115.86 22.18V23H122.7V22.18H115.86ZM113.68 20.88H125V26.4H113.68V20.88ZM112.84 27.26C115.72 27.26 120.18 27.2 124.36 27.12L124.3 28.76C120.26 28.88 116 29 113.04 29.06L112.84 27.26ZM121.66 26.5L123.24 25.64C124.24 26.46 125.46 27.66 126.02 28.48L124.32 29.44C123.8 28.64 122.64 27.38 121.66 26.5ZM118.1 17.18H120.42V28L118.1 28.24V17.18ZM112.42 29.72H125.78V31.56H112.42V29.72ZM120.92 28.24H123.24V33.6C123.24 34.68 123.02 35.22 122.24 35.52C121.48 35.84 120.42 35.84 118.96 35.84C118.86 35.24 118.58 34.4 118.3 33.84C119.22 33.88 120.24 33.88 120.54 33.86C120.82 33.86 120.92 33.78 120.92 33.54V28.24ZM114.2 32.18L115.96 31.1C116.84 31.86 117.92 32.96 118.44 33.72L116.54 34.94C116.1 34.18 115.06 33 114.2 32.18ZM112.86 18.38H125.6V20.12H112.86V18.38ZM111.14 17.1L113.4 17.8C112.1 21.22 110.02 24.82 107.84 27.1C107.62 26.52 106.98 25.2 106.56 24.62C108.38 22.8 110.12 19.96 111.14 17.1ZM109.2 22.62L111.48 20.34L111.5 20.36V35.78H109.2V22.62ZM140 22.06H147.1V23.8H140V32.3H137.9V23.4L139.14 22.06H140ZM142.66 19.96L144.88 20.48C144.36 21.58 143.86 22.7 143.42 23.44L141.6 22.96C141.98 22.14 142.44 20.88 142.66 19.96ZM133.16 30.8C133.84 29.9 134.8 28.44 135.6 27.08L136.98 28.42C136.34 29.66 135.54 31.02 134.78 32.24L133.16 30.8ZM132.56 24.6L133.8 23.28C134.66 23.66 135.74 24.32 136.26 24.84L134.96 26.3C134.48 25.78 133.42 25.04 132.56 24.6ZM133.52 21.26L134.8 19.96C135.66 20.34 136.74 20.98 137.28 21.5L135.94 22.92C135.44 22.4 134.38 21.7 133.52 21.26ZM139.08 19.82L141.02 20.36C140.12 22.72 138.68 25.08 137.12 26.58C136.86 26.18 136.16 25.3 135.78 24.9C137.16 23.7 138.38 21.78 139.08 19.82ZM139.4 24.78H146.6V26.34H139.4V24.78ZM139.4 27.36H146.6V28.92H139.4V27.36ZM139.22 29.98H147.34V31.72H139.22V29.98ZM141.8 23.06H143.88V31.32H141.8V23.06ZM130.42 17.74H147.52V19.88H132.76V35.84H130.42V17.74ZM131.94 32.84H148.06V35H131.94V32.84ZM152.06 18.62H161.44V20.58H152.06V18.62ZM151.78 27.36H161.66V29.32H151.78V27.36ZM152.54 21.6H160.98V23.54H152.54V21.6ZM152.66 24.48H160.88V26.42H152.66V24.48ZM155.68 28.2H157.9V33.56C157.9 34.54 157.76 35.12 157.1 35.46C156.48 35.78 155.66 35.82 154.56 35.82C154.48 35.2 154.18 34.34 153.92 33.76C154.54 33.78 155.2 33.78 155.4 33.76C155.62 33.76 155.68 33.7 155.68 33.52V28.2ZM155.64 17.14H157.9V22.86H155.64V17.14ZM153 29.68L154.98 30.04C154.66 31.74 154.02 33.42 153.28 34.52C152.86 34.22 151.96 33.8 151.46 33.62C152.24 32.64 152.74 31.14 153 29.68ZM158.46 30.34L160.24 29.66C160.74 30.54 161.26 31.72 161.44 32.48L159.58 33.28C159.4 32.52 158.92 31.28 158.46 30.34ZM163.24 20.64H168.9V22.82H163.24V20.64ZM165.66 21.48H166.8V24.92C166.8 26.9 167.54 31.3 170.78 33.7C170.36 34.24 169.68 35.22 169.34 35.8C167 34.12 165.9 30.68 165.64 28.96C165.38 30.74 164.1 34.02 161.44 35.8C161.2 35.28 160.52 34.26 160.1 33.82C163.74 31.38 164.48 26.94 164.48 24.92V21.48H165.66ZM162.8 16.98L165.2 17.34C164.74 20.98 163.82 24.5 162.4 26.74C162 26.34 160.96 25.58 160.4 25.24C161.72 23.32 162.46 20.18 162.8 16.98ZM168.24 20.64H168.56L168.92 20.56L170.5 20.96C170.26 22.9 169.88 25.14 169.5 26.6L167.62 26.06C167.86 24.76 168.1 22.64 168.24 21V20.64ZM175.18 18.94L176.22 17.32C177.56 17.64 179.46 18.28 180.46 18.76L179.38 20.58C178.46 20.08 176.56 19.36 175.18 18.94ZM174.3 22.34C175.78 22.06 177.94 21.54 180.06 21.06L180.28 22.94C178.54 23.46 176.7 24 175.2 24.42L174.3 22.34ZM183.16 18.36H190.84V20.04H181.82L183.16 18.36ZM190.28 18.36H190.62L190.98 18.28L192.56 18.68C192.04 19.78 191.32 20.98 190.66 21.72L188.8 21.16C189.34 20.52 189.94 19.48 190.28 18.62V18.36ZM185.2 19.06H187.36C186.96 21.92 185.84 23.64 181.36 24.54C181.16 24.06 180.66 23.26 180.26 22.84C184.12 22.24 184.9 21.08 185.2 19.06ZM187.22 19.58C187.56 21.06 188.44 22.36 192.98 22.88C192.54 23.36 192.02 24.26 191.8 24.86C186.8 24.06 185.82 21.88 185.3 19.76L187.22 19.58ZM183.1 17.02L185.2 17.36C184.42 18.96 183.44 20.42 181.92 21.66C181.5 21.24 180.68 20.74 180.12 20.52C181.58 19.52 182.56 18.18 183.1 17.02ZM179.34 27.9V28.76H188.04V27.9H179.34ZM179.34 30.12V31H188.04V30.12H179.34ZM179.34 25.7V26.54H188.04V25.7H179.34ZM177.02 24.26H190.46V32.42H177.02V24.26ZM184.72 33.46L186.72 32.32C188.82 33.08 191.3 34.08 192.72 34.78L189.92 35.86C188.8 35.18 186.74 34.22 184.72 33.46ZM180.28 32.26L182.48 33.24C180.84 34.3 178.24 35.3 176.2 35.88C175.78 35.4 174.96 34.52 174.42 34.12C176.54 33.72 178.92 33.02 180.28 32.26ZM204.4 17.8H212.16V20.08H204.4V17.8ZM204.18 24.52H210.52V26.76H204.18V24.52ZM206.36 19.32H208.64V24.38C208.64 28.18 208.28 32.58 204.96 35.82C204.58 35.3 203.76 34.48 203.2 34.12C206.06 31.3 206.36 27.56 206.36 24.36V19.32ZM210.92 17.8H213.38C213.18 24.62 213.26 32.9 214.22 33.18C214.34 33.22 214.48 31.82 214.52 30.44C214.9 31.06 215.5 32.02 215.84 32.38C215.52 35.52 214.46 36.2 213.18 35.64C210.78 34.74 210.94 26.3 210.92 17.8ZM197.54 23.16H203.58V24.96H197.54V23.16ZM197.6 17.64H203.52V19.46H197.6V17.64ZM197.54 25.88H203.58V27.7H197.54V25.88ZM196.58 20.34H204.24V22.24H196.58V20.34ZM198.58 28.66H203.6V34.74H198.58V32.84H201.56V30.56H198.58V28.66ZM197.5 28.66H199.52V35.54H197.5V28.66Z" fill="white"/>
<a href="#">
<rect fill="black" fill-opacity="0" y="-0.102272" width="132" height="24.2045"/>
</a>
</svg>
