<svg width="300" height="54" viewBox="0 0 300 54" fill="none" xmlns="http://www.w3.org/2000/svg">
<rect width="300" height="54" rx="10" fill="#C88370"/>
<path d="M63.42 23.02H71.74V25.44H63.42V23.02ZM54.86 32.38H73.16V34.8H54.86V32.38ZM62.06 17.26H64.64V33.72H62.06V17.26ZM85.86 24.24V25.08H92.72V24.24H85.86ZM85.86 22.18V23H92.72V22.18H85.86ZM83.68 20.86H95.02V26.4H83.68V20.86ZM82.86 27.26C83.82 27.26 84.9267 27.2533 86.18 27.24C87.4333 27.2133 88.7667 27.1933 90.18 27.18C91.5933 27.1533 92.9933 27.1333 94.38 27.12L94.3 28.74C92.9667 28.78 91.62 28.82 90.26 28.86C88.9133 28.9 87.62 28.9333 86.38 28.96C85.1533 28.9867 84.04 29.0133 83.04 29.04L82.86 27.26ZM91.66 26.48L93.26 25.64C93.5933 25.9067 93.9333 26.2133 94.28 26.56C94.64 26.8933 94.9733 27.2267 95.28 27.56C95.5867 27.8933 95.84 28.2 96.04 28.48L94.32 29.44C94.1467 29.16 93.9133 28.8533 93.62 28.52C93.34 28.1733 93.0267 27.82 92.68 27.46C92.3333 27.1 91.9933 26.7733 91.66 26.48ZM88.1 17.16H90.44V27.98L88.1 28.22V17.16ZM82.44 29.72H95.8V31.54H82.44V29.72ZM90.92 28.24H93.24V33.6C93.24 34.1333 93.1733 34.5467 93.04 34.84C92.9067 35.1333 92.6467 35.36 92.26 35.52C91.8867 35.6667 91.4267 35.7533 90.88 35.78C90.3467 35.8067 89.7133 35.82 88.98 35.82C88.9267 35.5267 88.8333 35.1867 88.7 34.8C88.58 34.4267 88.4533 34.1 88.32 33.82C88.6267 33.8333 88.9267 33.8467 89.22 33.86C89.5267 33.86 89.8 33.86 90.04 33.86C90.2933 33.86 90.46 33.86 90.54 33.86C90.7 33.8467 90.8 33.82 90.84 33.78C90.8933 33.7267 90.92 33.6467 90.92 33.54V28.24ZM84.2 32.16L85.96 31.08C86.4133 31.4533 86.8733 31.8933 87.34 32.4C87.82 32.8933 88.1867 33.3333 88.44 33.72L86.56 34.94C86.3333 34.5533 85.9933 34.1 85.54 33.58C85.0867 33.0467 84.64 32.5733 84.2 32.16ZM82.86 18.38H95.6V20.1H82.86V18.38ZM81.14 17.08L83.4 17.8C82.9733 18.92 82.4667 20.0533 81.88 21.2C81.2933 22.3333 80.66 23.4133 79.98 24.44C79.3 25.4533 78.5933 26.34 77.86 27.1C77.7933 26.9 77.68 26.6467 77.52 26.34C77.3733 26.02 77.2133 25.7 77.04 25.38C76.8667 25.06 76.7133 24.8 76.58 24.6C77.18 23.9867 77.76 23.28 78.32 22.48C78.8933 21.68 79.42 20.82 79.9 19.9C80.3933 18.98 80.8067 18.04 81.14 17.08ZM79.22 22.62L81.5 20.34V20.36V35.76H79.22V22.62ZM110 22.06H117.1V23.8H110V32.3H107.9V23.4L109.16 22.06H110ZM112.66 19.96L114.88 20.48C114.64 21.0267 114.393 21.56 114.14 22.08C113.887 22.6 113.653 23.0533 113.44 23.44L111.6 22.96C111.8 22.5467 112 22.06 112.2 21.5C112.413 20.9267 112.567 20.4133 112.66 19.96ZM103.18 30.78C103.527 30.3267 103.913 29.7667 104.34 29.1C104.78 28.42 105.207 27.74 105.62 27.06L106.98 28.4C106.66 29.0133 106.313 29.6533 105.94 30.32C105.567 30.9867 105.187 31.62 104.8 32.22L103.18 30.78ZM102.58 24.58L103.8 23.26C104.227 23.46 104.68 23.7067 105.16 24C105.64 24.28 106.013 24.5533 106.28 24.82L104.98 26.28C104.727 26.0133 104.367 25.72 103.9 25.4C103.447 25.08 103.007 24.8067 102.58 24.58ZM103.54 21.24L104.82 19.94C105.247 20.1267 105.693 20.3667 106.16 20.66C106.64 20.9533 107.02 21.2267 107.3 21.48L105.94 22.9C105.7 22.6467 105.347 22.36 104.88 22.04C104.413 21.72 103.967 21.4533 103.54 21.24ZM109.08 19.8L111.02 20.36C110.58 21.5333 110.013 22.6733 109.32 23.78C108.627 24.8867 107.893 25.82 107.12 26.58C107.04 26.4333 106.913 26.26 106.74 26.06C106.58 25.8467 106.413 25.6333 106.24 25.42C106.08 25.2067 105.927 25.0333 105.78 24.9C106.473 24.2867 107.107 23.5333 107.68 22.64C108.267 21.7333 108.733 20.7867 109.08 19.8ZM109.4 24.76H116.62V26.34H109.4V24.76ZM109.4 27.34H116.62V28.9H109.4V27.34ZM109.24 29.96H117.36V31.7H109.24V29.96ZM111.82 23.06H113.9V31.32H111.82V23.06ZM100.44 17.72H117.52V19.86H102.78V35.82H100.44V17.72ZM101.94 32.82H118.06V35H101.94V32.82ZM122.06 18.62H131.44V20.58H122.06V18.62ZM121.78 27.34H131.68V29.3H121.78V27.34ZM122.56 21.58H131V23.52H122.56V21.58ZM122.68 24.46H130.88V26.4H122.68V24.46ZM125.68 28.18H127.92V33.56C127.92 34.0533 127.867 34.4467 127.76 34.74C127.667 35.0467 127.453 35.28 127.12 35.44C126.8 35.6133 126.433 35.72 126.02 35.76C125.607 35.8 125.12 35.82 124.56 35.82C124.52 35.5 124.433 35.1467 124.3 34.76C124.18 34.3733 124.053 34.0333 123.92 33.74C124.24 33.7533 124.54 33.76 124.82 33.76C125.113 33.76 125.313 33.76 125.42 33.76C125.593 33.76 125.68 33.6733 125.68 33.5V28.18ZM125.66 17.14H127.9V22.86H125.66V17.14ZM123.02 29.68L124.98 30.04C124.82 30.88 124.587 31.7 124.28 32.5C123.987 33.2867 123.653 33.9533 123.28 34.5C123.16 34.4067 122.987 34.3 122.76 34.18C122.533 34.06 122.307 33.9533 122.08 33.86C121.853 33.7667 121.653 33.6867 121.48 33.62C121.867 33.1133 122.187 32.5133 122.44 31.82C122.693 31.1267 122.887 30.4133 123.02 29.68ZM128.48 30.34L130.26 29.64C130.513 30.08 130.753 30.5667 130.98 31.1C131.207 31.6333 131.367 32.0867 131.46 32.46L129.58 33.28C129.527 33.0133 129.44 32.7133 129.32 32.38C129.213 32.0333 129.08 31.68 128.92 31.32C128.773 30.96 128.627 30.6333 128.48 30.34ZM133.26 20.62H138.9V22.8H133.26V20.62ZM135.66 21.46H136.8V24.9C136.8 25.3 136.833 25.78 136.9 26.34C136.98 26.9 137.107 27.5067 137.28 28.16C137.453 28.8133 137.687 29.4733 137.98 30.14C138.287 30.8067 138.667 31.4467 139.12 32.06C139.587 32.66 140.147 33.2067 140.8 33.7C140.667 33.8733 140.507 34.0867 140.32 34.34C140.133 34.5933 139.953 34.8467 139.78 35.1C139.607 35.3667 139.46 35.6 139.34 35.8C138.767 35.3733 138.26 34.86 137.82 34.26C137.393 33.66 137.027 33.0333 136.72 32.38C136.413 31.7267 136.173 31.1 136 30.5C135.827 29.9 135.707 29.3867 135.64 28.96C135.573 29.4 135.44 29.92 135.24 30.52C135.053 31.12 134.787 31.74 134.44 32.38C134.107 33.02 133.687 33.6333 133.18 34.22C132.687 34.82 132.113 35.3467 131.46 35.8C131.38 35.6267 131.26 35.4067 131.1 35.14C130.94 34.8867 130.767 34.6333 130.58 34.38C130.407 34.14 130.253 33.9467 130.12 33.8C130.84 33.32 131.453 32.7733 131.96 32.16C132.467 31.5333 132.88 30.88 133.2 30.2C133.533 29.52 133.793 28.8533 133.98 28.2C134.167 27.5467 134.293 26.94 134.36 26.38C134.44 25.8067 134.48 25.3133 134.48 24.9V21.46H135.66ZM132.8 16.98L135.22 17.32C135.073 18.5333 134.867 19.72 134.6 20.88C134.347 22.0267 134.033 23.1067 133.66 24.12C133.3 25.12 132.887 25.9933 132.42 26.74C132.287 26.5933 132.093 26.4267 131.84 26.24C131.587 26.0533 131.333 25.8667 131.08 25.68C130.827 25.4933 130.607 25.3467 130.42 25.24C130.86 24.6 131.233 23.84 131.54 22.96C131.86 22.08 132.12 21.1267 132.32 20.1C132.533 19.0733 132.693 18.0333 132.8 16.98ZM138.24 20.62H138.56L138.92 20.54L140.52 20.96C140.44 21.6 140.347 22.2667 140.24 22.96C140.133 23.64 140.013 24.2933 139.88 24.92C139.76 25.5467 139.64 26.1067 139.52 26.6L137.62 26.04C137.7 25.6 137.78 25.0933 137.86 24.52C137.94 23.9467 138.013 23.3533 138.08 22.74C138.16 22.1133 138.213 21.5267 138.24 20.98V20.62ZM147.2 17.02H149.22V35.8H147.2V17.02ZM144.58 20.7H150.96V22.8H146.34V31.64H144.58V20.7ZM150.12 20.7H151.82V29.26C151.82 29.62 151.787 29.9533 151.72 30.26C151.667 30.5667 151.533 30.8067 151.32 30.98C151.107 31.1667 150.873 31.2867 150.62 31.34C150.38 31.38 150.087 31.4 149.74 31.4C149.727 31.12 149.667 30.7867 149.56 30.4C149.453 30 149.333 29.6667 149.2 29.4C149.373 29.4 149.527 29.4 149.66 29.4C149.807 29.4 149.907 29.4 149.96 29.4C150.067 29.4 150.12 29.3333 150.12 29.2V20.7ZM154.04 17.74H162.1V19.68H154.04V17.74ZM154.06 20.58H161.46V22.34H154.06V20.58ZM154.06 23.28H161.46V25.04H154.06V23.28ZM152.02 25.98H162.82V27.94H152.02V25.98ZM151.36 33.48C152.24 33.3733 153.293 33.2267 154.52 33.04C155.76 32.8533 157.013 32.6667 158.28 32.48L158.42 34.44C157.273 34.6533 156.127 34.86 154.98 35.06C153.833 35.26 152.793 35.44 151.86 35.6L151.36 33.48ZM158.3 26.66C158.527 27.7667 158.84 28.7867 159.24 29.72C159.653 30.6533 160.187 31.46 160.84 32.14C161.507 32.82 162.327 33.3467 163.3 33.72C163.127 33.88 162.94 34.08 162.74 34.32C162.54 34.56 162.353 34.8133 162.18 35.08C162.007 35.3467 161.86 35.5867 161.74 35.8C160.673 35.2933 159.787 34.6133 159.08 33.76C158.387 32.9067 157.82 31.9067 157.38 30.76C156.953 29.6133 156.613 28.34 156.36 26.94L158.3 26.66ZM161.46 28.1L163.04 29.54C162.507 29.9933 161.927 30.4467 161.3 30.9C160.673 31.3533 160.113 31.74 159.62 32.06L158.3 30.72C158.62 30.5067 158.973 30.2533 159.36 29.96C159.747 29.6533 160.127 29.34 160.5 29.02C160.873 28.6867 161.193 28.38 161.46 28.1ZM153.16 17.74H155.38V26.94H153.16V17.74ZM153.14 26.98H155.36V33.72L153.14 34V26.98ZM169.56 19.58V21.74H171.42V19.58H169.56ZM167.46 17.68H173.64V23.66H167.46V17.68ZM166.6 24.6H174.34V26.66H166.6V24.6ZM168.3 25.56H170.48C170.373 26.1467 170.247 26.7667 170.1 27.42C169.967 28.06 169.833 28.6867 169.7 29.3C169.567 29.9 169.433 30.4267 169.3 30.88L167.16 30.52C167.293 30.0667 167.427 29.56 167.56 29C167.707 28.4267 167.84 27.8467 167.96 27.26C168.093 26.66 168.207 26.0933 168.3 25.56ZM168.9 27.88H172.26V29.84H168.46L168.9 27.88ZM171.42 27.88H173.56C173.56 27.88 173.553 27.9867 173.54 28.2C173.54 28.4133 173.533 28.5867 173.52 28.72C173.453 30.04 173.367 31.1333 173.26 32C173.167 32.8533 173.053 33.52 172.92 34C172.8 34.4667 172.647 34.8067 172.46 35.02C172.247 35.26 172.02 35.4267 171.78 35.52C171.553 35.6267 171.287 35.7 170.98 35.74C170.727 35.78 170.387 35.8 169.96 35.8C169.547 35.8133 169.107 35.8067 168.64 35.78C168.627 35.4733 168.56 35.12 168.44 34.72C168.333 34.3333 168.187 34 168 33.72C168.413 33.76 168.8 33.7867 169.16 33.8C169.52 33.8 169.787 33.8 169.96 33.8C170.107 33.8133 170.233 33.8067 170.34 33.78C170.46 33.7533 170.567 33.6933 170.66 33.6C170.78 33.4667 170.88 33.2067 170.96 32.82C171.053 32.4333 171.14 31.8667 171.22 31.12C171.3 30.36 171.367 29.38 171.42 28.18V27.88ZM179.64 18.1H184.72V19.98H179.64V18.1ZM175.76 20.86H184.08V22.76H175.76V20.86ZM178.56 17H180.86V21.72H178.56V17ZM174.8 20.86H176.94V26.06C176.94 26.7933 176.907 27.5933 176.84 28.46C176.787 29.3133 176.687 30.18 176.54 31.06C176.393 31.94 176.173 32.7933 175.88 33.62C175.587 34.4467 175.207 35.1933 174.74 35.86C174.62 35.7267 174.447 35.5733 174.22 35.4C174.007 35.2267 173.78 35.06 173.54 34.9C173.313 34.7533 173.12 34.64 172.96 34.56C173.52 33.7467 173.927 32.8467 174.18 31.86C174.447 30.86 174.613 29.86 174.68 28.86C174.76 27.8467 174.8 26.9133 174.8 26.06V20.86ZM177.1 24.1L182.56 23.62L182.74 25.2L177.3 25.7L177.1 24.1ZM178.7 22.58H180.8V25.64C180.8 25.88 180.827 26.0333 180.88 26.1C180.947 26.1533 181.1 26.18 181.34 26.18C181.393 26.18 181.48 26.18 181.6 26.18C181.72 26.18 181.853 26.18 182 26.18C182.147 26.18 182.28 26.18 182.4 26.18C182.533 26.18 182.633 26.18 182.7 26.18C182.833 26.18 182.933 26.16 183 26.12C183.067 26.0667 183.12 25.9733 183.16 25.84C183.2 25.6933 183.227 25.48 183.24 25.2C183.44 25.3333 183.713 25.46 184.06 25.58C184.407 25.7 184.72 25.7867 185 25.84C184.893 26.6133 184.687 27.14 184.38 27.42C184.087 27.7 183.613 27.84 182.96 27.84C182.867 27.84 182.727 27.84 182.54 27.84C182.367 27.84 182.18 27.84 181.98 27.84C181.78 27.84 181.593 27.84 181.42 27.84C181.247 27.84 181.113 27.84 181.02 27.84C180.393 27.84 179.913 27.7733 179.58 27.64C179.247 27.5067 179.013 27.28 178.88 26.96C178.76 26.64 178.7 26.2067 178.7 25.66V22.58ZM183.46 20.86H183.76L184.08 20.8L185.6 21.12C185.493 21.8 185.373 22.5 185.24 23.22C185.107 23.9267 184.973 24.5267 184.84 25.02L183.04 24.6C183.12 24.16 183.2 23.6133 183.28 22.96C183.36 22.3067 183.42 21.7 183.46 21.14V20.86ZM177.78 28.48H179.8C179.76 29.6133 179.653 30.6533 179.48 31.6C179.32 32.5333 179.027 33.36 178.6 34.08C178.187 34.8 177.567 35.4133 176.74 35.92C176.62 35.64 176.427 35.3267 176.16 34.98C175.893 34.6333 175.64 34.36 175.4 34.16C176.08 33.7733 176.58 33.3133 176.9 32.78C177.22 32.2467 177.44 31.62 177.56 30.9C177.68 30.18 177.753 29.3733 177.78 28.48ZM180.78 28.48H182.8V33.02C182.8 33.0733 182.807 33.1267 182.82 33.18C182.833 33.2333 182.853 33.2733 182.88 33.3C182.933 33.38 183.027 33.42 183.16 33.42C183.213 33.42 183.273 33.42 183.34 33.42C183.42 33.42 183.487 33.42 183.54 33.42C183.593 33.42 183.653 33.4133 183.72 33.4C183.787 33.3733 183.833 33.3467 183.86 33.32C183.9 33.2933 183.933 33.2467 183.96 33.18C183.987 33.1 184.007 33.0133 184.02 32.92C184.047 32.7733 184.067 32.54 184.08 32.22C184.093 31.8867 184.1 31.5067 184.1 31.08C184.287 31.2533 184.54 31.4333 184.86 31.62C185.18 31.7933 185.48 31.92 185.76 32C185.747 32.48 185.713 32.94 185.66 33.38C185.607 33.82 185.547 34.14 185.48 34.34C185.413 34.54 185.327 34.7133 185.22 34.86C185.113 35.0067 184.973 35.14 184.8 35.26C184.667 35.34 184.5 35.4067 184.3 35.46C184.1 35.5133 183.893 35.54 183.68 35.54C183.587 35.54 183.467 35.54 183.32 35.54C183.187 35.54 183.053 35.54 182.92 35.54C182.787 35.54 182.673 35.54 182.58 35.54C182.313 35.54 182.06 35.5 181.82 35.42C181.58 35.3533 181.373 35.2333 181.2 35.06C181.04 34.8867 180.927 34.68 180.86 34.44C180.807 34.2 180.78 33.7867 180.78 33.2V28.48ZM189.64 20.06H207.28V22.46H189.64V20.06ZM190.56 25.08H206.36V27.44H190.56V25.08ZM197.1 17H199.66V35.78H197.1V17ZM196.68 26.38L198.6 27.16C198.133 27.96 197.6 28.7333 197 29.48C196.4 30.2267 195.753 30.94 195.06 31.62C194.38 32.2867 193.667 32.9067 192.92 33.48C192.173 34.04 191.42 34.5267 190.66 34.94C190.527 34.7267 190.353 34.4867 190.14 34.22C189.94 33.9667 189.727 33.7133 189.5 33.46C189.287 33.1933 189.08 32.98 188.88 32.82C189.64 32.4867 190.393 32.0867 191.14 31.62C191.887 31.1533 192.607 30.64 193.3 30.08C193.993 29.5067 194.627 28.9067 195.2 28.28C195.773 27.64 196.267 27.0067 196.68 26.38ZM200.1 26.24C200.513 26.88 201.007 27.5133 201.58 28.14C202.167 28.7667 202.807 29.3667 203.5 29.94C204.193 30.5 204.913 31.02 205.66 31.5C206.42 31.9667 207.18 32.36 207.94 32.68C207.74 32.8533 207.527 33.0667 207.3 33.32C207.073 33.5733 206.853 33.8333 206.64 34.1C206.44 34.3667 206.267 34.6067 206.12 34.82C205.36 34.4067 204.607 33.92 203.86 33.36C203.127 32.7867 202.413 32.1667 201.72 31.5C201.027 30.82 200.38 30.1067 199.78 29.36C199.18 28.6 198.647 27.8267 198.18 27.04L200.1 26.24ZM217.149 34.1989C216.202 34.1989 215.355 34.0213 214.607 33.6662C213.859 33.3063 213.264 32.8139 212.824 32.1889C212.389 31.5639 212.157 30.849 212.128 30.044H214.685C214.732 30.6406 214.99 31.1283 215.459 31.5071C215.928 31.8812 216.491 32.0682 217.149 32.0682C217.666 32.0682 218.125 31.9498 218.527 31.7131C218.93 31.4763 219.247 31.1473 219.479 30.7259C219.711 30.3045 219.825 29.8239 219.82 29.2841C219.825 28.7348 219.709 28.2472 219.472 27.821C219.235 27.3949 218.911 27.0611 218.499 26.8196C218.087 26.5734 217.613 26.4503 217.078 26.4503C216.643 26.4455 216.214 26.526 215.793 26.6918C215.371 26.8575 215.038 27.0753 214.791 27.3452L212.412 26.9545L213.172 19.4545H221.61V21.6562H215.353L214.934 25.5128H215.019C215.289 25.1955 215.67 24.9328 216.162 24.7244C216.655 24.5114 217.194 24.4048 217.782 24.4048C218.662 24.4048 219.448 24.6132 220.139 25.0298C220.831 25.4418 221.375 26.0099 221.773 26.7344C222.171 27.4588 222.37 28.2874 222.37 29.2202C222.37 30.1813 222.147 31.0384 221.702 31.7912C221.262 32.5393 220.648 33.1288 219.863 33.5597C219.081 33.9858 218.177 34.1989 217.149 34.1989ZM226.636 17.74H234.256V19.92H226.636V17.74ZM228.976 24.12H233.676V33.36H228.976V31.3H231.596V26.2H228.976V24.12ZM228.816 18.9L231.056 19.24C230.856 20.68 230.603 22.0933 230.296 23.48C229.99 24.8533 229.596 26.1467 229.116 27.36C228.65 28.56 228.083 29.6133 227.416 30.52C227.35 30.3333 227.236 30.1 227.076 29.82C226.93 29.5267 226.77 29.2333 226.596 28.94C226.423 28.6467 226.263 28.4133 226.116 28.24C226.636 27.5067 227.07 26.6467 227.416 25.66C227.763 24.66 228.043 23.5867 228.256 22.44C228.483 21.2933 228.67 20.1133 228.816 18.9ZM227.936 24.12H229.996V34.92H227.936V24.12ZM236.036 20.9H244.036V22.76H236.036V20.9ZM236.036 23.92H244.036V25.78H236.036V23.92ZM234.896 27H243.536V29.08H234.896V27ZM239.036 18.84H241.156V27.82H239.036V18.84ZM236.576 30.48L238.136 30.26C238.256 30.8333 238.35 31.46 238.416 32.14C238.483 32.82 238.51 33.4067 238.496 33.9L236.836 34.16C236.863 33.6533 236.85 33.06 236.796 32.38C236.756 31.6867 236.683 31.0533 236.576 30.48ZM238.676 30.36L240.116 29.96C240.303 30.44 240.47 30.96 240.616 31.52C240.776 32.08 240.883 32.5667 240.936 32.98L239.416 33.4C239.363 33 239.263 32.5133 239.116 31.94C238.983 31.3667 238.836 30.84 238.676 30.36ZM240.656 29.98L241.856 29.5C242.11 29.8467 242.336 30.24 242.536 30.68C242.75 31.1067 242.903 31.4733 242.996 31.78L241.736 32.34C241.643 32.02 241.496 31.64 241.296 31.2C241.096 30.7467 240.883 30.34 240.656 29.98ZM234.616 29.64L236.356 30.08C236.263 30.96 236.116 31.84 235.916 32.72C235.716 33.5867 235.39 34.3133 234.936 34.9L233.296 33.98C233.683 33.4733 233.976 32.8267 234.176 32.04C234.39 31.2533 234.536 30.4533 234.616 29.64ZM234.896 17.74H244.616V19.8H237.076V28.1H234.896V17.74ZM242.816 27H245.016C245.016 27 245.01 27.1133 244.996 27.34C244.996 27.5533 244.99 27.7333 244.976 27.88C244.923 29.4133 244.85 30.6667 244.756 31.64C244.676 32.6133 244.576 33.3667 244.456 33.9C244.35 34.42 244.21 34.7933 244.036 35.02C243.85 35.26 243.643 35.4333 243.416 35.54C243.203 35.6467 242.95 35.72 242.656 35.76C242.403 35.8 242.083 35.82 241.696 35.82C241.31 35.8333 240.896 35.8333 240.456 35.82C240.443 35.5 240.383 35.1467 240.276 34.76C240.17 34.3733 240.03 34.04 239.856 33.76C240.216 33.8 240.55 33.8267 240.856 33.84C241.163 33.8533 241.39 33.86 241.536 33.86C241.683 33.86 241.796 33.84 241.876 33.8C241.97 33.76 242.063 33.6933 242.156 33.6C242.276 33.4667 242.376 33.1867 242.456 32.76C242.536 32.32 242.603 31.6667 242.656 30.8C242.723 29.9333 242.776 28.7867 242.816 27.36V27Z" fill="white"/>
<a href="#">
<rect fill="black" fill-opacity="0" y="-0.102272" width="191.856" height="24.2045"/>
</a>
</svg>
